<svg width="72" height="79" viewBox="0 0 72 79" fill="none" xmlns="http://www.w3.org/2000/svg">
<g clip-path="url(#clip0_0_8503)">
<path d="M18.7535 15.858L20.3561 18.1409C20.6243 18.5212 20.7483 18.9845 20.7059 19.4477C20.6636 19.911 20.4577 20.344 20.125 20.6693L19.6643 21.1241C13.9696 26.8201 12.1703 35.7074 15.0913 42.3037C14.7811 42.3816 14.4842 42.5051 14.2103 42.6701C13.7727 42.925 13.3996 43.277 13.1198 43.699C12.84 44.1209 12.661 44.6016 12.5966 45.1038L12.5193 45.7039L12.2373 45.7817C11.5984 45.9474 11.0208 46.2934 10.5735 46.7785C10.1262 47.2635 9.82799 47.8669 9.71454 48.5169C9.6087 49.1977 9.71669 49.8947 10.0237 50.5118C10.3306 51.1289 10.8214 51.6357 11.4285 51.9624L11.9755 52.2553L11.9608 52.9233C11.9386 53.4527 12.0387 53.9801 12.2534 54.4646C12.4681 54.9492 12.7916 55.3777 13.1988 55.7171C13.653 56.0813 14.1948 56.3203 14.7701 56.4101C15.3454 56.5 15.9342 56.4376 16.4777 56.2292C16.3226 56.6192 16.165 57.0153 16.0074 57.4115C15.6155 58.4262 15.5509 59.5381 15.8225 60.5916C16.0941 61.6452 16.6885 62.5876 17.5223 63.287C18.2975 63.9383 19.1142 64.5386 19.9673 65.0841C20.7266 66.845 22.3393 68.3719 24.541 69.2478C24.6618 69.2958 24.7888 69.3463 24.9127 69.3956C27.1148 70.1712 29.3047 70.1211 31.0444 69.3542C32.2881 69.5909 33.3311 69.719 34.0744 69.7889C35.1939 69.9039 36.3203 69.6513 37.2831 69.0694C38.2459 68.4874 38.9927 67.6076 39.4105 66.5633C39.7145 65.7989 40.2427 64.4712 41.0306 62.4905C41.1974 62.5148 41.3659 62.5255 41.5344 62.5224L41.553 62.5298C41.9123 63.0464 42.4156 63.4461 43.0003 63.6791C43.7161 63.9673 44.5122 63.9861 45.2406 63.732C45.969 63.4779 46.5803 62.9681 46.9609 62.2973C47.6049 62.2591 48.2223 62.0272 48.7319 61.6319C49.2415 61.2366 49.6196 60.6965 49.8166 60.0825C50.0135 59.4684 50.0201 58.8092 49.8354 58.1912C49.6508 57.5732 49.2835 57.0253 48.7819 56.6196C48.8366 56.3756 48.8624 56.126 48.8589 55.876C51.7309 54.4268 54.9596 51.6749 57.5728 45.746C58.8487 42.9244 59.5865 39.8894 59.7482 36.7968C59.7609 36.389 59.8993 35.9952 60.1446 35.6693C60.3898 35.3433 60.7298 35.1011 61.1182 34.9759L64.4415 33.9249C64.7686 33.8214 65.0507 33.6098 65.2416 33.3249C65.4325 33.04 65.5208 32.6987 65.492 32.3569C65.2981 29.9091 64.7274 27.5057 63.8 25.2316C61.0359 18.5114 55.259 13.1163 47.5019 10.0306C47.1922 9.9074 46.8608 9.7756 46.5388 9.64749C33.3293 4.823 25.12 8.57241 19.0011 13.838C18.7138 14.0822 18.5288 14.4254 18.4829 14.7996C18.4371 15.1738 18.5336 15.5516 18.7535 15.858Z" fill="#21262B"/>
<path d="M64.0658 33.2198C64.3938 33.1193 64.6779 32.9103 64.8714 32.627C65.0649 32.3438 65.1563 32.0032 65.1306 31.6611C64.9385 29.213 64.3677 26.8093 63.4386 24.5358C60.6627 17.8181 54.8734 12.4181 47.1132 9.33113C46.8035 9.20794 46.4691 9.0749 46.147 8.94679C32.9376 4.14024 24.7326 7.88779 18.6075 13.151C18.3256 13.3961 18.1447 13.7371 18.0999 14.108C18.055 14.4788 18.1494 14.8532 18.3648 15.1586L19.9674 17.4414C20.2369 17.8212 20.3621 18.2847 20.3203 18.7485C20.2785 19.2122 20.0725 19.6457 19.7394 19.971C19.5819 20.1235 19.4288 20.274 19.2787 20.4258C13.584 26.1219 11.7816 35.008 14.7026 41.6042C14.3981 41.6814 14.1058 41.8004 13.8339 41.9576C13.3968 42.213 13.0242 42.5653 12.745 42.9875C12.4657 43.4097 12.2872 43.8904 12.2233 44.3925L12.1448 44.9957L11.8597 45.0723C11.2213 45.2376 10.6441 45.5832 10.1969 46.0676C9.74982 46.5521 9.45171 47.155 9.3382 47.8044C9.23235 48.4853 9.34035 49.1822 9.64731 49.7993C9.95428 50.4164 10.4451 50.9232 11.0521 51.2499L11.5992 51.5428L11.5814 52.2096C11.5603 52.7393 11.6613 53.2668 11.8765 53.7514C12.0916 54.236 12.4153 54.6648 12.8224 55.0046C13.2765 55.3681 13.8178 55.6065 14.3925 55.6961C14.9671 55.7858 15.5552 55.7235 16.0983 55.5155C15.9432 55.9055 15.7856 56.3016 15.6268 56.7009C15.2352 57.7152 15.1709 58.8267 15.4427 59.8797C15.7146 60.9327 16.309 61.8745 17.1428 62.5733C17.9181 63.2246 18.7348 63.8249 19.5878 64.3704C20.3471 66.1313 21.9599 67.6582 24.1616 68.5341L24.5363 68.6831C26.7397 69.4557 28.9141 69.3994 30.6538 68.6325C31.8975 68.8692 32.9436 68.9985 33.6869 69.0684C34.7998 69.1788 35.9185 68.9259 36.8753 68.3476C37.8321 67.7692 38.5756 66.8965 38.9945 65.8602C39.2986 65.0958 39.8453 63.7755 40.6289 61.7966C40.7953 61.8184 40.9631 61.8277 41.1309 61.8242L41.1525 61.8328C41.5118 62.3495 42.0152 62.7491 42.5999 62.9821C43.3158 63.2696 44.1116 63.2881 44.8398 63.034C45.568 62.7799 46.1793 62.2706 46.5605 61.6003C47.2045 61.5621 47.8218 61.3302 48.3315 60.9349C48.8411 60.5397 49.2192 59.9996 49.4161 59.3855C49.6131 58.7715 49.6196 58.1122 49.435 57.4942C49.2503 56.8762 48.8831 56.3284 48.3814 55.9226C48.4352 55.6781 48.46 55.4281 48.4554 55.1778C51.3261 53.7317 54.5592 50.9779 57.1692 45.0478C58.4478 42.2271 59.1857 39.1916 59.3447 36.0986C59.3607 35.6923 59.5003 35.3006 59.7449 34.9758C59.9894 34.651 60.3273 34.4086 60.7134 34.2808L64.0658 33.2198Z" fill="white"/>
<path d="M15.9061 44.5742L17.2788 46.6867L19.7638 46.3275C19.8563 46.3108 19.9517 46.3234 20.0368 46.3634C20.1218 46.4033 20.1924 46.4687 20.2387 46.5505C20.2849 46.6323 20.3046 46.7264 20.295 46.8199C20.2853 46.9133 20.2469 47.0015 20.1849 47.0721L18.617 48.9218L19.3846 50.7792C19.4171 50.8574 19.427 50.9432 19.4132 51.0268C19.3994 51.1103 19.3624 51.1883 19.3065 51.252C19.2506 51.3156 19.1779 51.3622 19.0968 51.3866C19.0156 51.411 18.9293 51.4122 18.8475 51.39L16.9033 50.8675L15.2457 52.7174C15.1831 52.7854 15.1014 52.8329 15.0112 52.8535C14.921 52.874 14.8267 52.8667 14.7408 52.8325C14.6548 52.7984 14.5813 52.7389 14.5299 52.662C14.4785 52.5851 14.4517 52.4945 14.4529 52.402L14.4989 49.843L12.3963 48.709C12.3154 48.6674 12.2491 48.6021 12.206 48.522C12.163 48.4418 12.1453 48.3506 12.1552 48.2602C12.1651 48.1698 12.2022 48.0845 12.2616 48.0156C12.3211 47.9468 12.4 47.8976 12.488 47.8745L14.7373 47.2601L15.0823 44.7699C15.0943 44.6789 15.1336 44.5937 15.1951 44.5256C15.2566 44.4575 15.3374 44.4097 15.4267 44.3884C15.516 44.3672 15.6097 44.3736 15.6953 44.4068C15.7809 44.44 15.8544 44.4984 15.9061 44.5742Z" fill="#DDF247"/>
<path d="M45.5916 55.3077L45.1758 57.0564L46.5877 58.1594C46.6357 58.2022 46.6702 58.2579 46.6872 58.3198C46.7041 58.3818 46.7028 58.4473 46.6834 58.5085C46.664 58.5697 46.6273 58.624 46.5777 58.6649C46.5281 58.7057 46.4678 58.7313 46.4039 58.7386L44.6789 58.8374L44.0956 60.1504C44.0688 60.2029 44.0284 60.2473 43.9787 60.2792C43.929 60.311 43.8718 60.329 43.8128 60.3314C43.7538 60.3339 43.6952 60.3206 43.6431 60.293C43.5909 60.2654 43.547 60.2244 43.5158 60.1743L42.8294 58.9154L41.0585 58.9673C40.9943 58.9649 40.9321 58.9439 40.8795 58.9069C40.8269 58.87 40.7862 58.8186 40.7621 58.7591C40.738 58.6995 40.7317 58.6342 40.7439 58.5712C40.7561 58.5081 40.7863 58.4499 40.8308 58.4036L42.1828 57.1778L41.7313 55.5357C41.7191 55.4744 41.7244 55.4109 41.7465 55.3524C41.7687 55.294 41.8069 55.243 41.8567 55.2052C41.9065 55.1674 41.966 55.1444 42.0282 55.1389C42.0905 55.1333 42.1531 55.1453 42.2089 55.1736L43.6327 56.0304L45.0841 54.9696C45.1386 54.9349 45.202 54.9167 45.2666 54.9174C45.3312 54.9181 45.3943 54.9375 45.448 54.9733C45.5018 55.0091 45.544 55.0598 45.5695 55.1192C45.595 55.1786 45.6027 55.244 45.5916 55.3077Z" fill="#DDF247"/>
<path d="M29.9414 63.9581C29.549 65.0709 27.7447 65.4501 25.9067 64.805C24.0687 64.1598 22.9011 62.7311 23.2948 61.6152C23.6885 60.4993 25.4915 60.1232 27.3252 60.7702C29.1589 61.4172 30.329 62.8576 29.9414 63.9581Z" fill="#DDF247"/>
<path d="M42.4536 18.8802C52.3654 22.5004 58.5883 31.6791 53.4329 43.3859C48.2774 55.0927 41.5035 51.0682 38.901 55.0048L30.1701 55.593L22.8808 49.0049C22.8808 49.0049 22.1608 45.901 19.2379 41.3831C15.8326 36.0854 17.5074 28.016 22.1894 23.333C26.8714 18.6501 32.3152 15.1806 42.4536 18.8802Z" fill="#DDF247"/>
<path d="M22.8809 49.0048C22.8809 49.0048 28.8077 53.04 38.8961 55.0171C36.9074 60.1334 35.7199 63.0736 35.2027 64.3016C35.1133 64.5194 34.9563 64.7027 34.7548 64.8245C34.5533 64.9464 34.318 65.0003 34.0835 64.9784C31.7501 64.7671 24.9348 63.7587 19.7908 59.4327C19.6121 59.284 19.4847 59.0828 19.4268 58.8578C19.3689 58.6327 19.3834 58.3951 19.4682 58.1788C21.3566 53.3416 22.8809 49.0048 22.8809 49.0048Z" fill="#21262B"/>
<path d="M29.9138 54.6235C28.5207 54.098 27.1478 53.522 25.795 52.8954C24.5537 52.3192 23.3352 51.6947 22.1592 51.0082C22.1063 51.1413 22.0521 51.2775 21.9955 51.4199C23.1529 52.1168 24.356 52.7531 25.5713 53.3406C26.9254 53.9939 28.3021 54.5965 29.7014 55.1484C32.3494 56.2021 35.081 57.0321 37.8675 57.6297C37.9525 57.4162 38.0411 57.1933 38.1298 56.9705C35.3294 56.4231 32.5807 55.6379 29.9138 54.6235Z" fill="#DDF247"/>
<path d="M35.5439 63.4982C35.6202 63.3063 35.7064 63.0896 35.7987 62.8575C32.987 62.3229 30.2147 61.5985 27.5008 60.6894C26.0901 60.2143 24.6893 59.6965 23.318 59.1223C22.0992 58.6224 20.9107 58.0515 19.7587 57.4125C19.7045 57.5487 19.6491 57.6879 19.595 57.8241C20.7336 58.4785 21.9095 59.066 23.1166 59.5835C24.4948 60.1854 25.8913 60.7231 27.3132 61.2241C30.0023 62.1669 32.7522 62.9266 35.5439 63.4982Z" fill="#DDF247"/>
<path d="M36.6704 60.6845L36.8329 60.276C34.0382 59.6898 31.3047 58.8425 28.6685 57.7452C26.0452 56.6713 23.5056 55.4034 21.0707 53.9521C21.0042 54.1193 20.9378 54.2864 20.8701 54.4566C23.3088 55.8875 25.8492 57.1377 28.4708 58.197C31.1207 59.2794 33.8658 60.1122 36.6704 60.6845Z" fill="#DDF247"/>
<path d="M24.5963 32.0152L27.9779 33.3603L26.6754 36.6347L25.2819 36.0804L25.6711 34.615C25.3545 35.028 24.8929 35.3056 24.3794 35.3916C23.824 35.4675 23.2584 35.3888 22.7447 35.1643C22.2435 34.9767 21.8017 34.6586 21.4649 34.243C21.1458 33.837 20.9494 33.3485 20.8988 32.8349C20.8457 32.2592 20.9358 31.6793 21.1613 31.147C21.3034 30.7265 21.5314 30.3401 21.831 30.0125C22.1305 29.6849 22.4949 29.4231 22.9011 29.2438C23.6822 28.9213 24.6698 28.9963 25.8639 29.4689C26.4859 29.7023 27.0539 30.06 27.5332 30.5201C27.9681 30.9504 28.284 31.4861 28.4498 32.0748L26.767 32.2478L26.5245 32.2803C26.4012 31.9957 26.2194 31.7401 25.9907 31.5303C25.752 31.3165 25.4766 31.1474 25.1778 31.0313C24.9784 30.9331 24.7606 30.8779 24.5386 30.8692C24.3165 30.8605 24.0951 30.8986 23.8887 30.9809C23.5345 31.1489 23.2605 31.4493 23.1256 31.8173C23.0429 32.0028 22.9996 32.2035 22.9984 32.4066C22.9972 32.6097 23.0382 32.8109 23.1188 32.9975C23.3475 33.417 23.7313 33.7305 24.1881 33.8709C24.423 33.9645 24.6704 34.0231 24.9224 34.0447C25.1651 34.066 25.409 34.0205 25.6276 33.913L24.0792 33.2971L24.5963 32.0152Z" fill="#21262B"/>
<path d="M28.4437 36.5174C28.1347 35.6957 28.1432 34.7885 28.4676 33.973C28.792 33.1574 29.409 32.4922 30.198 32.1073C30.9759 31.8049 31.9717 31.8952 33.1856 32.3781C34.4057 32.8634 35.1929 33.4812 35.5522 34.2371C35.8581 35.0603 35.8478 35.9675 35.5233 36.7832C35.1988 37.599 34.5831 38.2654 33.7954 38.6535C33.0249 38.9492 32.0254 38.8563 30.7991 38.3685C29.5728 37.8807 28.8042 37.2702 28.4437 36.5174ZM32.8424 36.9194C33.2076 36.7294 33.4921 36.4145 33.6442 36.0322C33.7963 35.6498 33.8058 35.2255 33.671 34.8366C33.3759 34.4611 32.9867 34.1703 32.5429 33.9937C32.0991 33.8172 31.6165 33.7612 31.1441 33.8314C30.7794 34.021 30.4952 34.3355 30.3433 34.7173C30.1914 35.0991 30.182 35.5229 30.3168 35.9112C30.5794 36.3169 30.9784 36.6154 31.4417 36.753C31.8744 36.9721 32.3706 37.0311 32.8424 36.9194Z" fill="#21262B"/>
<path d="M36.1327 39.576C35.8237 38.7543 35.8322 37.8471 36.1567 37.0315C36.4811 36.216 37.098 35.5508 37.887 35.1659C38.6628 34.8627 39.6587 34.953 40.8746 35.4367C42.0947 35.922 42.8819 36.5398 43.2412 37.2957C43.5456 38.119 43.5345 39.0256 43.2102 39.841C42.8858 40.6564 42.2711 41.3228 41.4844 41.7121C40.7109 42.0066 39.7113 41.9136 38.4881 41.4271C37.2649 40.9405 36.4932 40.3288 36.1327 39.576ZM40.5315 39.978C40.8966 39.788 41.1812 39.4731 41.3333 39.0908C41.4854 38.7084 41.4949 38.2841 41.36 37.8952C41.065 37.5197 40.6757 37.2289 40.2319 37.0523C39.7881 36.8758 39.3055 36.8198 38.8331 36.89C38.4684 37.0796 38.1842 37.3941 38.0323 37.7759C37.8804 38.1577 37.871 38.5815 38.0058 38.9698C38.2684 39.3755 38.6674 39.674 39.1307 39.8116C39.5634 40.0307 40.0596 40.0897 40.5315 39.978Z" fill="#21262B"/>
<path d="M49.7483 39.4754C50.182 39.8587 50.4689 40.3809 50.5596 40.9524C50.609 41.5276 50.5156 42.1061 50.2877 42.6365C50.0862 43.1848 49.7358 43.666 49.2758 44.0263C48.8145 44.368 48.2588 44.5588 47.6847 44.5727C46.9664 44.5829 46.254 44.4412 45.5941 44.1569L44.1604 43.5865L42.6864 43.0002C43.1434 41.9776 43.5473 41.0163 43.9043 40.1188C44.2613 39.2212 44.6244 38.2544 44.9725 37.253C45.6124 37.4478 46.467 37.7579 47.5364 38.1833C48.3499 38.4679 49.1009 38.9067 49.7483 39.4754ZM46.4394 42.6721C46.9318 42.868 47.3037 42.8797 47.5626 42.7067C47.8593 42.4836 48.0807 42.1753 48.1975 41.823C48.3506 41.487 48.3958 41.1118 48.3271 40.7489C48.2552 40.4336 47.9793 40.1805 47.5056 39.992C47.1243 39.8337 46.7346 39.6966 46.3382 39.5814L45.2905 42.2151L46.4394 42.6721Z" fill="#21262B"/>
<path d="M26.6997 39.6483C26.3026 39.4653 26.0072 39.3334 25.8164 39.254L25.122 40.9995C25.3171 41.0771 25.6237 41.1811 26.0336 41.3226L25.6261 42.347L22.6595 41.167L23.0633 40.1518C23.4461 40.3256 23.7385 40.4563 23.9416 40.5407L24.636 38.7952C24.4295 38.713 24.1273 38.6072 23.7294 38.4775L24.1369 37.4531L27.1035 38.6332L26.6997 39.6483Z" fill="#21262B"/>
<path d="M30.5957 40.223C30.8755 40.47 31.0599 40.8072 31.1169 41.1759C31.15 41.551 31.0887 41.9283 30.9385 42.2736C30.809 42.6242 30.5847 42.9321 30.2906 43.1629C29.9918 43.3827 29.6326 43.5051 29.2617 43.5135C28.7979 43.5212 28.3378 43.4298 27.9121 43.2455L26.9831 42.876L26.0256 42.5058C26.3204 41.8488 26.5801 41.2352 26.8045 40.6649C27.0372 40.08 27.281 39.4672 27.4931 38.8168C27.9123 38.9441 28.4647 39.1423 29.1491 39.4146C29.6788 39.5885 30.17 39.863 30.5957 40.223ZM28.4614 42.2883C28.5702 42.3475 28.6917 42.3797 28.8155 42.3822C28.9394 42.3846 29.062 42.3573 29.1731 42.3025C29.3556 42.1515 29.4972 41.9569 29.5847 41.7368C29.6723 41.5167 29.703 41.2781 29.6741 41.0429C29.6334 40.9251 29.5644 40.819 29.4732 40.734C29.382 40.649 29.2713 40.5876 29.1508 40.5552C28.9038 40.4537 28.6517 40.3653 28.3953 40.2905L27.7182 41.9927L28.4614 42.2883Z" fill="#21262B"/>
<path d="M32.1702 43.8748C33.4646 44.3897 34.4103 44.7444 35.0072 44.9388C34.9281 45.0724 34.8566 45.2103 34.7928 45.3518C34.7337 45.5003 34.6598 45.686 34.5699 45.912L30.5938 44.3303C30.8845 43.6836 31.1442 43.07 31.3727 42.4894C31.6017 41.9137 31.8467 41.2979 32.0712 40.6165L36.0411 42.1957L35.6717 43.1241L32.9064 42.0241L32.7119 42.5131L33.4396 42.8026C33.9815 43.0181 34.5389 43.2399 35.1303 43.4393L34.7807 44.3182C34.2102 44.0662 33.6565 43.8352 33.1146 43.6196C32.8049 43.4964 32.551 43.3954 32.3869 43.3301L32.1702 43.8748Z" fill="#21262B"/>
<path d="M37.9416 47.2462C37.9541 47.0253 37.9634 46.7494 37.972 46.4123L36.3431 45.7644L35.7956 46.3925L34.5136 45.8825L37.4123 42.7341L39.2919 43.4818L39.2577 47.7697L37.9416 47.2462ZM38.0059 45.4795C38.0187 45.0687 38.0302 44.6611 38.0336 44.2467L38.0335 43.8774C37.7896 44.1388 37.4303 44.5372 36.9481 45.073L38.0059 45.4795Z" fill="#21262B"/>
<path d="M42.3446 44.3734C42.2535 44.6024 42.0799 45.0388 41.7978 45.6758C41.7572 45.7779 41.7276 45.8522 41.7079 45.9017C41.449 46.3543 41.2394 46.7549 41.078 47.1065L40.1274 46.7283C40.2547 46.3632 40.3775 45.9281 40.5002 45.4213L40.5901 45.1954C40.7796 44.665 40.9439 44.2249 41.0842 43.8721L42.3446 44.3734ZM40.6731 48.4402L39.4901 47.9696L39.8521 47.0597L41.035 47.5303L40.6731 48.4402Z" fill="#21262B"/>
<path d="M43.9239 45.0016C43.8328 45.2306 43.6592 45.667 43.3771 46.3039C43.3365 46.4061 43.3069 46.4803 43.2872 46.5299C43.0283 46.9825 42.8218 47.3843 42.6604 47.7359L41.716 47.3602C41.8588 47.0012 41.9661 46.56 42.0888 46.0531L42.1787 45.8272C42.3682 45.2968 42.5294 44.8555 42.6697 44.5027L43.9239 45.0016ZM42.2524 49.0683L41.0663 48.5965L41.4283 47.6866L42.6143 48.1584L42.2524 49.0683Z" fill="#21262B"/>
<path d="M41.176 32.5061C41.1383 32.4918 41.1045 32.4686 41.0777 32.4385C41.0509 32.4084 41.0317 32.3722 41.0219 32.3331C41.0121 32.2939 41.0119 32.253 41.0214 32.2138C41.0308 32.1746 41.0496 32.1383 41.0762 32.1079C41.992 30.9237 44.3048 27.535 44.0115 26.0813C43.9939 25.9774 43.9533 25.8788 43.8926 25.7926C43.8319 25.7065 43.7527 25.635 43.6608 25.5834C43.5025 25.5068 43.3286 25.4681 43.1528 25.4703C42.977 25.4726 42.8041 25.5157 42.6479 25.5962C42.761 26.0581 42.7118 26.5448 42.5084 26.9746C42.1819 27.6692 41.5701 28.0352 41.0493 27.8567C40.9424 27.8218 40.848 27.7564 40.7778 27.6686C40.7076 27.5808 40.6646 27.4744 40.654 27.3625C40.5754 26.7397 41.2821 25.8559 41.9834 25.3821L42.0186 25.3567C41.8261 25.0493 41.5457 24.8068 41.2137 24.6607C40.8817 24.5146 40.5135 24.4715 40.1568 24.5372C40.1638 24.7528 40.1363 24.9682 40.0752 25.175C39.8651 25.9195 39.6968 26.505 39.2517 26.7043C39.1056 26.758 38.9494 26.7783 38.7944 26.7638C38.6394 26.7493 38.4897 26.7003 38.3561 26.6204C38.2414 26.5701 38.1432 26.4886 38.0727 26.3851C38.0022 26.2816 37.9623 26.1604 37.9576 26.0353C37.9311 25.5158 38.4068 24.8519 39.1151 24.4239C39.2683 24.3302 39.4297 24.2504 39.5972 24.1855C39.5491 24.0031 39.4488 23.8386 39.3085 23.7122C39.0171 23.4709 38.5883 23.4759 38.0598 23.7317C36.8908 24.299 36.0171 28.4609 35.7778 30.0182C35.7676 30.0845 35.7314 30.1439 35.6773 30.1836C35.6232 30.2232 35.5556 30.2398 35.4893 30.2296C35.4566 30.2246 35.4254 30.2131 35.3972 30.1959C35.369 30.1787 35.3445 30.1561 35.3251 30.1294C35.3057 30.1027 35.2918 30.0724 35.2842 30.0403C35.2766 30.0082 35.2754 29.9749 35.2807 29.9423C35.3717 29.344 36.2213 24.0614 37.8385 23.278C38.7979 22.8137 39.3753 23.1115 39.6332 23.3288C39.8505 23.5183 40.0084 23.7665 40.0877 24.0437C40.5474 23.9615 41.0213 24.0207 41.4467 24.2136C41.872 24.4065 42.2289 24.724 42.4699 25.124C42.6959 25.0135 42.9447 24.9578 43.1963 24.9614C43.4479 24.9649 43.6951 25.0276 43.918 25.1444C44.0748 25.2307 44.21 25.3514 44.3135 25.4975C44.4169 25.6435 44.4858 25.8111 44.515 25.9877C44.9115 27.9664 41.6216 32.2425 41.4815 32.4233C41.4472 32.4693 41.3985 32.5024 41.3431 32.5174C41.2877 32.5324 41.2289 32.5284 41.176 32.5061ZM42.1886 25.858C41.5627 26.3045 41.1149 26.9974 41.1514 27.3023C41.1505 27.3213 41.1566 27.3399 41.1687 27.3547C41.1807 27.3694 41.1978 27.3791 41.2166 27.3819C41.4767 27.4854 41.8431 27.2046 42.0507 26.7638C42.1832 26.4816 42.2311 26.167 42.1886 25.858ZM39.6491 24.7044C39.5521 24.7464 39.4583 24.7954 39.3684 24.8509C38.7825 25.2057 38.4383 25.7283 38.4532 26.0067C38.4522 26.0433 38.4629 26.0794 38.4838 26.1096C38.5047 26.1398 38.5346 26.1626 38.5692 26.1747C38.638 26.2196 38.7152 26.2499 38.7962 26.2636C38.8771 26.2773 38.96 26.2741 39.0397 26.2543C39.2715 26.1494 39.4264 25.6159 39.591 25.0398C39.6202 24.9299 39.6397 24.8177 39.6491 24.7044Z" fill="#21262B"/>
<path d="M45.3056 10.8633L46.6372 11.393L43.8695 17.7193L43.1139 17.4187L45.3056 10.8633Z" fill="#DDF247"/>
<path d="M37.6504 9.1623L39.074 9.31638L38.1044 16.1536L37.2955 16.0684L37.6504 9.1623Z" fill="#DDF247"/>
<path d="M29.123 9.71687L30.5284 9.44788L31.5935 16.2736L30.7943 16.4253L29.123 9.71687Z" fill="#DDF247"/>
<path d="M21.7666 12.3861L23.0524 11.7505L25.9011 18.0419L25.1722 18.4044L21.7666 12.3861Z" fill="#DDF247"/>
<path d="M53.369 15.415L52.2286 14.5491L48.2398 20.1854L48.8863 20.6791L53.369 15.415Z" fill="#DDF247"/>
<path d="M59.1886 21.6767L58.3489 20.5147L52.8862 24.7437L53.3628 25.4029L59.1886 21.6767Z" fill="#DDF247"/>
<path d="M62.7014 28.6696L62.2036 27.3245L55.8087 29.9388L56.0925 30.7041L62.7014 28.6696Z" fill="#DDF247"/>
</g>
<defs>
<clipPath id="clip0_0_8503">
<rect width="51" height="64" fill="white" transform="translate(23.6558) rotate(21.6923)"/>
</clipPath>
</defs>
</svg>
