<svg width="112" height="80" viewBox="0 0 112 80" fill="none" xmlns="http://www.w3.org/2000/svg">
<g clip-path="url(#clip0_0_9338)">
<path d="M107.749 36.3958C107.385 36.3084 107.133 36.2312 106.963 36.1746C106.912 36.0254 106.85 35.8093 106.768 35.5058C106.5 34.4141 105.92 33.4244 105.098 32.6584C104.276 31.8924 103.249 31.3835 102.142 31.1942C101.085 31.0315 100.003 31.1724 99.0222 31.6007C97.7215 28.2593 95.1612 25.5634 91.8934 24.0941C90.2629 23.3717 88.5007 22.9951 86.7176 22.9879H86.4864C86.2965 22.9923 86.1077 22.9577 85.9316 22.8863C85.7556 22.8149 85.596 22.7082 85.4626 22.5728C85.3293 22.4374 85.225 22.2761 85.1562 22.0989C85.0874 21.9216 85.0556 21.7322 85.0627 21.5422C85.0935 20.544 85.114 19.5562 85.1038 18.6044C85.0369 9.63143 82.3746 5.08323 77.1937 5.08323H76.983C75.8754 5.07196 74.7801 5.31681 73.7825 5.79871C72.785 6.28062 71.912 6.98655 71.2316 7.86154C67.752 7.86154 64.8326 10.3826 63.6351 14.0356C62.572 14.2305 61.572 14.6807 60.7209 15.3475C60.5236 15.4902 60.299 15.5904 60.0611 15.6419C59.8233 15.6933 59.5774 15.6949 59.3388 15.6466C59.1003 15.5983 58.8744 15.501 58.6753 15.361C58.4762 15.221 58.3081 15.0412 58.1818 14.833C52.7954 6.42093 42.9682 0.781982 31.7225 0.781982C14.7613 0.781982 0.940582 13.6445 0.940582 29.4449C0.940582 45.2453 14.7613 58.1079 31.7225 58.1079C35.8743 58.1147 39.9894 57.329 43.8471 55.7926C43.906 55.7683 43.9712 55.7638 44.0328 55.7799C44.0945 55.796 44.1492 55.8318 44.1887 55.8818C44.2282 55.9318 44.2503 55.9933 44.2518 56.0571C44.2532 56.1208 44.2338 56.1833 44.1966 56.2351L43.806 56.7753C43.5857 57.0797 43.4776 57.4512 43.5001 57.8264C43.5226 58.2016 43.6743 58.5574 43.9293 58.8333L62.859 79.2642C63.067 79.4897 63.3187 79.6702 63.5989 79.7948C63.8791 79.9194 64.1817 79.9855 64.4882 79.9888C64.7948 79.9922 65.0988 79.9329 65.3816 79.8145C65.6644 79.696 65.9201 79.5211 66.133 79.3002C67.7263 77.6435 70.178 75.1122 72.0951 73.1262C72.5715 72.6265 73.1561 72.2428 73.8039 72.0046C74.4517 71.7665 75.1454 71.6802 75.8317 71.7525C76.8298 71.8679 77.8337 71.9263 78.8384 71.9274C90.5005 71.9274 95.3935 63.4793 97.0023 60.7061C97.1616 60.4231 97.3466 60.0835 97.5419 59.6771C98.8392 60.2748 100.319 60.3402 101.664 59.8594C103.009 59.3785 104.112 58.3897 104.738 57.1046C105.482 56.746 106.134 56.223 106.647 55.5751C107.16 54.9271 107.519 54.171 107.697 53.3639C107.875 52.5569 107.868 51.7198 107.676 50.9159C107.484 50.112 107.112 49.3623 106.588 48.7233C106.634 48.5844 106.675 48.4455 106.716 48.2963C106.804 47.931 106.881 47.684 106.937 47.5142C107.081 47.4628 107.292 47.4011 107.58 47.3239C108.739 47.0402 109.783 46.4042 110.567 45.5033C111.351 44.6024 111.837 43.4806 111.959 42.292C112.064 40.9702 111.7 39.6535 110.93 38.5746C110.159 37.4958 109.033 36.7241 107.749 36.3958Z" fill="#F29B9B"/>
<path d="M106.012 46.7323C106.156 46.6808 106.362 46.6191 106.655 46.547C107.814 46.2621 108.857 45.625 109.64 44.7231C110.423 43.8213 110.908 42.6989 111.029 41.5101C111.14 40.1816 110.775 38.8569 109.998 37.7736C109.222 36.6903 108.086 35.9191 106.793 35.5984C106.429 35.5058 106.182 35.4286 106.012 35.372C105.961 35.2228 105.894 35.0068 105.817 34.7083C105.551 33.6157 104.972 32.625 104.149 31.8587C103.327 31.0924 102.299 30.5842 101.191 30.3968C100.134 30.2325 99.0524 30.3716 98.0713 30.7981C96.7704 27.4547 94.2053 24.7594 90.9322 23.2967C89.3008 22.5717 87.5363 22.195 85.7514 22.1905H85.5201C85.3299 22.1948 85.1409 22.1602 84.9646 22.0889C84.7883 22.0176 84.6284 21.911 84.4946 21.7756C84.3609 21.6403 84.2561 21.4791 84.1868 21.3018C84.1174 21.1246 84.0849 20.935 84.0912 20.7447C84.1272 19.7466 84.1426 18.7588 84.1375 17.8069C84.0707 8.83915 81.4083 4.29095 76.2274 4.29095H76.0167C74.9061 4.28593 73.8094 4.53832 72.8125 5.02836C71.8156 5.51839 70.9456 6.23278 70.2705 7.11557C66.7909 7.11557 63.8715 9.64178 62.6688 13.2896C61.6121 13.4701 60.6144 13.9024 59.7597 14.5501C59.5629 14.6927 59.3386 14.7928 59.1012 14.8442C58.8637 14.8956 58.6182 14.8972 58.3801 14.8489C58.142 14.8005 57.9165 14.7033 57.7178 14.5633C57.5192 14.4234 57.3516 14.2437 57.2258 14.0356C51.8548 5.63895 42.0019 0 30.7767 0C13.8156 0 0 12.8626 0 28.6629C0 44.4633 13.8053 57.331 30.7767 57.331C34.9306 57.3362 39.0473 56.5486 42.9065 55.0106C42.9654 54.9863 43.0306 54.9818 43.0922 54.9979C43.1539 55.014 43.2086 55.0498 43.2481 55.0998C43.2876 55.1498 43.3098 55.2114 43.3112 55.2751C43.3126 55.3389 43.2933 55.4013 43.256 55.4531L42.8603 55.9933C42.6419 56.2985 42.5349 56.6695 42.5574 57.0442C42.5798 57.4189 42.7303 57.7745 42.9836 58.0513L61.9133 78.4822C62.1212 78.7077 62.373 78.8883 62.6532 79.0129C62.9333 79.1375 63.236 79.2035 63.5425 79.2069C63.8491 79.2102 64.1531 79.1509 64.4359 79.0325C64.7187 78.9141 64.9744 78.7391 65.1873 78.5182L71.1545 72.3442C71.631 71.8445 72.2155 71.4608 72.8633 71.2226C73.5111 70.9845 74.2048 70.8982 74.8911 70.9705C75.8892 71.0859 76.8931 71.1443 77.8978 71.1454C89.5599 71.1454 94.4529 62.7024 96.0565 59.9241C96.221 59.6463 96.406 59.3016 96.5962 58.8951C97.8937 59.4914 99.3727 59.5561 100.717 59.0755C102.062 58.5948 103.165 57.6068 103.792 56.3226C104.535 55.9639 105.187 55.4411 105.699 54.7935C106.211 54.146 106.57 53.3905 106.748 52.5841C106.926 51.7777 106.919 50.9414 106.728 50.1381C106.536 49.3347 106.165 48.5854 105.642 47.9465C105.688 47.8024 105.73 47.6635 105.765 47.5195C105.879 47.1747 105.956 46.9226 106.012 46.7323Z" fill="white"/>
<path d="M48.9199 56.6725C52.5405 51.4851 55.5436 45.8924 57.8682 40.0077C62.0931 28.9408 60.5357 19.0366 63.7069 18.4912C66.3436 18.0385 66.3128 21.7892 66.4567 24.2125C66.4567 24.2125 67.2585 19.6746 67.4024 16.6905C67.6491 11.5455 72.7426 10.2695 72.8351 17.1227C73.3028 10.2695 74.7008 9.66238 76.1914 9.61607C77.6819 9.56977 78.8023 11.7615 78.8486 17.8481C78.8949 23.9347 77.8207 32.1204 77.8207 32.1204C77.8207 32.1204 82.5287 25.4319 88.8197 28.1587C95.1107 30.8856 94.936 40.3113 93.6253 44.6228C93.3067 45.6776 92.8749 46.5831 91.1634 46.5059C89.1846 46.4081 88.3263 44.9007 88.352 42.6163C88.3982 38.6031 87.7455 35.9277 85.4634 35.8043C83.1814 35.6808 79.5219 38.8089 79.5219 46.2744C79.5219 53.7398 81.0638 55.8338 83.4795 56.0191C85.8952 56.2043 87.6478 53.6986 88.5113 50.2669C89.6266 45.8576 92.4689 46.12 93.4763 47.504C94.6019 49.0475 93.281 54.1926 91.4924 57.2796C88.28 62.8311 83.1094 68.1459 71.0876 64.8325C67.6388 68.3774 63.635 72.55 63.635 72.55L48.9199 56.6725Z" fill="#FF7587"/>
<path d="M76.7158 34.3843C74.7833 37.6771 73.5138 41.7622 72.8867 44.1598" stroke="#C74557" stroke-width="1.29" stroke-linecap="round" stroke-linejoin="round"/>
<path d="M72.7477 19.8599C72.4907 24.7322 71.6066 33.453 67.4023 42.2459" stroke="#C74557" stroke-width="1.29" stroke-linecap="round" stroke-linejoin="round"/>
<path d="M66.2255 27.1504C65.6396 32.4446 64.6836 36.0564 62.5249 41.2529" stroke="#C74557" stroke-width="1.29" stroke-linecap="round" stroke-linejoin="round"/>
<path d="M64.375 50.2978L53.4119 39.3852C55.2724 36.1184 56.2519 32.4233 56.2542 28.663C56.2542 15.7644 44.8491 5.30457 30.7765 5.30457C16.7039 5.30457 5.29883 15.7644 5.29883 28.663C5.29883 41.5616 16.709 52.0214 30.7765 52.0214C37.1952 52.0667 43.4147 49.7922 48.2927 45.6158L64.375 50.2978Z" fill="#44A67D"/>
<path d="M105.504 41.3814C102.368 42.1686 101.433 43.1102 100.647 46.2486C100.629 46.3169 100.589 46.3774 100.533 46.4206C100.477 46.4638 100.409 46.4872 100.338 46.4872C100.268 46.4872 100.199 46.4638 100.143 46.4206C100.087 46.3774 100.048 46.3169 100.03 46.2486C99.2434 43.1102 98.3028 42.1686 95.1676 41.3814C95.0993 41.3636 95.0389 41.3237 94.9957 41.2678C94.9526 41.2119 94.9292 41.1433 94.9292 41.0727C94.9292 41.0021 94.9526 40.9335 94.9957 40.8776C95.0389 40.8218 95.0993 40.7818 95.1676 40.764C98.3028 39.9768 99.2434 39.0353 100.03 35.8968C100.048 35.8285 100.087 35.768 100.143 35.7248C100.199 35.6816 100.268 35.6582 100.338 35.6582C100.409 35.6582 100.477 35.6816 100.533 35.7248C100.589 35.768 100.629 35.8285 100.647 35.8968C101.433 39.0353 102.368 39.9768 105.504 40.764C105.572 40.7818 105.632 40.8218 105.675 40.8776C105.719 40.9335 105.742 41.0021 105.742 41.0727C105.742 41.1433 105.719 41.2119 105.675 41.2678C105.632 41.3237 105.572 41.3636 105.504 41.3814Z" fill="#FFB72E"/>
<path d="M86.6609 46.1612C85.1189 46.5522 84.605 47.0255 84.2298 48.5948C84.2209 48.6289 84.2009 48.6592 84.173 48.6808C84.1451 48.7024 84.1108 48.7141 84.0756 48.7141C84.0403 48.7141 84.006 48.7024 83.9781 48.6808C83.9502 48.6592 83.9303 48.6289 83.9214 48.5948C83.5256 47.0255 83.0579 46.5368 81.4903 46.1612C81.4562 46.1523 81.4259 46.1323 81.4044 46.1044C81.3828 46.0764 81.3711 46.0421 81.3711 46.0068C81.3711 45.9715 81.3828 45.9372 81.4044 45.9093C81.4259 45.8813 81.4562 45.8614 81.4903 45.8525C83.0322 45.4563 83.5462 44.9881 83.9214 43.4189C83.9303 43.3847 83.9502 43.3545 83.9781 43.3329C84.006 43.3113 84.0403 43.2996 84.0756 43.2996C84.1108 43.2996 84.1451 43.3113 84.173 43.3329C84.2009 43.3545 84.2209 43.3847 84.2298 43.4189C84.6204 44.9881 85.0932 45.4769 86.6609 45.8525C86.695 45.8614 86.7252 45.8813 86.7468 45.9093C86.7683 45.9372 86.7801 45.9715 86.7801 46.0068C86.7801 46.0421 86.7683 46.0764 86.7468 46.1044C86.7252 46.1323 86.695 46.1523 86.6609 46.1612Z" fill="#FFB72E"/>
<path d="M101.474 51.5789C99.9317 51.9699 99.4177 52.4381 99.0425 54.0073C99.0336 54.0415 99.0137 54.0718 98.9858 54.0933C98.9578 54.1149 98.9236 54.1267 98.8883 54.1267C98.853 54.1267 98.8188 54.1149 98.7909 54.0933C98.763 54.0718 98.743 54.0415 98.7341 54.0073C98.3435 52.4638 97.8758 51.9493 96.3082 51.5789C96.274 51.57 96.2438 51.55 96.2222 51.5221C96.2007 51.4942 96.189 51.4598 96.189 51.4245C96.189 51.3892 96.2007 51.3549 96.2222 51.327C96.2438 51.2991 96.274 51.2791 96.3082 51.2702C97.8758 50.874 98.3641 50.4058 98.7341 48.8366C98.743 48.8024 98.763 48.7722 98.7909 48.7506C98.8188 48.729 98.853 48.7173 98.8883 48.7173C98.9236 48.7173 98.9578 48.729 98.9858 48.7506C99.0137 48.7722 99.0336 48.8024 99.0425 48.8366C99.4383 50.3801 99.906 50.8946 101.474 51.2702C101.508 51.2791 101.538 51.2991 101.56 51.327C101.581 51.3549 101.593 51.3892 101.593 51.4245C101.593 51.4598 101.581 51.4942 101.56 51.5221C101.538 51.55 101.508 51.57 101.474 51.5789Z" fill="#FFB72E"/>
<path d="M14.9461 24.3155H19.7723V28.9975H17.7833L17.5468 26.996C17.3589 27.6608 16.9276 28.2303 16.339 28.591C15.6902 28.9545 14.9541 29.1325 14.2111 29.1055C13.5025 29.1172 12.8034 28.9396 12.1861 28.591C11.5928 28.2483 11.1096 27.7431 10.7932 27.135C10.4425 26.4493 10.2659 25.6877 10.2792 24.9175C10.2484 24.329 10.3404 23.7405 10.5492 23.1895C10.758 22.6386 11.0792 22.1372 11.4922 21.7173C12.3009 20.9386 13.5618 20.5493 15.2751 20.5493C16.1537 20.5278 17.0277 20.6835 17.8449 21.0072C18.5902 21.3287 19.2412 21.8351 19.7364 22.4787L17.7473 23.5077L17.4646 23.6672C17.174 23.3753 16.8232 23.1505 16.4367 23.0087C16.0391 22.8592 15.6175 22.7842 15.1928 22.7874C14.8989 22.7643 14.6034 22.8032 14.3254 22.9015C14.0474 22.9999 13.7931 23.1556 13.579 23.3585C13.2308 23.7415 13.0463 24.2457 13.065 24.7631C13.0532 25.033 13.0978 25.3024 13.1961 25.554C13.2943 25.8056 13.444 26.0339 13.6355 26.2243C14.1208 26.6314 14.7467 26.831 15.3779 26.78C15.7141 26.7794 16.0483 26.7291 16.3698 26.6308C16.6807 26.5363 16.9598 26.3583 17.1768 26.1162H14.9461V24.3155Z" fill="white"/>
<path d="M21.8955 27.9839C21.1128 27.1213 20.6792 25.9978 20.6792 24.8325C20.6792 23.6673 21.1128 22.5438 21.8955 21.6812C22.7075 20.9266 23.9788 20.5493 25.7091 20.5493C27.4395 20.5493 28.7142 20.9266 29.5331 21.6812C29.9488 22.0876 30.2726 22.5785 30.4827 23.1208C30.6928 23.6631 30.7844 24.2441 30.7512 24.8248C30.7858 25.4091 30.6954 25.994 30.4863 26.5405C30.2771 27.087 29.9539 27.5826 29.5382 27.9942C28.733 28.7385 27.4566 29.1106 25.7091 29.1106C23.9616 29.1106 22.6904 28.7351 21.8955 27.9839ZM27.5132 26.322C27.8712 25.9086 28.0683 25.3797 28.0683 24.8325C28.0683 24.2854 27.8712 23.7565 27.5132 23.3431C26.9862 22.9729 26.3452 22.8016 25.704 22.8594C25.0676 22.8017 24.4315 22.9732 23.9102 23.3431C23.5526 23.7557 23.3557 24.2837 23.3557 24.83C23.3557 25.3763 23.5526 25.9042 23.9102 26.3169C24.4274 26.6977 25.0638 26.8803 25.704 26.8314C26.3483 26.8818 26.9896 26.7013 27.5132 26.322Z" fill="white"/>
<path d="M32.8688 27.9839C32.084 27.1224 31.6489 25.9985 31.6489 24.8325C31.6489 23.6666 32.084 22.5427 32.8688 21.6812C33.6757 20.9249 34.9504 20.5493 36.6825 20.5493C38.4146 20.5493 39.6944 20.9249 40.5064 21.6812C41.2855 22.5476 41.7166 23.672 41.7166 24.8377C41.7166 26.0034 41.2855 27.1278 40.5064 27.9942C39.7012 28.7385 38.4249 29.1106 36.6773 29.1106C34.9298 29.1106 33.6603 28.7351 32.8688 27.9839ZM38.4814 26.322C38.8394 25.9086 39.0365 25.3797 39.0365 24.8325C39.0365 24.2854 38.8394 23.7565 38.4814 23.3431C37.9345 23.027 37.314 22.8606 36.6825 22.8606C36.0509 22.8606 35.4305 23.027 34.8836 23.3431C34.5259 23.7557 34.329 24.2837 34.329 24.83C34.329 25.3763 34.5259 25.9042 34.8836 26.3169C35.4305 26.633 36.0509 26.7994 36.6825 26.7994C37.314 26.7994 37.9345 26.633 38.4814 26.3169V26.322Z" fill="white"/>
<path d="M49.5882 21.1769C50.3114 21.4372 50.9219 21.941 51.3151 22.6021C51.6617 23.2938 51.8296 24.0615 51.8034 24.835C51.8226 25.6057 51.6268 26.3665 51.238 27.0319C50.8373 27.6786 50.2467 28.1853 49.547 28.4828C48.6675 28.8509 47.7194 29.0264 46.7665 28.9973H44.7106C44.0167 28.9973 43.3177 28.9973 42.6084 28.9973C42.6701 27.5121 42.7009 26.1281 42.7009 24.8453C42.7009 23.5625 42.6701 22.2093 42.6084 20.7859C43.5027 20.7104 44.702 20.6727 46.2062 20.6727C47.3556 20.6191 48.5043 20.7904 49.5882 21.1769ZM47.08 26.749C47.7858 26.749 48.2535 26.5775 48.4831 26.2345C48.7374 25.8118 48.8592 25.3225 48.8326 24.8299C48.854 24.3405 48.7268 23.8562 48.4677 23.4407C48.2958 23.2483 48.0795 23.1008 47.8376 23.0111C47.5957 22.9215 47.3357 22.8923 47.08 22.9262C46.5342 22.918 45.9885 22.9421 45.4455 22.9982V26.7644L47.08 26.749Z" fill="white"/>
<path d="M25.0409 30.4689V34.4614C25.081 35.0453 25.0054 35.6313 24.8184 36.1858C24.6314 36.7404 24.3367 37.2524 23.9513 37.6925C23.2215 38.4334 22.0702 38.809 20.4974 38.809C19.6469 38.8167 18.801 38.6828 17.9944 38.4128C17.264 38.1685 16.5719 37.8221 15.9385 37.3838C16.0824 36.9156 16.2006 36.4628 16.288 36.0358C16.3849 35.5687 16.4536 35.0963 16.4936 34.6209C17.135 35.1679 17.8604 35.6074 18.642 35.9226C19.241 36.1533 19.8762 36.2752 20.518 36.2828C20.7548 36.3059 20.9939 36.2808 21.2209 36.2092C21.4479 36.1376 21.6581 36.0209 21.8389 35.866C22.1431 35.4524 22.2874 34.9424 22.2449 34.4305V33.5713C22.2449 32.3468 22.2107 31.3178 22.1421 30.4843L25.0409 30.4689Z" fill="white"/>
<path d="M27.1789 37.6821C26.3969 36.8182 25.9639 35.694 25.9639 34.5282C25.9639 33.3624 26.3969 32.2383 27.1789 31.3743C27.9858 30.6232 29.2348 30.2424 30.9925 30.2424C32.7503 30.2424 34.0044 30.6232 34.8165 31.3743C35.5956 32.2407 36.0267 33.3651 36.0267 34.5308C36.0267 35.6965 35.5956 36.8209 34.8165 37.6873C34.0079 38.435 32.7315 38.8089 30.9874 38.8089C29.2433 38.8089 27.9738 38.4333 27.1789 37.6821ZM32.7966 36.0203C32.9917 35.8248 33.1419 35.5892 33.2369 35.3298C33.3319 35.0703 33.3693 34.7933 33.3465 34.518C33.3676 34.2458 33.3294 33.9724 33.2344 33.7165C33.1394 33.4606 32.9901 33.2285 32.7966 33.0362C32.2496 32.7201 31.6292 32.5537 30.9977 32.5537C30.3661 32.5537 29.7457 32.7201 29.1988 33.0362C29.0042 33.2277 28.854 33.4597 28.759 33.7158C28.6639 33.9718 28.6263 34.2457 28.6488 34.518C28.6254 34.7926 28.6626 35.069 28.7576 35.3277C28.8526 35.5864 29.0032 35.8211 29.1988 36.0152C29.7224 36.3842 30.3598 36.5555 30.9977 36.4988C31.6345 36.5522 32.2702 36.3831 32.7966 36.0203Z" fill="white"/>
<path d="M46.1137 36.2519C46.1264 36.7122 46.005 37.1663 45.7642 37.5587C45.4515 37.9696 45.0098 38.2632 44.5101 38.3922C43.6928 38.6217 42.8451 38.7241 41.9968 38.6958H36.9136C36.9753 37.2311 37.0061 35.8591 37.0061 34.5797C37.0061 33.3003 36.9753 31.9283 36.9136 30.4637H39.5708H42.0019C42.7456 30.4421 43.4889 30.52 44.212 30.6953C44.6562 30.7877 45.0574 31.0247 45.353 31.3692C45.5849 31.694 45.7025 32.0868 45.6871 32.4857C45.6896 32.9425 45.5166 33.3827 45.204 33.7154C44.7443 34.1476 44.1757 34.4464 43.5592 34.5797C45.2622 34.6003 46.1137 35.1577 46.1137 36.2519ZM39.5708 32.5526V33.5816H41.7398C42.0701 33.6014 42.4013 33.5596 42.7163 33.4581C42.8043 33.4215 42.8786 33.3581 42.9284 33.2768C42.9782 33.1955 43.0012 33.1005 42.9939 33.0054C42.9939 32.921 42.9655 32.839 42.9133 32.7727C42.8611 32.7065 42.7881 32.6597 42.7061 32.6401C42.3918 32.5526 42.0656 32.5161 41.7398 32.532L39.5708 32.5526ZM41.7398 36.6223C42.0405 36.6288 42.3412 36.6116 42.6392 36.5709C42.8029 36.5569 42.9587 36.4942 43.0864 36.3908C43.1314 36.3437 43.1665 36.288 43.1894 36.227C43.2124 36.1659 43.2228 36.1009 43.22 36.0358C43.2199 35.9396 43.1881 35.8461 43.1296 35.7699C43.071 35.6936 42.989 35.6388 42.8962 35.6139C42.5211 35.5042 42.13 35.459 41.7398 35.4801H39.5862V36.6223H41.7398Z" fill="white"/>
</g>
<defs>
<clipPath id="clip0_0_9338">
<rect width="112" height="80" fill="white"/>
</clipPath>
</defs>
</svg>
