<svg width="187" height="186" viewBox="0 0 187 186" fill="none" xmlns="http://www.w3.org/2000/svg">
<path d="M163.759 110.841C164.885 109.717 165.785 108.706 166.404 107.413C167.08 105.951 167.474 104.77 167.7 102.971C167.757 102.24 167.813 101.509 167.701 100.722C167.59 98.8098 167.31 96.8416 166.917 95.2106C166.749 94.0297 166.412 92.7924 166.132 91.3865C165.627 88.9682 164.954 86.4936 164.112 83.9627L164 83.7378L163.887 83.5128C164 83.1754 164.056 83.0068 164.169 82.6695C164.225 82.5008 164.338 82.1635 164.563 82.0511C164.619 81.8825 164.788 81.9388 164.844 81.7701C165.632 81.0958 166.082 80.3088 166.701 79.5781C167.714 78.2291 167.827 76.7672 167.941 75.3052L168.053 74.9679C168.166 74.0683 167.885 73.2246 167.773 72.4373L167.661 72.2123C167.38 71.3687 166.987 70.3001 166.538 69.4001C165.864 68.0502 164.965 66.8126 164.122 65.4063C163.898 64.9564 163.504 64.45 163.223 64.1687C161.088 61.0186 159.403 57.6437 157.606 54.0439C156.707 52.244 155.921 50.6691 155.078 49.2628C154.629 48.3628 154.011 47.4066 153.561 46.5066C153.337 46.0566 153.056 45.7753 152.775 45.494C152.269 44.7627 151.763 44.0314 151.201 43.4688L151.089 43.2438C150.527 42.6811 149.965 42.1185 149.347 41.7246C149.066 41.4432 148.897 41.3869 148.616 41.1056C148.335 40.8243 147.829 40.6553 147.492 40.5427L146.986 40.3737C146.311 40.1484 145.693 39.7544 145.018 39.5291C144.512 39.3601 144.175 39.2475 143.669 39.0785C141.926 38.6839 140.183 38.2893 138.327 38.232C136.865 38.1187 135.291 38.3428 133.885 38.6232C133.491 38.6792 133.097 38.7352 132.872 38.8475C132.085 38.9595 131.466 39.1279 130.736 39.0712C129.78 39.1269 128.992 39.239 128.43 39.2386C127.755 39.0133 127.249 38.8444 126.406 38.5627C126.069 38.4501 125.563 38.2811 125.282 37.9998L125.113 37.9435C124.157 37.4368 122.977 37.0426 121.965 36.7046C120.447 36.1977 118.422 36.0841 116.061 36.4201C112.686 36.9806 109.93 39.0596 107.342 41.1949L107.286 41.3636C103.573 44.0606 99.6354 46.3077 95.8666 48.6111C92.0978 50.9145 88.1043 52.7679 83.8295 54.9023C78.9361 57.205 74.2673 59.9577 69.6549 62.5418C66.1674 64.5642 62.5112 66.5302 58.9114 68.3276C55.5366 70.0127 52.3867 71.5854 48.3932 73.4388C46.3683 74.4499 44.5684 75.3486 43.1058 76.3599C41.1369 77.7646 39.1117 79.3379 37.3115 80.799C36.5239 81.4733 35.5113 82.26 34.7236 82.9343C32.0795 85.2383 30.0539 87.374 28.5344 89.6786C27.1275 91.6459 26.0013 94.4569 25.2121 97.9428C24.8738 99.5171 24.5919 100.923 23.9726 102.216C23.7473 102.89 23.3533 103.509 23.0717 104.352C22.6211 105.701 22.4515 107.332 22.4505 109.019C22.3372 110.481 22.505 112.224 22.7853 113.63L22.9537 114.249C23.0097 114.642 23.0094 115.205 23.2341 115.655C24.0191 119.479 24.8609 122.572 26.2089 125.272C27.1076 127.072 28.1187 129.097 29.186 130.953C30.0287 132.359 31.0964 133.653 32.2201 135.341C32.6134 135.847 32.8381 136.297 33.2877 136.635C34.3554 137.929 35.7044 138.941 36.7161 139.842C39.5827 141.924 42.8433 143.388 46.1603 144.683C47.2849 144.684 48.4092 145.247 49.7022 145.866C52.0071 146.823 54.2558 147.949 56.1671 148.962C58.0784 149.975 59.8774 150.764 61.9013 151.44C63.5879 152.003 65.3872 152.229 67.0742 152.23C68.9298 152.287 71.0667 152.063 72.6976 151.671C77.7028 150.717 82.4836 148.752 87.0957 146.73C88.6143 146.113 89.9642 145.439 91.4828 144.821C93.9014 143.754 96.2636 142.855 98.6822 141.788C100.707 140.777 102.676 139.935 104.476 139.036C106.275 138.138 107.907 137.183 109.538 136.228L110.269 135.722L110.719 135.497C113.982 133.587 117.301 131.508 120.788 130.048C122.7 129.375 124.668 129.095 126.524 128.59C128.549 128.141 130.63 127.523 132.655 126.512C134.173 125.895 135.579 125.052 136.929 124.378C138.279 123.704 139.461 122.974 140.811 122.3C141.429 122.131 142.104 121.794 142.723 121.626C143.791 121.233 144.804 121.009 145.872 120.616C148.685 119.492 150.878 118.538 153.128 117.414C154.028 116.965 154.816 116.291 155.716 115.841C156.615 115.392 157.347 114.886 158.247 114.437C159.878 113.482 161.959 112.302 163.759 110.841Z" fill="#FA5429"/>
<path d="M54.1657 108.924C54.6723 107.969 55.0103 106.957 55.1795 105.888C55.4049 105.214 55.5178 104.314 55.4058 103.527C55.2938 102.739 55.1818 101.952 55.0697 101.165C54.9017 99.9838 53.722 97.9026 52.879 97.0586C51.755 95.9334 50.406 94.9205 48.8317 94.5822C47.8197 94.2442 46.6951 94.2436 45.7391 94.2993C45.5705 94.243 45.5705 94.243 45.3455 94.3553C43.6585 94.3544 42.3649 94.8597 40.79 95.6461C38.3715 96.7131 36.9642 99.2428 36.1757 101.604C36.063 101.941 35.894 102.447 35.9501 102.841C35.3868 104.528 35.3859 106.215 35.7786 107.846C37.069 112.963 42.7469 115.609 47.6961 114.263C48.3147 114.094 49.1583 113.814 49.6646 113.42C50.5646 112.971 51.2959 112.465 52.0272 111.96C52.7025 111.06 53.6027 110.049 54.1657 108.924Z" fill="#EB004A"/>
<path d="M151.097 131.359C151.941 129.953 152.561 127.536 151.831 125.792C150.652 122.586 149.473 119.38 148.012 116.455C146.833 113.812 145.654 111.168 144.474 108.525C142.565 104.138 140.487 99.6943 138.352 95.4195C136.218 91.1447 133.859 86.9822 131.668 82.8761C129.477 78.7699 127.455 74.7201 125.321 70.4453C119.31 58.6896 112.963 47.3835 106.952 35.6277C105.155 32.0279 100.32 30.7881 96.8323 32.8105C93.1762 34.7765 92.049 39.2744 94.0151 42.9305C98.2279 51.0865 102.609 59.2988 106.878 67.286C111.485 75.9483 115.809 84.8915 120.641 93.4414C122.157 96.1976 123.674 98.9538 125.134 101.879C126.595 104.804 127.999 107.897 129.459 110.822C132.155 116.784 134.907 122.577 137.378 128.652C137.49 128.877 137.602 129.102 137.715 129.327C137.883 129.945 138.22 130.62 138.445 131.07C139.175 132.252 140.018 133.096 141.255 133.883C142.997 134.84 144.965 135.123 146.821 134.618C148.059 134.281 149.015 133.663 149.971 133.045C150.14 132.539 150.703 131.977 151.097 131.359ZM137.546 129.833C137.434 129.608 137.49 129.439 137.321 129.383C137.49 129.439 137.602 129.664 137.546 129.833Z" fill="#F7F7F4"/>
<path d="M167.87 100.779C167.42 99.8787 166.915 99.1474 166.634 98.3037C166.129 97.0101 165.792 95.7729 165.68 94.4232C165.456 92.2863 165.233 90.1494 165.403 87.9564C165.572 87.4505 165.572 86.8881 165.741 86.3822C166.191 85.5952 166.473 84.7518 167.035 84.1898C167.429 83.5715 167.936 83.1782 168.442 82.7848C168.723 82.5038 169.173 82.2792 169.455 81.9982C169.736 81.7172 169.961 81.6048 170.242 81.3238C171.255 80.5372 171.986 79.4692 171.875 78.1195C171.819 76.6013 171.202 75.0827 170.528 73.7327C170.191 73.0578 169.854 72.3828 169.404 71.4828C168.169 69.008 166.764 66.4768 165.472 64.1705C162.832 59.1644 159.911 54.4393 157.046 49.5456C154.911 45.8331 152.72 42.2893 150.585 38.5768C150.136 37.6769 149.63 36.9456 149.181 36.0456C149.068 35.8206 148.9 35.7643 148.956 35.5956C148.675 35.3143 148.563 35.0893 148.338 34.6393C148.057 34.358 147.664 33.8517 147.326 33.7391C146.989 33.6264 146.652 33.5138 146.314 33.4011C145.808 33.2321 145.246 33.2318 144.684 33.2315C144.121 33.2312 143.334 33.3432 142.716 33.5116C141.872 33.7923 141.028 34.0729 140.297 34.5786C139.847 34.8033 139.228 34.9716 138.722 35.365C138.047 35.702 137.147 36.1513 136.472 36.4883C135.347 37.05 134.11 37.3867 132.929 37.5548C131.973 37.6105 131.017 37.6662 129.892 37.6655C129.555 37.5529 128.993 37.5525 128.655 37.4399C128.149 37.2709 127.812 37.1583 127.306 36.9893C126.182 36.4263 125.226 35.9197 124.327 35.2444C123.428 34.5691 122.753 33.7815 121.854 33.1063C121.292 32.5436 120.674 32.1497 119.83 31.868C118.987 31.5864 118.2 31.6984 117.356 31.9791C116.512 32.2598 115.725 32.9341 114.825 33.3835C112.631 34.9005 110.1 36.3049 107.568 37.7092C105.037 39.1136 102.45 40.6866 99.9748 41.9223C97.4999 43.1581 95.1937 44.4501 92.8875 45.7421C90.3563 47.1465 87.9937 48.6072 85.5189 49.8429C83.044 51.0786 80.5691 52.3143 78.0379 53.7187C75.563 54.9544 73.2005 56.4151 70.8379 57.8758C68.4754 59.3365 66.0005 60.5722 63.6943 61.8642C61.1631 63.2686 58.4632 64.6166 55.7633 65.9647C53.2884 67.2004 50.7572 68.6048 48.2824 69.8405C45.8075 71.0762 43.2203 72.0869 40.6891 73.4913C38.2142 74.727 35.9643 75.8503 33.4894 77.0861C31.4645 78.0971 29.6082 79.1644 27.752 80.2318C27.0207 80.7375 26.3457 81.0745 25.4458 81.5238C24.5458 81.9732 23.8709 82.3102 22.9709 82.7595C22.071 83.2089 21.1147 83.8269 20.2147 84.2763C19.9334 84.5573 19.5397 84.6133 19.2584 84.8943C19.0334 85.0066 19.0334 85.0066 18.8084 85.1189C18.3021 85.5123 17.6272 85.8493 17.4019 86.5239C17.2892 86.8613 17.2329 87.0299 17.1202 87.3673C17.0076 87.7046 17.0636 88.0982 16.951 88.4356C17.007 88.8292 17.0066 89.3915 17.2313 89.8415C17.456 90.2915 17.4557 90.8538 17.6804 91.3038C18.0734 92.3724 18.4664 93.441 18.6908 94.4533C18.7468 94.847 18.6341 95.1843 18.6901 95.5779C18.4645 96.8149 18.1266 97.8269 17.7323 99.0075C17.4506 99.8509 17.0003 100.638 16.5501 101.425C15.9311 102.155 15.3121 102.886 14.5245 103.56C14.2995 103.673 14.0182 103.954 13.7932 104.066C13.7932 104.066 13.5682 104.179 13.5119 104.347C13.2869 104.46 13.2306 104.628 13.0056 104.741C12.7243 105.022 12.668 105.19 12.5553 105.527C12.274 105.808 12.161 106.708 12.217 107.102C12.2167 107.664 12.3851 108.283 12.5534 108.901C12.8341 109.745 13.1711 110.42 13.5081 111.095C13.8451 111.77 14.1822 112.445 14.5192 113.12C15.7549 115.595 17.2156 117.957 18.5076 120.264C21.2603 124.932 24.1817 129.657 26.9345 134.326C27.7771 135.732 28.6198 137.139 29.3502 138.32C30.1929 139.726 31.0355 141.132 32.0469 142.595C33.7886 145.239 35.3616 147.826 36.9347 150.414C37.609 151.202 39.3519 151.596 40.5332 150.866C41.7145 150.135 42.2778 148.449 41.3787 147.211C40.0304 145.074 38.7383 142.767 37.39 140.63C35.9293 138.267 34.4123 136.073 32.9516 133.711C30.1988 129.042 27.2775 124.317 24.5247 119.648C23.2327 117.342 21.8843 115.205 20.5923 112.898C19.5249 111.042 18.4576 109.186 17.5589 107.386C17.7839 107.274 17.8402 107.105 18.0652 106.993C18.7965 106.487 19.3591 105.925 19.8094 105.138C20.4284 104.407 21.0473 103.677 21.4976 102.89C22.0042 101.934 22.4545 101.147 22.7925 100.135C23.0741 99.2917 23.3557 98.4484 23.6937 97.4364C23.8063 97.0991 23.9753 96.5931 23.9193 96.1994C24.1449 94.9625 24.1456 93.8378 23.7525 92.7692C23.4722 91.3633 22.9668 90.0697 22.4615 88.776C22.9114 88.5514 23.3614 88.3267 23.8114 88.102C24.9363 87.5403 25.8926 86.9223 27.0176 86.3606C29.0425 85.3496 30.955 84.1136 32.8113 83.0462C35.1175 81.7542 37.5361 80.6871 39.8423 79.3951C42.3172 78.1594 44.8484 76.755 47.4919 75.5757C52.6103 73.1606 57.6164 70.5205 62.6225 67.8804C65.0974 66.6447 67.4036 65.3527 69.8785 64.1169C72.6907 62.9939 75.0532 61.5332 77.4158 60.0725C79.947 58.6681 82.4782 57.2638 84.9531 56.028C87.428 54.7923 89.9028 53.5566 92.2654 52.0959C94.7966 50.6916 97.1028 49.3995 99.634 47.9952C102.109 46.7595 104.584 45.5237 106.89 44.2317C109.028 42.8834 111.277 41.76 113.415 40.4116C114.484 40.0186 115.44 39.4006 116.396 38.7826C116.846 38.5579 117.352 38.1646 117.802 37.9399C118.084 37.6589 118.309 37.5466 118.59 37.2656C119.04 37.6032 119.321 37.8845 119.714 38.3908C120.613 39.0661 121.513 39.7414 122.412 40.4167C124.548 41.8799 127.247 42.7811 129.833 42.895C130.733 43.008 131.689 42.9523 132.645 42.8966C134.219 42.6726 135.625 42.3922 137.144 41.7745C139.056 41.1008 140.912 40.0334 142.712 39.1347C143.162 38.9101 143.781 38.7417 144.4 38.5733C145.018 39.5296 145.467 40.4296 146.085 41.3859C146.815 42.5671 147.546 43.7484 148.276 44.9297C149.68 47.4609 151.31 49.8798 152.714 52.411C155.579 57.3047 158.444 62.1985 161.141 67.0359C161.927 68.6108 162.882 70.2421 163.668 71.817C164.455 73.3919 165.297 74.7982 166.084 76.3731C166.196 76.5981 166.309 76.8231 166.421 77.0481C165.408 77.8348 164.227 78.5651 163.327 79.5768C161.864 81.1504 160.738 83.3991 160.231 85.4794C159.836 86.66 159.892 88.1783 159.891 89.3029C159.834 90.0339 159.947 90.8212 160.059 91.6085C160.283 93.1831 160.45 94.9264 160.674 96.501C161.179 98.9192 162.134 101.113 163.313 103.194C163.987 104.544 165.787 104.77 166.968 104.04C167.193 103.927 167.249 103.759 167.418 103.815C168.318 103.366 168.431 101.904 167.87 100.779ZM165.568 94.1982C165.568 94.1982 165.624 94.0296 165.455 93.9733C165.455 93.9733 165.624 94.0296 165.568 94.1982ZM119.434 36.9849C119.434 36.9849 119.265 36.9286 119.209 37.0972C119.265 36.9286 119.265 36.9285 119.434 36.9849ZM21.8425 89.5067C21.8425 89.5067 21.8988 89.338 21.8425 89.5067C21.8988 89.338 21.8988 89.338 21.8425 89.5067C21.8988 89.338 21.8425 89.5067 21.8425 89.5067Z" fill="#303030"/>
<path d="M66.4557 153.523C65.276 151.442 63.815 149.641 61.904 148.066C59.768 146.603 57.3507 145.42 54.7644 144.744C52.3468 144.124 49.8729 143.673 47.23 143.728C45.543 143.727 44.0244 144.344 42.3935 144.737C41.0999 145.242 39.8063 145.748 38.5127 146.253C37.8377 146.59 37.1627 146.927 36.9374 147.602C36.5435 148.22 36.4868 148.951 36.6552 149.57C36.8235 150.188 37.3292 150.92 38.0038 151.145C38.6222 151.539 39.3531 151.596 39.9718 151.427C41.0967 150.866 42.334 150.529 43.5713 150.192C44.6399 149.799 45.7085 149.406 46.8895 149.238C47.8455 149.182 48.8014 149.127 49.7011 149.24C51.5004 149.466 53.0746 149.804 54.7613 150.367C55.8856 150.93 57.1786 151.549 58.3029 152.112C59.0336 152.731 59.7642 153.35 60.4386 154.138C60.9442 154.869 61.4499 155.6 61.7869 156.275C62.6296 157.682 64.3726 158.076 65.5538 157.346C65.7788 157.234 65.8351 157.065 66.0038 157.121C66.9041 156.11 67.186 154.704 66.4557 153.523Z" fill="#303030"/>
<path d="M166.239 102.296C165.565 100.946 163.879 100.382 162.697 101.113C157.579 104.09 152.404 106.674 147.285 109.651C142.166 112.629 137.16 115.269 131.929 118.021C126.867 120.83 121.861 123.47 116.686 126.054C111.511 128.637 106.336 131.221 100.993 133.749C95.8746 136.164 90.8125 138.41 85.694 140.825C83.0505 142.005 80.5193 143.409 77.8757 144.588C75.4009 145.824 72.9823 146.891 70.6198 148.352C68.5385 149.532 66.6823 150.599 64.6011 151.779C63.2511 152.453 62.7442 153.971 63.4182 155.321C64.0922 156.67 65.7789 157.234 66.9601 156.503C69.0414 155.324 71.1226 154.144 73.0352 152.908C75.3414 151.616 77.7599 150.549 80.0662 149.257C85.2409 146.673 90.5843 144.146 95.7028 141.731C98.1213 140.664 100.596 139.428 103.183 138.417C105.827 137.238 108.358 135.833 111.002 134.654C116.176 132.07 121.351 129.486 126.582 126.734C131.588 124.094 136.651 121.285 141.488 118.589C144.019 117.184 146.551 115.78 149.138 114.207C151.501 112.746 153.976 111.511 156.507 110.106C159.038 108.702 161.794 107.185 164.325 105.781C165.281 105.725 165.506 105.613 165.731 105.5C166.575 104.657 166.97 103.477 166.239 102.296Z" fill="#303030"/>
<path d="M109.474 50.5309C109.531 49.7999 109.362 49.1812 109.025 48.5063C107.958 46.65 106.891 44.7938 105.598 43.0499C104.868 41.8686 102.9 41.5864 101.887 42.373C101.381 42.7664 100.987 43.3847 100.762 44.0593C100.705 44.7903 100.874 45.409 101.211 46.0839C102.278 47.9402 103.402 49.6278 104.638 51.5403C105.368 52.7216 107.336 53.0039 108.348 52.2172L108.573 52.1048C109.08 51.7115 109.305 51.0369 109.474 50.5309Z" fill="#303030"/>
<path d="M116.272 61.0501C115.261 59.5875 114.306 57.9562 113.294 56.4936C112.395 55.256 110.765 55.0864 109.583 55.8168C108.346 56.7158 108.176 58.3464 108.906 59.5277C109.918 60.9903 110.873 62.6215 111.884 64.0841C112.783 65.3217 114.414 65.4913 115.595 64.761L115.82 64.6486C116.889 63.6933 117.059 62.0627 116.272 61.0501Z" fill="#303030"/>
<path d="M124.08 76.9667C124.137 76.2357 123.968 75.6171 123.631 74.9421C122.901 73.7608 122.339 72.6359 121.665 71.286C121.328 70.611 120.485 70.3294 119.979 70.1604C119.248 70.1037 118.461 70.2158 117.954 70.6091C117.448 71.0024 117.054 71.6208 116.829 72.2954C116.773 72.4641 116.885 72.6891 116.772 73.0264C116.772 73.5887 116.997 74.0387 117.278 74.32C118.008 75.5013 118.513 76.7949 119.244 77.9762C119.581 78.6511 120.424 78.9328 120.93 79.1017C121.661 79.1584 122.448 79.0464 122.955 78.653L123.18 78.5407C123.517 78.091 123.855 77.6414 124.08 76.9667Z" fill="#303030"/>
<path d="M130.933 92.3782C130.989 92.2095 130.877 91.9846 130.99 91.6472C130.934 91.2536 130.765 90.6349 130.484 90.3536C129.81 89.0037 129.08 87.8224 128.349 86.6411C128.012 85.9662 127.169 85.6845 126.663 85.5156C125.932 85.4589 125.145 85.5709 124.639 85.9643C124.132 86.3576 123.738 86.9759 123.513 87.6506C123.456 88.3816 123.625 89.0002 123.962 89.6752C124.692 90.8565 125.422 92.0377 126.096 93.3877C126.433 94.0626 127.277 94.3443 127.783 94.5132C128.514 94.5699 129.301 94.4579 129.807 94.0645L130.032 93.9522C130.539 93.5588 130.933 92.9405 130.933 92.3782Z" fill="#303030"/>
<path d="M138.179 104.922C137.561 103.403 136.662 102.166 135.988 100.816C135.651 100.141 134.808 99.8593 134.302 99.6904C133.571 99.6337 132.783 99.7457 132.277 100.139C131.771 100.532 131.377 101.151 131.151 101.825C131.095 102.556 131.263 103.175 131.6 103.85C131.937 104.525 132.443 105.256 132.723 106.1C132.836 106.325 132.948 106.55 133.061 106.775C133.398 107.45 133.791 107.956 134.409 108.35C135.084 108.575 135.815 108.632 136.433 108.464C136.658 108.351 137.108 108.127 137.333 108.014C138.177 107.171 138.572 105.991 138.179 104.922Z" fill="#303030"/>
<path d="M142.782 115.834C142.839 115.103 142.671 114.484 142.334 113.809C141.884 112.909 141.21 112.121 140.704 111.39C139.805 110.152 138.231 109.814 136.994 110.713C135.756 111.612 135.418 113.187 136.317 114.424C136.822 115.155 137.497 115.943 137.946 116.843C138.283 117.518 139.126 117.8 139.632 117.969C140.363 118.025 141.151 117.913 141.657 117.52L141.882 117.408C142.388 117.014 142.726 116.565 142.782 115.834Z" fill="#303030"/>
<path d="M123.276 107.445C122.602 106.095 121.872 104.914 121.142 103.732C120.411 102.551 119.344 101.257 118.388 100.188C117.264 99.0631 115.747 97.9938 114.059 98.5552C113.441 98.7235 112.766 99.0605 112.428 99.5102C112.147 99.7912 112.034 100.129 111.753 100.41C111.584 100.916 111.246 101.365 111.133 101.703C110.908 102.377 110.908 102.939 110.851 103.67C110.907 104.064 110.738 104.57 110.794 104.964C110.794 105.526 110.794 106.088 110.85 106.482C110.962 107.269 110.849 108.169 110.736 109.069C110.679 109.237 110.679 109.237 110.623 109.406C109.836 108.956 109.105 108.337 108.375 107.718C107.475 107.042 106.52 106.536 105.451 106.367C104.552 106.254 103.596 106.309 102.865 106.815C102.133 107.321 101.571 107.883 101.177 108.501C100.839 108.951 100.782 109.682 100.557 110.356C100.444 111.256 100.387 111.987 100.331 112.718C100.331 113.28 100.33 113.842 100.33 114.405C100.33 114.967 100.217 115.304 100.217 115.867C99.4296 115.416 98.6426 114.966 97.8556 114.516C97.0686 114.066 96.2253 113.784 95.4383 113.334C94.595 113.052 93.8077 113.164 93.0204 113.276C92.6267 113.332 92.3454 113.613 92.1204 113.725C92.0641 113.894 91.8955 113.838 91.8391 114.006C91.6141 114.119 91.3328 114.4 91.0515 114.681C89.5323 116.423 89.4747 118.841 89.1361 120.978C89.1921 121.371 89.0795 121.709 89.1355 122.102C88.9668 122.046 88.7981 121.99 88.6858 121.765C87.2805 120.92 85.7628 119.851 83.9632 120.187C83.5696 120.243 83.0073 120.243 82.726 120.524C82.501 120.637 82.051 120.861 81.9383 121.199C81.432 121.592 81.0381 122.21 80.7004 122.66C80.3065 123.278 80.0812 123.953 79.8558 124.627C79.6305 125.302 79.5176 126.202 79.4609 126.933C79.4043 127.664 79.2913 128.563 79.2347 129.294C79.066 129.238 78.8974 129.182 78.785 128.957C78.0544 128.338 77.4924 127.775 76.7054 127.325C76.087 126.931 75.4687 126.537 74.7377 126.48C74.0068 126.424 73.3318 126.761 72.9378 127.379C72.3752 127.941 72.1499 128.616 72.0932 129.347C72.0929 129.909 72.3736 130.753 72.9919 131.146C73.7226 131.765 74.2846 132.328 75.0716 132.778C77.0389 134.185 79.4559 135.93 82.0431 134.919C82.4931 134.694 82.8867 134.638 83.2244 134.189C83.5057 133.908 83.787 133.627 83.8997 133.289C84.2373 132.84 84.294 132.109 84.4629 131.603C84.5196 130.872 84.6885 130.366 84.7452 129.635C84.8582 128.735 84.9148 128.004 85.0278 127.105C85.1967 126.599 85.1407 126.205 85.3097 125.699C85.928 126.093 86.434 126.262 87.0524 126.656C87.502 126.993 88.008 127.162 88.4577 127.5C89.076 127.894 89.7506 128.119 90.4253 128.345C90.7626 128.457 91.1563 128.401 91.4936 128.514C92.0559 128.514 92.5059 128.29 93.1809 127.953C93.7995 127.784 94.2498 126.997 94.4188 126.491C94.6441 125.817 94.8131 125.311 94.8697 124.58C94.9263 123.849 94.983 123.118 95.152 122.612C95.2649 121.712 95.2092 120.756 95.3222 119.856C95.4349 119.519 95.3788 119.125 95.5478 118.619C96.1662 119.013 96.9531 119.464 97.5715 119.858C97.8522 120.701 99.0328 121.096 100.045 121.434C100.213 121.49 100.551 121.603 100.776 121.49C101.338 121.491 101.844 121.66 102.463 121.491C103.306 121.21 103.756 120.986 104.319 120.424C105.219 119.412 105.276 118.119 105.502 116.882C105.502 116.32 105.615 115.982 105.615 115.42C105.616 114.295 105.729 113.396 105.729 112.271C106.348 112.665 106.91 113.228 107.528 113.622C108.708 114.578 110.339 115.31 111.913 115.086C113.656 114.918 115.007 113.682 115.57 111.995C116.077 110.477 116.134 108.622 116.247 107.16C116.304 106.991 116.248 106.598 116.304 106.429C117.203 107.666 117.877 109.016 118.72 110.423C119.394 111.773 121.193 111.999 122.374 111.268C122.599 111.156 122.656 110.987 122.824 111.044C123.725 110.032 123.838 108.57 123.276 107.445ZM112.141 109.913C111.972 109.857 111.972 109.857 111.804 109.8C111.804 109.8 111.972 109.857 112.141 109.913ZM114.056 103.616L113.888 103.56C113.888 103.56 113.888 103.56 114.056 103.616ZM104.324 111.427C104.155 111.37 104.155 111.37 103.987 111.314C104.155 111.37 104.324 111.427 104.324 111.427ZM95.1545 118.113C95.0982 118.282 95.0982 118.282 95.1545 118.113C95.0982 118.282 95.0982 118.282 95.1545 118.113C95.0982 118.282 95.0982 118.282 95.1545 118.113ZM85.535 125.024C85.4787 125.193 85.31 125.137 85.2537 125.305C85.4787 125.193 85.535 125.024 85.535 125.024Z" fill="#303030"/>
<path d="M110.014 90.4547C110.24 89.78 110.128 88.9927 109.734 88.4864C109.397 87.8114 108.779 87.4175 108.104 87.1922C107.43 86.9669 106.811 87.1352 106.136 87.4722C100.793 89.9996 95.7865 92.6397 90.7801 95.8421C88.3613 97.4715 85.9424 99.1008 83.5799 100.562C81.161 102.191 78.7421 103.82 76.3232 105.45C74.917 106.292 73.4544 107.304 72.0481 108.146C70.8669 108.877 70.3036 110.563 71.2026 111.801C71.933 112.982 73.6196 113.545 74.8572 112.646C77.2197 111.186 79.6386 109.556 82.0012 108.096C84.42 106.466 86.7826 105.006 89.2014 103.376C90.439 102.477 91.6203 101.747 92.8016 101.017C93.9829 100.286 94.9955 99.4995 96.1767 98.7692C98.7079 97.3648 101.07 95.9041 103.77 94.5561C105.57 93.6574 107.145 92.871 108.945 91.9723C109.17 91.86 109.17 91.86 109.395 91.7476C109.676 91.4666 110.07 90.8483 110.014 90.4547Z" fill="#303030"/>
<path d="M101.476 77.8548C100.745 76.6735 99.0589 76.1102 97.8213 77.0092C94.3898 79.4253 90.846 81.6163 87.1335 83.751C83.8147 85.8298 80.3835 87.6835 77.177 89.9872C76.6707 90.3805 76.1081 90.9425 75.8828 91.6172C75.6575 92.2918 75.7695 93.0791 76.1628 93.5854C76.4998 94.2604 77.1182 94.6544 77.7928 94.8797C78.4675 95.105 79.2548 94.9929 79.7611 94.5996C82.9676 92.2959 86.2301 90.3859 89.7176 88.3635C93.2614 86.1724 96.8052 83.9814 100.405 81.6217C100.462 81.453 100.63 81.5093 100.687 81.3407C101.756 80.3853 102.206 79.036 101.476 77.8548Z" fill="#303030"/>
<path d="M93.8336 65.3669C93.1033 64.1856 91.4166 63.6223 90.1791 64.5213C88.0415 65.8697 86.1289 67.1057 83.9914 68.4541C82.1351 69.5214 80.2226 70.7575 78.1977 71.7685C76.8477 72.4425 76.6218 74.2418 77.3521 75.4231C78.0262 76.773 79.8254 76.999 81.0067 76.2686C82.863 75.2012 84.7192 74.1339 86.5754 73.0665C88.713 71.7182 90.8506 70.3698 92.9318 69.1901C93.1568 69.0778 93.1568 69.0778 93.2131 68.9091C94.1134 67.8974 94.3953 66.4918 93.8336 65.3669Z" fill="#303030"/>
<path d="M153.544 78.558C153.77 77.8833 153.601 77.2647 153.264 76.5897C151.074 72.4836 148.939 68.2088 146.917 64.159C146.018 62.359 145.007 60.3341 144.052 58.7029C143.603 57.8029 142.985 56.8467 142.592 55.778C142.143 54.8781 141.75 53.8095 141.3 52.9095C140.963 52.2345 140.345 51.8406 139.67 51.6153C138.996 51.39 138.208 51.502 137.702 51.8953C137.027 52.2323 136.633 52.8507 136.408 53.5253C136.182 54.2 136.351 54.8186 136.688 55.4936C137.137 56.3935 137.587 57.2935 137.98 58.3621C138.373 59.4307 138.991 60.387 139.609 61.3433C140.676 63.1995 141.575 64.9994 142.417 66.968C143.316 68.7679 144.214 70.5678 145.113 72.3678C146.349 74.8426 147.641 77.1489 148.877 79.6237C149.551 80.9737 151.35 81.1996 152.531 80.4693C152.756 80.3569 152.756 80.3569 152.981 80.2446C153.206 79.5699 153.375 79.0639 153.544 78.558Z" fill="#303030"/>
<path d="M149.768 93.7948C149.993 93.1202 149.825 92.5015 149.488 91.8266C148.084 88.7331 146.511 85.5832 144.939 82.4334C143.703 79.9585 142.411 77.6522 141.119 75.346C140.388 74.1648 139.883 72.8712 139.153 71.6899C138.479 70.3399 137.917 69.215 137.243 67.8651C136.681 66.7401 135.951 65.5588 135.277 64.2089C134.715 63.084 134.041 61.734 133.48 60.6091C132.693 59.0342 131.907 57.4592 131.064 56.053C130.221 54.6467 129.379 53.2404 128.761 51.7218C128.649 51.4969 128.649 51.4969 128.536 51.2719C128.312 50.8219 128.031 50.5406 127.525 50.3716C126.906 49.9776 126.175 49.921 125.388 50.033C124.769 50.2014 124.038 50.707 123.813 51.3817C123.419 52 123.306 52.8997 123.474 53.5183C123.755 54.3619 124.204 55.2619 124.541 55.9368C124.878 56.6118 125.272 57.1181 125.496 57.5681C126.227 58.7494 126.788 59.8743 127.35 60.9993C128.586 63.4741 129.821 65.949 131.114 68.2552C131.844 69.4365 132.518 70.7865 133.023 72.0801C133.585 73.205 134.09 74.4986 134.821 75.6799C135.495 77.0298 136.225 78.2111 136.955 79.3924C137.686 80.5736 138.36 81.9236 139.034 83.2735C141 86.9297 142.572 90.6418 144.482 94.4667C144.819 95.1416 145.437 95.5356 146.112 95.7609C146.787 95.9862 147.574 95.8742 148.08 95.4808C148.305 95.3685 148.305 95.3685 148.53 95.2562C149.43 94.8068 149.599 94.3008 149.768 93.7948ZM129.267 52.4531C129.154 52.2281 129.154 52.2282 129.042 52.0032C129.042 52.0032 129.042 52.0032 128.93 51.7782C128.986 52.1718 129.154 52.2281 129.267 52.4531Z" fill="#303030"/>
<path d="M52.6999 116.12C54.3314 114.603 55.682 112.804 56.5266 110.837C56.9769 110.05 57.2585 109.207 57.5965 108.195C58.1597 106.508 58.498 104.934 58.4989 103.247C58.5562 101.391 57.8825 99.4788 57.1525 97.7352C56.2538 95.9353 54.8488 94.5288 53.1624 93.4032C52.3755 92.9529 51.5885 92.5026 50.7452 92.221C50.0705 91.9957 49.3958 91.7703 48.4962 91.6574C46.5283 91.3751 44.504 91.2615 42.4794 91.7102C42.0294 91.9349 41.4108 92.1033 40.9608 92.3279C40.5108 92.5526 40.2858 92.6649 40.0045 92.9459C39.2732 93.4516 38.7106 94.0136 38.148 94.5756C37.5853 95.1376 36.9664 95.8683 36.3474 96.5989C35.3908 97.7793 34.6029 99.0159 33.9836 100.309C33.3643 101.602 32.8574 103.12 32.5191 104.694C32.5188 105.256 32.3498 105.762 32.3495 106.325C32.2929 107.056 32.4612 107.674 32.5732 108.462C32.7416 109.08 32.91 109.699 33.0783 110.318C33.359 111.161 33.977 112.118 34.4263 113.017C34.8757 113.917 35.7187 114.761 36.5617 115.605C38.1354 117.068 40.103 117.913 42.1269 118.589C43.1389 118.927 44.0386 119.04 45.1069 119.209C46.0065 119.322 47.0188 119.098 47.9748 119.042C48.7621 118.93 49.662 118.48 50.337 118.143C50.9556 117.975 51.5183 117.413 52.0246 117.02C52.2496 116.907 52.3059 116.739 52.3059 116.739C52.3622 116.57 52.6435 116.289 52.6999 116.12ZM48.8782 112.407L48.6532 112.519C48.8219 112.576 48.8782 112.407 48.8782 112.407ZM48.5969 112.688C48.5406 112.857 48.3719 112.8 48.3156 112.969C48.0906 113.081 47.8656 113.194 47.8093 113.362C47.8093 113.362 47.8093 113.362 47.5843 113.475C47.1343 113.699 46.7406 113.755 46.1783 113.755C45.7847 113.811 45.391 113.867 45.0537 113.754C44.3227 113.698 43.6481 113.473 43.1421 113.304C42.1301 112.966 41.1744 112.459 40.2751 111.784C39.9941 111.502 39.7131 111.221 39.4321 110.94C39.0388 110.433 38.7018 109.758 38.3648 109.083C38.1964 108.465 37.8594 107.79 37.916 107.059C37.86 106.665 37.9164 106.497 37.8603 106.103C37.917 105.372 38.1986 104.529 38.4802 103.685C38.9869 102.73 39.4935 101.774 40.1688 100.875C41.069 99.863 42.0256 98.6827 43.0946 97.7274C43.3196 97.615 43.6009 97.334 43.8259 97.2217C44.2195 97.1657 44.4445 97.0533 44.8382 96.9973C45.6255 96.8853 46.3564 96.9419 47.2561 97.0549C47.9871 97.1116 48.6617 97.3369 49.3364 97.5622C49.8424 97.7311 50.292 98.0688 50.7417 98.4064C51.1913 98.7441 51.4724 99.0254 51.8657 99.5317C52.259 100.038 52.6524 100.544 52.8207 101.163C53.0454 101.613 53.0451 102.175 53.2697 102.625C53.2694 103.188 53.3254 103.581 53.3251 104.143C52.9872 105.155 52.5929 106.336 52.2549 107.348C51.6357 108.641 51.0727 109.765 50.3411 110.833C49.7221 111.564 49.1595 112.126 48.5969 112.688Z" fill="#303030"/>
</svg>
