<svg width="50" height="45" viewBox="0 0 50 45" fill="none" xmlns="http://www.w3.org/2000/svg">
<g clip-path="url(#clip0_0_8476)">
<g style="mix-blend-mode:multiply">
<g style="mix-blend-mode:multiply">
<path d="M39.2968 4.40715C38.2935 4.21791 37.2749 4.12169 36.2539 4.11973C32.9673 4.12888 29.7628 5.14665 27.0732 7.03555C24.3173 4.97624 20.9705 3.8609 17.5302 3.85522C16.6604 3.85656 15.792 3.9262 14.933 4.0635C10.3302 4.79453 6.8104 7.50833 5.04008 11.7009C2.93861 16.6557 3.67382 22.8455 6.91454 27.4671C9.48462 31.1348 13.8167 36.3291 24.601 43.9998L25.1655 44.3997C25.5641 44.6836 26.039 44.8409 26.5283 44.8509C27.0176 44.8609 27.4985 44.7233 27.9084 44.4559L27.9272 44.4434L28.5062 44.0581C39.505 36.6936 43.985 31.6242 46.6571 28.0211C50.027 23.4932 50.9371 17.3263 48.9773 12.3132C47.3194 8.07899 43.8788 5.27564 39.2968 4.40715Z" fill="white"/>
</g>
<g style="mix-blend-mode:multiply">
<path d="M38.9531 4.05729C37.9499 3.86713 36.9313 3.77091 35.9102 3.76988C32.6235 3.77808 29.4187 4.79595 26.7296 6.68569C23.9711 4.62508 20.6213 3.5097 17.1782 3.50537C16.3091 3.50671 15.4414 3.57635 14.5831 3.71364C9.9803 4.4426 6.46674 7.15014 4.68809 11.3489C2.5887 16.3037 3.3239 22.4915 6.56254 27.1152C9.13263 30.7828 13.4668 35.9771 24.2511 43.6478L24.8156 44.0456C25.2142 44.3294 25.6889 44.4867 26.1781 44.4971C26.6672 44.5075 27.1482 44.3705 27.5585 44.1039L27.5752 44.0914L28.1542 43.7041C39.1551 36.3395 43.6351 31.2702 46.3072 27.6775C49.6771 23.1476 50.5872 16.9827 48.6274 11.9696C46.9695 7.72706 43.533 4.91746 38.9531 4.05729Z" fill="#F1F1F1"/>
</g>
<g style="mix-blend-mode:multiply">
<path d="M38.6031 3.70524C37.599 3.51677 36.5797 3.42126 35.5581 3.41991C32.2721 3.42854 29.0681 4.44639 26.3795 6.33573C23.6207 4.27557 20.2713 3.15959 16.8282 3.15332C15.959 3.15459 15.0913 3.22423 14.2331 3.36159C9.63026 4.09263 6.11045 6.80434 4.33805 10.9969C2.23658 15.9538 2.97387 22.1415 6.2125 26.7652C8.78259 30.4329 13.1167 35.6251 23.899 43.2958L24.4634 43.6957C24.8623 43.9798 25.3376 44.1372 25.8273 44.1472C26.3169 44.1572 26.7983 44.0195 27.2085 43.7519L27.2251 43.7415L27.8041 43.3541C38.8051 35.9896 43.2829 30.9202 45.9572 27.3171C49.3249 22.7872 50.2372 16.6223 48.2773 11.6092C46.6174 7.37709 43.183 4.56749 38.6031 3.70524Z" fill="#E2E2E2"/>
</g>
<g style="mix-blend-mode:multiply">
<path d="M38.2552 3.35539C37.2519 3.16615 36.2333 3.06994 35.2123 3.06797C31.9257 3.07712 28.7212 4.0949 26.0317 5.98379C23.2728 3.92235 19.9221 2.8069 16.4782 2.80347C15.6084 2.8048 14.74 2.87444 13.881 3.01174C9.28029 3.74278 5.7584 6.45657 3.98808 10.6491C1.88661 15.6039 2.62181 21.7938 5.86254 26.4153C8.43262 30.0809 12.7668 35.2669 23.549 42.9459L24.1135 43.3458C24.5259 43.6393 25.0194 43.7973 25.5256 43.7978C25.9984 43.7992 26.4612 43.6615 26.8564 43.402L26.8752 43.3895L27.4542 43.0042C38.4551 35.6397 42.933 30.5704 45.6051 26.9673C48.975 22.4394 49.8851 16.2725 47.9253 11.2614C46.2674 7.02723 42.8372 4.21764 38.2552 3.35539Z" fill="#D4D4D4"/>
</g>
<g style="mix-blend-mode:multiply">
<path d="M37.9013 3.00529C36.8982 2.81513 35.8795 2.7189 34.8585 2.71788C31.5718 2.72608 28.3669 3.74395 25.6778 5.63369C22.9199 3.57351 19.5709 2.45814 16.1285 2.45337C15.2587 2.45471 14.3903 2.52434 13.5314 2.66164C8.92854 3.40101 5.41498 6.10855 3.63633 10.2969C1.53694 15.2517 2.27215 21.4416 5.51078 26.0632C8.08295 29.7308 12.415 34.9251 23.1994 42.5958L23.7638 42.9936C24.1618 43.2787 24.6368 43.4368 25.1262 43.4473C25.6157 43.4577 26.0969 43.3199 26.5067 43.0519L26.5234 43.0395C26.7192 42.9103 26.9129 42.7812 27.1024 42.6521C38.1034 35.2875 42.5833 30.2203 45.2554 26.6151C48.6253 22.0872 49.5354 15.9203 47.5756 10.9072C45.9178 6.67714 42.4813 3.86546 37.9013 3.00529Z" fill="#C5C5C5"/>
</g>
<g style="mix-blend-mode:multiply">
<path d="M37.5513 2.65557C36.5477 2.46248 35.5283 2.36347 34.5064 2.35982C31.2196 2.36803 28.0148 3.38589 25.3257 5.27564C22.567 3.21781 19.2181 2.10468 15.7764 2.10156C14.9073 2.10292 14.0396 2.17256 13.1813 2.30984C8.5785 3.04087 5.05869 5.75258 3.28629 9.94511C1.18482 14.902 1.92211 21.0898 5.16075 25.7134C7.73083 29.3811 12.065 34.5754 22.8431 42.244L23.4054 42.6439C23.8185 42.9377 24.3127 43.0957 24.8196 43.0959C25.2925 43.0979 25.7555 42.9602 26.1505 42.7001L26.1671 42.6897L26.7461 42.3023C37.7471 34.9378 42.227 29.8685 44.8992 26.2758C48.2669 21.7458 49.1792 15.581 47.2193 10.5678C45.5677 6.317 42.1312 3.51573 37.5513 2.65557Z" fill="#B7B7B7"/>
</g>
<g style="mix-blend-mode:multiply">
<path d="M37.2015 2.30339C36.1975 2.11424 35.1783 2.01803 34.1566 2.01597C30.87 2.02512 27.6655 3.04289 24.9759 4.93179C22.2178 2.87213 18.869 1.75683 15.4266 1.75146C14.5568 1.75282 13.6884 1.82246 12.8295 1.95974C8.22874 2.69077 4.70686 5.40248 2.93654 9.59501C0.835068 14.5498 1.57027 20.7397 4.81099 25.3633C7.38108 29.031 11.7152 34.2232 22.4975 41.8939L23.0619 42.2938C23.4749 42.5876 23.9692 42.7456 24.4761 42.7458C24.9483 42.7471 25.4104 42.6095 25.8049 42.35H25.8236L26.4026 41.9627C37.4036 34.5981 41.8814 29.5288 44.5556 25.9361C47.9234 21.4061 48.8336 15.2413 46.8758 10.2282C45.2159 5.97523 41.7815 3.16564 37.2015 2.30339Z" fill="#A8A8A8"/>
</g>
<g style="mix-blend-mode:multiply">
<path d="M36.8494 1.95353C35.8462 1.76337 34.8275 1.66715 33.8065 1.66612C30.52 1.67526 27.3154 2.69304 24.6259 4.58193C21.8682 2.52135 18.5191 1.40594 15.0766 1.40161C14.2067 1.40295 13.3384 1.47259 12.4794 1.60988C7.87659 2.34092 4.35679 5.05471 2.58647 9.24724C0.485001 14.202 1.2202 20.3919 4.46092 25.0135C7.03101 28.6812 11.3631 33.8755 22.1474 41.5462C22.339 41.6836 22.5327 41.819 22.7119 41.944C23.1099 42.229 23.5848 42.3872 24.0743 42.3976C24.5638 42.408 25.045 42.2702 25.4548 42.0023L25.4715 41.9898L26.0525 41.6045C37.0514 34.2399 41.5314 29.1706 44.2035 25.5675C47.5733 21.0459 48.4835 14.8789 46.5237 9.85748C44.8658 5.62538 41.4293 2.8137 36.8494 1.95353Z" fill="#9A9A9A"/>
</g>
<g style="mix-blend-mode:multiply">
<path d="M36.4995 1.60368C35.499 1.41473 34.4831 1.31921 33.465 1.31835C30.1783 1.32655 26.9734 2.34442 24.2843 4.23416C21.5227 2.17025 18.1681 1.054 14.7204 1.05176C13.8513 1.0531 12.9836 1.12274 12.1254 1.26003C7.52253 1.99107 4.00273 4.70278 2.23033 8.89739C0.130938 13.8522 0.86614 20.04 4.10478 24.6636C6.67903 28.3292 11.0132 33.5235 21.8017 41.1942L22.3661 41.592C22.7647 41.8758 23.2395 42.033 23.7286 42.0434C24.2178 42.0538 24.6988 41.9169 25.1091 41.6503L25.1257 41.6378L25.7047 41.2505C36.7057 33.8859 41.1856 28.8166 43.8578 25.2239C47.2235 20.6877 48.1336 14.5291 46.1696 9.51596C44.5159 5.27553 41.0794 2.46385 36.4995 1.60368Z" fill="#8B8B8B"/>
</g>
<g style="mix-blend-mode:multiply">
<path d="M36.1497 1.25177C35.1457 1.06263 34.1264 0.966419 33.1047 0.964358C29.8187 0.97299 26.6147 1.99084 23.9261 3.88017C21.1678 1.81853 17.8184 0.701072 14.3748 0.693604C13.5056 0.694878 12.6379 0.764517 11.7797 0.901876C7.17686 1.63291 3.65705 4.34462 1.88465 8.53715C-0.216819 13.492 0.520466 19.6818 3.7591 24.3055C6.32919 27.9731 10.6633 33.1654 21.4456 40.8361L22.01 41.2359C22.4089 41.5201 22.8842 41.6774 23.3739 41.6875C23.8635 41.6975 24.3449 41.5597 24.7551 41.2922L24.7717 41.2818L25.3507 40.8944C36.3517 33.5299 40.8295 28.4605 43.5038 24.8574C46.8715 20.3275 47.7838 14.1626 45.8239 9.14947C44.164 4.92362 40.7296 2.11402 36.1497 1.25177Z" fill="#7D7D7D"/>
</g>
<g style="mix-blend-mode:multiply">
<path d="M35.7976 0.901776C34.7943 0.712537 33.7757 0.616324 32.7547 0.61436C29.4682 0.623504 26.2636 1.64128 23.5741 3.53018C20.8164 1.46959 17.4673 0.354183 14.0248 0.349854C13.155 0.351191 12.2866 0.420829 11.4276 0.558126C6.82481 1.29125 3.305 4.00296 1.53468 8.19548C-0.566787 13.1503 0.168415 19.3401 3.40914 23.9617C5.97922 27.6294 10.3113 32.8237 21.0956 40.4944L21.6601 40.8943C22.0587 41.1782 22.5336 41.3355 23.0229 41.3455C23.5122 41.3556 23.9931 41.2179 24.403 40.9505L24.4218 40.938L25.0008 40.5527C36.0017 33.1882 40.4796 28.1188 43.1517 24.5157C46.5216 19.9879 47.4317 13.8209 45.4719 8.80989C43.814 4.57362 40.3796 1.76194 35.7976 0.901776Z" fill="#6E6E6E"/>
</g>
<g style="mix-blend-mode:multiply">
<path d="M35.4478 0.551922C34.4447 0.361758 33.426 0.265536 32.405 0.264506C29.1183 0.272711 25.9135 1.29058 23.2243 3.18032C20.4676 1.12099 17.1202 0.00567176 13.6792 0C12.8101 0.00142054 11.9424 0.0710586 11.0841 0.208273C6.48129 0.939309 2.96149 3.65102 1.18909 7.84563C-0.916549 12.7983 -0.181346 18.9861 3.05729 23.6035C5.62738 27.2712 9.96153 32.4655 20.7459 40.1362L21.3103 40.534C21.7083 40.8191 22.1833 40.9772 22.6728 40.9876C23.1622 40.998 23.6435 40.8602 24.0533 40.5923L24.0699 40.5798C24.2657 40.4507 24.4594 40.3216 24.6489 40.1924C35.6499 32.8342 40.1298 27.769 42.8019 24.1721C46.1697 19.6464 47.082 13.4773 45.1284 8.4642C43.4622 4.23418 40.0278 1.41209 35.4478 0.551922Z" fill="#606060"/>
</g>
</g>
<path d="M35.4478 0.551922C34.4447 0.361758 33.426 0.265536 32.405 0.264506C29.1183 0.272711 25.9135 1.29058 23.2243 3.18032C20.4676 1.12099 17.1202 0.00567176 13.6792 0C12.8101 0.00142054 11.9424 0.0710586 11.0841 0.208273C6.48129 0.939309 2.96149 3.65102 1.18909 7.84563C-0.916549 12.7983 -0.181346 18.9861 3.05729 23.6035C5.62738 27.2712 9.96153 32.4655 20.7459 40.1362L21.3103 40.534C21.7083 40.8191 22.1833 40.9772 22.6728 40.9876C23.1622 40.998 23.6435 40.8602 24.0533 40.5923L24.0699 40.5798C24.2657 40.4507 24.4594 40.3216 24.6489 40.1924C35.6499 32.8342 40.1298 27.769 42.8019 24.1721C46.1697 19.6464 47.082 13.4773 45.1284 8.4642C43.4622 4.23418 40.0278 1.41209 35.4478 0.551922Z" fill="white"/>
<path d="M34.998 2.9429C32.9013 2.54074 30.7395 2.63653 28.6865 3.22257C26.6336 3.8086 24.747 4.86849 23.1786 6.31691C21.6517 4.82463 19.7958 3.71173 17.7602 3.06782C15.7247 2.4239 13.5664 2.26697 11.4591 2.60966C1.99931 4.11339 0.18526 15.2726 5.05051 22.2144C9.42423 28.4625 15.6724 33.5485 22.1601 38.1618L22.7224 38.5596L23.2952 38.1784C29.9078 33.7506 36.2935 28.8458 40.8505 22.7205C45.9094 15.9183 44.4119 4.71321 34.998 2.9429Z" fill="#E53628"/>
<path d="M22.7224 38.718C22.6901 38.7186 22.6586 38.7083 22.6329 38.6888C22.4433 38.5576 22.2559 38.4243 22.0684 38.291C11.5632 30.8182 7.3873 25.8217 4.93177 22.304C2.12217 18.3093 1.47653 12.9817 3.27809 8.73086C4.73599 5.28604 7.63515 3.05752 11.434 2.45353C12.1766 2.33502 12.9273 2.27513 13.6792 2.27441C17.2215 2.28662 20.6237 3.65929 23.1827 6.10871C25.7133 3.82581 28.9969 2.55627 32.405 2.54309C33.2847 2.54457 34.1625 2.62684 35.0272 2.78885C38.8094 3.50114 41.6419 5.81088 43.004 9.29528C44.6848 13.594 43.8892 18.9029 40.9775 22.8163C38.4137 26.2633 34.1045 31.1472 23.3847 38.3118L22.8099 38.695C22.7834 38.7107 22.7531 38.7186 22.7224 38.718ZM13.6792 2.59099C12.9437 2.59483 12.2097 2.65681 11.484 2.77635C7.79552 3.3616 4.98592 5.52347 3.56967 8.86416C1.83684 12.9525 2.48457 18.2843 5.17962 22.1332C7.63098 25.6301 11.786 30.5995 22.258 38.0432L22.7307 38.3785L23.2139 38.0577C33.8879 30.9119 38.1804 26.0633 40.7297 22.6456C43.533 18.8758 44.3328 13.5649 42.7145 9.42858C41.3941 6.0504 38.6449 3.80522 34.9751 3.11792C34.1298 2.95837 33.2715 2.87749 32.4113 2.87632C29.0302 2.8903 25.7768 4.16893 23.291 6.46069C23.2624 6.48631 23.2253 6.50047 23.1869 6.50047C23.1484 6.50047 23.1114 6.48631 23.0827 6.46069C20.5715 3.9958 17.198 2.60753 13.6792 2.59099Z" fill="#B51C1C"/>
<g style="mix-blend-mode:multiply">
<path d="M43.2892 10.6906C43.694 14.1116 42.9551 17.5704 41.1877 20.5273C38.3573 25.2113 33.3712 28.5458 28.2081 30.1557C25.5672 30.9784 22.7514 31.4054 19.9918 31.045C17.3332 30.6838 14.7829 29.757 12.5127 28.3271C10.2405 26.9171 8.06401 25.1738 6.47281 23.0036C4.88935 20.7985 3.77309 18.2931 3.19252 15.6412C2.75323 13.7851 2.68669 11.8603 2.99674 9.97827C1.80542 13.9042 2.53438 18.6216 5.05031 22.2143C9.42403 28.4625 15.6722 33.5485 22.1599 38.1617L22.7222 38.5595L23.295 38.1784C29.9076 33.7505 36.2933 28.8457 40.8503 22.7204C43.4329 19.2464 44.3076 14.6248 43.2892 10.6906Z" fill="#DF2016"/>
</g>
<g style="mix-blend-mode:screen" opacity="0.4">
<path d="M14.9558 24.6594C18.6838 25.6568 22.5766 25.8801 26.3942 25.3154C30.266 24.7594 34.4002 23.5868 37.4326 20.9959C38.8489 19.7837 40.0027 18.2446 40.5317 16.4368C40.9332 14.9981 41.0652 13.4977 40.9212 12.011C40.2131 8.44953 37.7971 5.41917 33.5296 4.61524C31.6946 4.26331 29.8026 4.347 28.0059 4.85958C26.2091 5.37216 24.5578 6.29932 23.1847 7.56646C21.849 6.26131 20.2256 5.28796 18.4451 4.72473C16.6646 4.16149 14.7768 4.02412 12.9335 4.32365C7.28933 5.21923 3.42796 11.6132 5.35864 17.0783C6.8957 21.4228 10.7112 23.516 14.9558 24.6594Z" fill="#F4B4CE"/>
</g>
<g style="mix-blend-mode:screen" opacity="0.4">
<path d="M18.1028 7.03559C17.5644 6.37957 16.8486 5.89228 16.0409 5.63183C15.2203 5.36316 14.2498 5.38607 13.4 5.44855C11.7692 5.56935 10.3696 6.36078 9.1929 7.45422C8.09114 8.47892 7.4684 10.0368 7.36219 11.5197C7.23514 13.29 8.62848 14.4959 10.2384 14.8021C11.8484 15.1082 13.7374 14.5938 15.2161 13.9044C16.4658 13.3254 17.982 12.3278 18.5985 11.0428C18.9136 10.3987 19.0345 9.67699 18.9464 8.96547C18.8584 8.25395 18.5653 7.58341 18.1028 7.03559Z" fill="#FFFBEA"/>
</g>
<g style="mix-blend-mode:screen" opacity="0.4">
<path d="M8.34114 15.7205C8.25907 15.6236 8.1516 15.5514 8.03081 15.5122C7.90354 15.4766 7.77057 15.466 7.63926 15.481C7.40259 15.5072 7.18206 15.6138 7.01444 15.783C6.84325 15.9437 6.7391 16.1631 6.72286 16.3974C6.71905 16.5194 6.76162 16.6384 6.84199 16.7304C6.92236 16.8224 7.03458 16.8805 7.15607 16.893C7.41386 16.9224 7.67461 16.8754 7.90585 16.7577C8.11898 16.6734 8.29834 16.5211 8.41612 16.3245C8.46367 16.2274 8.48191 16.1186 8.46859 16.0113C8.45528 15.904 8.41099 15.803 8.34114 15.7205Z" fill="#FFFBEA"/>
</g>
</g>
<defs>
<clipPath id="clip0_0_8476">
<rect width="50" height="44.8494" fill="white"/>
</clipPath>
</defs>
</svg>
