<svg width="40" height="40" viewBox="0 0 40 40" fill="none" xmlns="http://www.w3.org/2000/svg">
<path d="M20 40C31.0457 40 40 31.0457 40 20C40 8.9543 31.0457 0 20 0C8.9543 0 0 8.9543 0 20C0 31.0457 8.9543 40 20 40Z" fill="#35B75D"/>
<path d="M14.3293 39.1841C16.1271 39.7148 18.0303 39.9995 20.0001 39.9995C31.0458 39.9995 40.0001 31.0452 40.0001 19.9995C40.0001 18.0596 39.7239 16.1841 39.2087 14.4103L34.9566 10.1582L5.32861 30.1835L14.3293 39.1841Z" fill="#09825A"/>
<path d="M32.9607 30.8919H7.03932C5.70189 30.8919 4.61768 29.8077 4.61768 28.4703V11.53C4.61768 10.1926 5.70189 9.1084 7.03932 9.1084H32.9606C34.2981 9.1084 35.3823 10.1926 35.3823 11.53V28.4703C35.3824 29.8077 34.2981 30.8919 32.9607 30.8919Z" fill="#FFCD40"/>
<path d="M35.382 11.53V28.4706C35.382 29.8081 34.2984 30.8917 32.9609 30.8917H20V9.10889H32.9609C34.2984 9.10889 35.382 10.1925 35.382 11.53Z" fill="#FFA33E"/>
<path d="M23.9077 23.292H31.4747V27.1635H23.9077V23.292Z" fill="#DD1D42"/>
<path d="M35.382 13.8901V19.3628H12.3351L10.6838 18.5398L7.67183 19.3628H4.61792V13.8901H11.096L12.3556 15.5604L15.7593 13.8901H35.382Z" fill="#4F4F4F"/>
<path d="M20 13.8901H35.382V19.3628H20V13.8901Z" fill="#333333"/>
<path d="M15.7594 13.8901L12.3352 19.3628H7.67188L11.0961 13.8901H15.7594Z" fill="white"/>
</svg>
