<svg width="40" height="40" viewBox="0 0 40 40" fill="none" xmlns="http://www.w3.org/2000/svg">
<g clip-path="url(#clip0)">
<path d="M20 40C31.0457 40 40 31.0457 40 20C40 8.9543 31.0457 0 20 0C8.9543 0 0 8.9543 0 20C0 31.0457 8.9543 40 20 40Z" fill="#008E3F"/>
<path d="M40.0001 19.9999C40.0001 18.8566 39.9028 17.7362 39.7185 16.6453L34.5444 11.4712L5.45589 15.3774L6.81222 16.7338L6.66683 16.7576L10.7217 20.8124L5.45581 29.9999L14.761 39.305C16.431 39.7572 18.1871 39.9999 20.0001 39.9999C31.0458 39.9999 40.0001 31.0456 40.0001 19.9999Z" fill="#004720"/>
<path d="M11.2111 13.4243H7.20093V28.7626H11.2111V13.4243Z" fill="white"/>
<path d="M18.4071 13.4243H14.397V28.7626H18.4071V13.4243Z" fill="white"/>
<path d="M25.6029 13.4243H21.5928V28.7626H25.6029V13.4243Z" fill="#E0E0E0"/>
<path d="M32.7992 13.4243H28.7891V28.7626H32.7992V13.4243Z" fill="#E0E0E0"/>
<path d="M11.7444 13.4243H6.66626V16.7577H11.7444V13.4243Z" fill="#C0C0C0"/>
<path d="M18.9404 13.4243H13.8623V16.7577H18.9404V13.4243Z" fill="#C0C0C0"/>
<path d="M26.1374 13.4243H21.0593V16.7577H26.1374V13.4243Z" fill="#758F9B"/>
<path d="M33.3335 13.4243H28.2554V16.7577H33.3335V13.4243Z" fill="#758F9B"/>
<path d="M11.7444 26.0024H6.66626V29.3358H11.7444V26.0024Z" fill="#C0C0C0"/>
<path d="M18.9404 26.0024H13.8623V29.3358H18.9404V26.0024Z" fill="#C0C0C0"/>
<path d="M26.1374 26.0024H21.0593V29.3358H26.1374V26.0024Z" fill="#758F9B"/>
<path d="M33.3335 26.0024H28.2554V29.3358H33.3335V26.0024Z" fill="#758F9B"/>
<path d="M6.26294 11.8489L20 4.6875L33.737 11.849L6.26294 11.8489Z" fill="white"/>
<path d="M20.0001 4.6875L19.9963 11.849H33.7371L20.0001 4.6875Z" fill="#E0E0E0"/>
<path d="M34.5441 11.4712H5.45581V15.3774H34.5441V11.4712Z" fill="#E0E0E0"/>
<path d="M34.5437 11.4712H19.9961V15.3774H34.5437V11.4712Z" fill="#C0C0C0"/>
<path d="M34.5441 27.1353H5.45581V29.9999H34.5441V27.1353Z" fill="#E0E0E0"/>
<path d="M34.5437 27.1353H19.9961V29.9999H34.5437V27.1353Z" fill="#C0C0C0"/>
</g>
<defs>
<clipPath id="clip0">
<rect width="40" height="40" fill="white"/>
</clipPath>
</defs>
</svg>
