<svg width="88" height="88" viewBox="0 0 88 88" fill="none" xmlns="http://www.w3.org/2000/svg">
<g clip-path="url(#clip0_1757_16141)">
<path d="M80.3088 27.3009L79.8723 27.9081C80.0395 27.7321 80.1821 27.5262 80.3088 27.3009Z" fill="#F9FAFA"/>
<path d="M32.8662 70.6638C33.5597 74.1398 33.8184 74.7857 34.4326 77.3289C34.8621 79.1101 34.9237 85.0078 34.4731 87.3081C33.1197 88.0104 32.7818 89.1737 33.1725 89.1737H37.8418C38.2589 89.1737 39.6792 84.9075 40.084 83.5646C40.7299 81.4245 41.177 79.8493 41.177 79.8493L42.8208 79.8598L44.4646 79.8493C44.4646 79.8493 45.107 81.3822 46.0082 83.4273C46.1542 83.76 48.7397 89.172 49.1586 89.172H53.6395C54.0302 89.172 53.8806 88.0086 52.5272 87.3064C52.5272 87.3064 51.253 83.1827 50.4117 77.8693C50.1706 75.4035 50.0614 74.1152 50.3219 70.4421C50.5261 67.5592 51.3251 62.7157 52.9426 59.6533L53.5938 48.2643L32.2186 51.4235C32.2186 51.4235 31.3966 56.7897 31.724 61.3763C32.0566 65.9664 32.4984 68.8176 32.8662 70.6638Z" fill="#223F99"/>
<path d="M41.8387 66.079H39.7197L36.8949 59.4561H39.5437L40.7792 62.1613L44.0616 54.9435H47.5904L41.8387 66.079Z" fill="#F26F28"/>
<path d="M55.3239 87.2272C55.3239 87.2272 55.2658 88.5806 55.4436 89.0312C55.6988 89.6771 52.4023 89.172 51.5909 89.172H46.9287C46.5081 89.172 46.4377 88.5401 46.8882 87.0969C46.985 86.7854 47.1065 86.3877 47.2349 85.9336H49.6057L51.0823 80.9809C50.5402 82.1038 55.3362 81.6638 55.1127 82.0528C54.2503 83.5576 55.3239 87.2272 55.3239 87.2272Z" fill="#221D51"/>
<path d="M31.2453 87.2272C31.2453 87.2272 31.3034 88.5806 31.1256 89.0312C30.8704 89.6771 34.1669 89.172 34.9783 89.172H39.6405C40.0611 89.172 40.1315 88.5401 39.681 87.0969C39.5842 86.7854 39.4627 86.3877 39.3343 85.9336H36.9635L34.7107 81.0936C32.7536 81.5125 31.233 81.6638 31.4565 82.0545C32.3171 83.5576 31.2453 87.2272 31.2453 87.2272Z" fill="#221D51"/>
<path d="M31.8912 52.4496C31.8912 52.4496 28.4927 51.3672 25.2736 49.1109C22.0564 46.8545 20.9722 44.8992 20.5516 42.6147C20.1309 40.3285 20.8525 37.2907 21.2133 35.4849C21.5741 33.6809 21.7237 31.0022 21.634 28.5065C21.5424 26.0091 21.0021 23.4835 21.905 19.0025C22.8079 14.5198 25.154 10.4613 30.4762 5.94862C35.8002 1.43774 42.1468 0.353578 47.2296 0.263818C52.3125 0.174058 58.3581 1.76686 59.5919 2.70142C60.8239 3.63422 61.2762 5.58958 60.3733 6.79166C59.4704 7.9955 57.2458 7.3619 55.9821 8.62558C54.7184 9.88926 55.9223 11.1829 57.3954 11.424C58.8703 11.6651 65.2767 12.7176 68.1032 13.5289C70.9298 14.3403 74.8405 16.0246 77.4576 18.6417C80.0748 21.2589 80.8861 24.1153 80.7365 25.8613C80.5852 27.6054 79.5028 28.4784 78.2708 28.8691C77.037 29.2598 76.3154 29.2299 73.788 28.9589C71.2607 28.6878 67.7424 30.5534 66.6002 33.2902C65.458 36.027 64.5551 38.5843 63.0204 41.652C61.4874 44.7197 59.6517 47.0957 56.9448 49.3221C54.238 51.5485 50.0034 53.1923 42.9898 53.4721C36.9741 53.7133 33.5756 52.8121 31.8912 52.4496Z" fill="#F6F7FB"/>
<path d="M41.0203 53.7766C36.645 53.7766 33.88 53.1606 32.3013 52.8104C32.1323 52.7734 31.9775 52.7382 31.8349 52.7083L31.8103 52.7013C31.7751 52.6907 28.336 51.5801 25.1223 49.3273C22.1848 47.2664 20.7839 45.3357 20.2928 42.6622C19.9039 40.5502 20.4671 37.8099 20.8402 35.9971C20.8807 35.7982 20.9194 35.6099 20.9546 35.4339C21.3013 33.6968 21.4615 31.0462 21.3699 28.5171C21.3506 27.975 21.3083 27.4329 21.2661 26.8592C21.1112 24.8088 20.9352 22.4856 21.6463 18.9515C22.6301 14.0622 25.3018 9.99134 30.3055 5.74974C34.6632 2.05726 40.3551 0.12478 47.2243 0.00333973C52.2051 -0.0811403 58.3669 1.44654 59.7503 2.49374C61.1459 3.54974 61.5437 5.67582 60.5845 6.95358C60.0706 7.63822 59.1994 7.79662 58.3563 7.94974C57.5626 8.09406 56.7407 8.24366 56.1687 8.81566C55.7709 9.21342 55.6336 9.6147 55.7603 10.0089C55.9363 10.5581 56.6263 11.0333 57.4376 11.1653C60.368 11.644 65.6603 12.5557 68.1754 13.2773C69.5869 13.6821 74.4392 15.2537 77.6424 18.4569C80.3528 21.1673 81.1536 24.0713 80.997 25.8859C80.8579 27.4981 79.941 28.6174 78.3482 29.1225C77.0792 29.5238 76.3453 29.5009 73.7581 29.2229C71.4208 28.9712 67.9659 30.703 66.8413 33.3923C66.5192 34.1614 66.2112 34.9323 65.9138 35.6768C65.1499 37.5846 64.3615 39.5576 63.2544 41.7699C61.6687 44.9432 59.7731 47.335 57.1103 49.5262C53.9739 52.1064 49.3575 53.4827 42.9968 53.7361C42.3051 53.7643 41.6469 53.7766 41.0203 53.7766ZM31.9599 52.1961C32.1007 52.2261 32.252 52.2595 32.4175 52.2965C34.1986 52.6925 37.5127 53.4281 42.9792 53.2099C49.2202 52.9617 53.7346 51.6224 56.7776 49.1197C59.3807 46.9795 61.2322 44.6405 62.7845 41.5358C63.881 39.3429 64.6659 37.3805 65.4263 35.4814C65.7255 34.7352 66.0335 33.9643 66.3573 33.1899C67.6034 30.2049 71.2871 28.4256 73.8162 28.6984C76.3541 28.9712 77.0088 28.9941 78.1898 28.6192C79.5837 28.1774 80.3511 27.2429 80.4725 25.8401C80.6115 24.2227 79.8565 21.4173 77.2693 18.8301C74.1559 15.7166 69.4091 14.1801 68.0293 13.7841C65.5407 13.0696 60.2712 12.1632 57.3514 11.6862C56.3376 11.5208 55.4963 10.9118 55.257 10.1709C55.0704 9.59006 55.2605 8.97582 55.7938 8.44078C56.4837 7.75086 57.4271 7.58014 58.2613 7.42878C59.0709 7.28094 59.7714 7.15422 60.1603 6.63502C60.94 5.59662 60.5863 3.78734 59.4299 2.91438C58.2807 2.04494 52.3354 0.43806 47.2331 0.53134C40.4888 0.65102 34.9079 2.54302 30.6469 6.15278C25.74 10.3134 23.1229 14.2928 22.1637 19.0571C21.4667 22.519 21.6392 24.8035 21.7923 26.8205C21.8363 27.3995 21.8768 27.9469 21.8979 28.4995C21.9912 31.0656 21.8275 33.7637 21.472 35.5395C21.4368 35.7173 21.3981 35.9056 21.3559 36.1062C20.9915 37.8785 20.4407 40.559 20.8103 42.5689C21.1499 44.4134 21.9437 46.4568 25.425 48.8961C28.4803 51.0381 31.7381 52.1222 31.9599 52.1961Z" fill="#B5B5C6"/>
<path d="M35.3795 24.8405C29.8425 25.8613 25.4355 27.0616 23.0401 27.7726C23.0542 27.9997 23.0665 28.2267 23.0753 28.459C23.1721 31.1483 23.0049 33.8833 22.6265 35.7718C22.5913 35.9513 22.5508 36.1414 22.5104 36.3421C22.3168 37.2766 22.0756 38.4769 21.9507 39.6649C25.3862 39.1229 31.7627 38.2816 32.0689 37.9753C32.4896 37.5547 33.8131 34.1051 33.8131 34.1051L36.7012 33.6246C36.7012 33.6246 39.0896 37.2696 39.5683 37.3347C40.2318 37.4262 42.4406 37.1129 45.3288 36.8137C48.2169 36.5145 52.3899 35.9865 52.8422 35.7718C53.2628 35.5712 56.9324 29.3549 57.3724 29.1753C57.86 28.9765 62.6683 30.6256 65.8046 31.7045C66.5297 30.5446 67.5576 29.5925 68.7051 28.8902C63.6521 26.3523 56.1616 23.4254 54.8662 23.2195C53.3649 22.9749 43.8609 23.2758 35.3795 24.8405Z" fill="#F26F28"/>
<path d="M26.8593 37.1165L26.444 29.1613L30.4515 28.5787L30.8686 36.5339L26.8593 37.1165Z" fill="#221D51" stroke="#221D51" stroke-width="0.25" stroke-miterlimit="10"/>
<path d="M28.3377 32.6425L28.1547 29.4869L29.9164 29.2563L30.0995 32.412L28.3377 32.6425Z" fill="#F6F7FB" stroke="#221D51" stroke-width="0.25" stroke-miterlimit="10"/>
<path d="M27.2923 36.4142L27.2008 34.8355L28.0826 34.7193L28.1723 36.2981L27.2923 36.4142Z" fill="#F6F7FB" stroke="#221D51" stroke-width="0.25" stroke-miterlimit="10"/>
<path d="M44.1953 34.3515L43.7623 26.2977L48.0092 25.9493L48.4369 33.9256L44.1953 34.3515Z" fill="#221D51" stroke="#221D51" stroke-width="0.25" stroke-miterlimit="10"/>
<path d="M46.0856 29.8477L45.9166 26.7008L47.5763 26.5653L47.7435 29.6822L46.0856 29.8477Z" fill="#F6F8FC" stroke="#221D51" stroke-width="0.25" stroke-miterlimit="10"/>
<path d="M44.7075 33.6686L44.6212 32.0582L45.4695 31.9878L45.5558 33.5824L44.7075 33.6686Z" fill="#F6F8FC" stroke="#221D51" stroke-width="0.25" stroke-miterlimit="10"/>
<path d="M34.2989 45.2459C32.553 45.2459 31.3896 43.5053 31.2611 43.3046L32.6603 42.4105L31.9598 42.8576L32.6585 42.407C32.8627 42.7203 33.6054 43.6021 34.3305 43.5845C35.0328 43.5598 35.6611 42.6886 36.0677 41.9617L37.4545 41.8632C37.6886 42.1677 38.4666 42.9438 39.2216 42.884C39.9538 42.8224 40.5574 41.9565 40.9341 41.2419L42.4019 42.0181C41.5677 43.595 40.5416 44.4433 39.3501 44.5384C38.3521 44.6176 37.5073 44.1459 36.9318 43.6795C36.1733 44.6897 35.3162 45.216 34.3763 45.2441C34.3517 45.2459 34.327 45.2459 34.2989 45.2459Z" fill="#221D51" stroke="#221D51" stroke-width="0.25" stroke-miterlimit="10"/>
<path d="M25.1257 24.6011C24.9251 24.6011 24.7192 24.5941 24.5062 24.5817L24.6259 22.6598C28.4451 22.8974 29.1808 20.4211 29.2195 20.1342L30.8651 20.3349C30.6909 21.8573 29.2565 24.6011 25.1257 24.6011Z" fill="#221D51" stroke="#221D51" stroke-width="0.25" stroke-miterlimit="10"/>
<path d="M42.8032 20.0867C42.673 19.9353 42.5427 19.7752 42.4125 19.6062L43.9437 18.4393C46.2651 21.4806 48.6182 20.4141 48.8611 20.2574L49.7886 21.632C48.5232 22.4944 45.5101 23.2072 42.8032 20.0867Z" fill="#221D51" stroke="#221D51" stroke-width="0.25" stroke-miterlimit="10"/>
<path d="M54.3224 50.9377C54.3224 50.9377 53.5445 50.3429 53.1467 49.8518C52.7595 49.3749 50.8024 48.1869 50.4046 49.7321C50.0051 51.2757 53.1467 52.2736 53.1467 52.2736L54.3224 50.9377Z" fill="#221D51"/>
<path d="M27.808 51.0785C27.808 51.0785 28.5401 50.4291 28.9045 49.9117C29.2565 49.4083 31.1238 48.0848 31.6325 49.5984C32.1411 51.1102 29.0769 52.3299 29.0769 52.3299L27.808 51.0785Z" fill="#221D51"/>
<path d="M59.7942 55.1125C59.7942 55.1125 64.2189 66.1565 57.4253 69.5533C52.3354 72.0982 48.6869 64.9667 48.6869 64.9667L59.7942 55.1125Z" fill="#223F99"/>
<path d="M22.3221 55.9485C22.3221 55.9485 19.6504 67.5416 26.8857 69.8525C32.3065 71.5843 34.8145 63.9758 34.8145 63.9758L22.3221 55.9485Z" fill="#223F99"/>
<path d="M34.2531 48.9331H32.2889V50.4749H34.2531V48.9331Z" fill="#616363"/>
<path d="M34.7881 48.5846H31.7539V49.2798H34.7881V48.5846Z" fill="#4D4E50"/>
<path d="M51.2758 41.2982H50.5366H46.7614H46.0222C45.3886 41.2982 44.8729 41.8121 44.8729 42.4475V43.3997V46.7489V47.7011C44.8729 48.3347 45.3868 48.8504 46.0222 48.8504H46.7614H50.5366H51.2758C51.9094 48.8504 52.4251 48.3365 52.4251 47.7011V46.7489V43.3997V42.4475C52.4233 41.8121 51.9094 41.2982 51.2758 41.2982Z" fill="#838285"/>
<path d="M45.1844 43.5352V46.6081L48.6499 45.0734L45.1844 43.5352Z" fill="#DEDEDD"/>
<path d="M46.9163 48.5353H50.3799L48.6499 45.0734L46.9163 48.5353Z" fill="#DEDEDD"/>
<path d="M50.3799 41.608H46.9163L48.6499 45.0734L50.3799 41.608Z" fill="#DEDEDD"/>
<path d="M52.1118 46.6081V43.5352L48.6499 45.0734L52.1118 46.6081Z" fill="#DEDEDD"/>
<path d="M50.3799 48.5353H51.0575C51.6401 48.5353 52.1117 48.0637 52.1117 47.4811V46.6081L48.6481 45.0717L50.3799 48.5353Z" fill="#D5D4D4"/>
<path d="M45.1844 46.6081V47.4811C45.1844 48.0637 45.6561 48.5353 46.2387 48.5353H46.9163L48.6481 45.0717L45.1844 46.6081Z" fill="#D5D4D4"/>
<path d="M46.9163 41.608H46.2387C45.6561 41.608 45.1844 42.0797 45.1844 42.6622V43.5352L48.6481 45.0717L46.9163 41.608Z" fill="#D5D4D4"/>
<path d="M51.0575 41.608H50.3799L48.6481 45.0717L52.1117 43.5352V42.6622C52.1117 42.0797 51.6401 41.608 51.0575 41.608Z" fill="#D5D4D4"/>
<path d="M48.6499 46.9373C49.6792 46.9373 50.5137 46.1028 50.5137 45.0734C50.5137 44.044 49.6792 43.2096 48.6499 43.2096C47.6205 43.2096 46.786 44.044 46.786 45.0734C46.786 46.1028 47.6205 46.9373 48.6499 46.9373Z" fill="#CBCACC"/>
<path d="M48.6498 48.7113L46.7614 48.8469L47.4372 49.7797H48.6498H49.859L50.5366 48.8469L48.6498 48.7113Z" fill="#838285"/>
<path d="M52.2403 50.8075C52.2403 50.32 51.846 49.9257 51.3585 49.9257H31.0534C30.5659 49.9257 30.1716 50.32 30.1716 50.8075V53.0797H52.2385L52.2403 50.8075Z" fill="#D0CFD3"/>
<path d="M45.6262 53.0339H36.784C36.6643 53.0339 36.5675 52.9371 36.5675 52.8174V49.315C36.5675 49.1953 36.6643 49.0985 36.784 49.0985H45.6262C45.7459 49.0985 45.8427 49.1953 45.8427 49.315V52.8174C45.8427 52.9371 45.7459 53.0339 45.6262 53.0339Z" fill="#4D4E50"/>
<path d="M42.9563 52.4936H39.4539C39.3342 52.4936 39.2374 52.3968 39.2374 52.2771V48.7747C39.2374 48.655 39.3342 48.5582 39.4539 48.5582H42.9563C43.076 48.5582 43.1728 48.655 43.1728 48.7747V52.2771C43.1728 52.3968 43.076 52.4936 42.9563 52.4936Z" fill="#D5D4D4"/>
<path d="M41.2068 52.0905C42.07 52.0905 42.7697 51.3908 42.7697 50.5277C42.7697 49.6645 42.07 48.9648 41.2068 48.9648C40.3436 48.9648 39.6439 49.6645 39.6439 50.5277C39.6439 51.3908 40.3436 52.0905 41.2068 52.0905Z" fill="#4D4E50"/>
<path d="M30.1716 53.0797V63.0694C30.1716 63.5569 30.5659 63.9512 31.0534 63.9512H51.3568C51.8443 63.9512 52.2385 63.5569 52.2385 63.0694V53.0797H30.1716Z" fill="#FDC83A"/>
<path d="M52.2614 54.94H30.1505V60.3361H52.2614V54.94Z" fill="#FDC83A"/>
<path d="M41.2051 63.0624C43.8597 63.0624 46.0117 60.9104 46.0117 58.2558C46.0117 55.6012 43.8597 53.4493 41.2051 53.4493C38.5505 53.4493 36.3986 55.6012 36.3986 58.2558C36.3986 60.9104 38.5505 63.0624 41.2051 63.0624Z" fill="#FAFDFF"/>
<path d="M41.2051 62.6101C43.6089 62.6101 45.5576 60.6614 45.5576 58.2576C45.5576 55.8538 43.6089 53.9051 41.2051 53.9051C38.8013 53.9051 36.8527 55.8538 36.8527 58.2576C36.8527 60.6614 38.8013 62.6101 41.2051 62.6101Z" fill="#2C3433"/>
<path d="M41.2051 62.1384C43.3484 62.1384 45.0859 60.4009 45.0859 58.2576C45.0859 56.1143 43.3484 54.3768 41.2051 54.3768C39.0618 54.3768 37.3243 56.1143 37.3243 58.2576C37.3243 60.4009 39.0618 62.1384 41.2051 62.1384Z" fill="#93C9DA"/>
<path d="M41.2052 61.3728C42.9256 61.3728 44.3204 59.9781 44.3204 58.2576C44.3204 56.5371 42.9256 55.1424 41.2052 55.1424C39.4847 55.1424 38.09 56.5371 38.09 58.2576C38.09 59.9781 39.4847 61.3728 41.2052 61.3728Z" fill="#2C3433"/>
<path d="M41.2051 60.6723C42.5387 60.6723 43.6198 59.5912 43.6198 58.2576C43.6198 56.924 42.5387 55.8429 41.2051 55.8429C39.8715 55.8429 38.7904 56.924 38.7904 58.2576C38.7904 59.5912 39.8715 60.6723 41.2051 60.6723Z" fill="#4D4E50"/>
<path d="M41.2051 59.6726C41.9866 59.6726 42.6201 59.0391 42.6201 58.2576C42.6201 57.4761 41.9866 56.8425 41.2051 56.8425C40.4236 56.8425 39.79 57.4761 39.79 58.2576C39.79 59.0391 40.4236 59.6726 41.2051 59.6726Z" fill="#2C3433"/>
<path d="M43.0796 56.1878C43.0796 56.5328 42.7997 56.8126 42.4548 56.8126C42.1098 56.8126 41.83 56.5328 41.83 56.1878C41.83 55.8429 42.1098 55.563 42.4548 55.563C42.7997 55.563 43.0796 55.8429 43.0796 56.1878Z" fill="#FAFDFF"/>
<path d="M39.6721 59.6216C39.6721 59.7941 39.5313 59.9331 39.3606 59.9331C39.1881 59.9331 39.0491 59.7923 39.0491 59.6216C39.0491 59.4491 39.1899 59.3101 39.3606 59.3101C39.5313 59.3101 39.6721 59.4509 39.6721 59.6216Z" fill="#FAFDFF"/>
<path d="M34.7177 62.1384H31.423C31.3332 62.1384 31.2593 62.0662 31.2593 61.9747V58.68C31.2593 58.5902 31.3314 58.5163 31.423 58.5163H34.7177C34.8074 58.5163 34.8814 58.5885 34.8814 58.68V61.9747C34.8796 62.0645 34.8074 62.1384 34.7177 62.1384Z" fill="#4D4E50"/>
<path d="M54.326 50.8885C54.326 50.8885 52.2633 50.98 51.9887 52.3545C51.7141 53.7291 50.9802 61.3376 51.9887 62.5291C52.9972 63.7206 55.4717 64.4088 57.7175 62.5291C59.9633 60.6494 62.5293 51.6382 54.326 50.8885Z" fill="#221D51"/>
<path d="M27.9065 50.8885C27.9065 50.8885 29.9692 50.98 30.2438 52.3545C30.5184 53.7291 31.2523 61.3376 30.2438 62.5291C29.2353 63.7206 26.7608 64.4088 24.515 62.5291C22.2692 60.6494 19.7032 51.6382 27.9065 50.8885Z" fill="#221D51"/>
</g>
<defs>
<clipPath id="clip0_1757_16141">
<rect width="88" height="88" fill="white"/>
</clipPath>
</defs>
</svg>
