<svg width="89" height="88" viewBox="0 0 89 88" fill="none" xmlns="http://www.w3.org/2000/svg">
<path d="M53.3051 69.4718C53.8553 65.2563 53.1488 57.5574 53.1488 57.5574C50.5211 58.4597 47.2266 59.0636 43.0414 59.2315C36.774 59.4833 33.0481 58.6252 31.043 58.1799C31.043 58.1799 29.5904 60.6491 29.7279 65.0931C29.8655 69.5371 32.6704 79.2902 34.0927 82.8366L41.267 87.0241H43.1346L49.3623 83.4894C51.083 78.3646 52.7641 72.5542 53.3051 69.4718Z" fill="#223F99"/>
<path d="M85.3365 29.9492L84.8492 30.6277C85.0358 30.4295 85.1967 30.201 85.3365 29.9492Z" fill="#F9FAFA"/>
<path d="M44.0556 59.2338L40.5698 66.9001L39.1872 63.8737H36.2261L39.3877 71.2835H41.7566L48.1522 58.905C46.9071 59.0612 45.5711 59.1755 44.1209 59.2338C44.0975 59.2338 44.0789 59.2338 44.0556 59.2338Z" fill="#F26F28"/>
<path d="M30.8914 58.2473C30.8914 58.2473 24.328 62.4512 23.7987 67.1004C23.2694 71.7496 24.0388 75.9791 35.7551 74.762L37.8209 67.1237L33.9505 65.3447L30.8914 58.2473Z" fill="#223F99"/>
<path d="M36.1772 66.7178C36.1772 66.7178 37.8163 65.9041 38.208 65.5684C38.5997 65.2326 39.3132 61.2339 40.4324 60.9541C41.5515 60.6743 41.8033 61.5976 41.8873 62.1852C41.9712 62.7728 41.8873 71.2108 41.8873 71.2108C41.8873 71.2108 41.8733 73.0365 39.7539 74.0437C39.1896 74.3119 36.3427 74.8178 33.8409 74.974C31.465 75.1209 28.4806 74.6569 28.4806 74.6569L34.8365 72.6238L35.2026 68.5715L30.7865 66.8018C30.7842 66.8018 34.8062 66.8018 36.1772 66.7178Z" fill="#221D51"/>
<path d="M52.6614 57.7859C52.6614 57.7859 59.4557 62.4514 59.985 67.103C60.5142 71.7522 59.7448 75.9817 48.0285 74.7646L45.7599 66.3802L52.6614 57.7859Z" fill="#223F99"/>
<path d="M47.6065 66.7186C47.6065 66.7186 45.9674 65.9048 45.5757 65.5691C45.184 65.2333 44.4705 61.2347 43.3514 60.9549C42.2322 60.6751 41.9804 61.5984 41.8964 62.1859C41.8125 62.7735 41.8964 71.2116 41.8964 71.2116C41.8964 71.2116 41.9104 73.0372 44.0298 74.0445C44.5941 74.3126 47.441 74.8185 49.9428 74.9748C52.3187 75.1217 55.3031 74.6577 55.3031 74.6577L48.9472 72.6245L48.5811 68.5722L52.9972 66.8025C52.9995 66.8025 48.9775 66.8025 47.6065 66.7186Z" fill="#221D51"/>
<path d="M82.1469 20.8023C79.2208 17.8738 74.8444 15.9898 71.6827 15.0805C68.5187 14.1712 61.3514 12.9937 59.703 12.7256C58.0545 12.4575 56.7092 11.0095 58.1222 9.5966C59.5351 8.18365 62.0252 8.89013 63.0348 7.54246C64.0444 6.1948 63.5385 4.01009 62.1605 2.96554C60.7802 1.92098 54.0162 0.139639 48.3294 0.239897C42.6427 0.340156 35.5406 1.55259 29.5857 6.6005C23.6285 11.6484 21.0031 16.1904 19.9935 21.2056C18.9839 26.2209 19.5902 29.0468 19.6904 31.84C19.7907 34.6333 19.6228 37.6271 19.2194 39.6462C18.8161 41.6654 18.007 45.0649 18.478 47.6226C18.949 50.1804 20.1614 52.3674 23.7614 54.8926C27.3614 57.4177 31.1642 58.6278 31.1642 58.6278C31.2948 58.6558 31.4347 58.6861 31.5839 58.7187C33.5891 59.164 37.315 60.0221 43.5823 59.7703C47.7675 59.6024 51.0597 58.9985 53.6898 58.0962C55.1913 57.5809 56.4737 56.9677 57.5766 56.2822C58.1641 55.9161 58.7051 55.5314 59.197 55.128C62.2258 52.6379 64.2776 49.9799 65.9936 46.5454C66.3061 45.9229 66.5882 45.3213 66.8587 44.7315C68.0804 42.0711 68.9524 39.6952 69.9993 37.1911C71.277 34.1297 75.2151 32.0429 78.041 32.346C80.8669 32.6491 81.676 32.6818 83.0539 32.2457C84.4342 31.8074 85.6443 30.8328 85.8145 28.8812C85.9824 26.9274 85.0754 23.7284 82.1469 20.8023Z" fill="#F6F7FB"/>
<path d="M41.3766 60.0476C36.4919 60.0476 33.4048 59.3598 31.6421 58.9704L31.1152 58.8562C31.0546 58.8375 27.2144 57.5994 23.6284 55.0836C20.3549 52.787 18.7974 50.6396 18.2494 47.6645C17.8158 45.3142 18.4453 42.2575 18.8626 40.236C18.9093 40.0122 18.9536 39.8 18.9932 39.5995C19.3826 37.6503 19.5621 34.6798 19.4595 31.8469C19.4386 31.236 19.3919 30.6275 19.343 29.9817C19.1704 27.6944 18.9746 25.0993 19.7673 21.1589C20.8655 15.7029 23.8476 11.1587 29.4364 6.42085C34.2978 2.29859 40.6538 0.139529 48.327 0.00429633C54.2423 -0.100626 60.934 1.74134 62.3027 2.77657C63.8368 3.9377 64.2752 6.27629 63.2236 7.67992C62.6641 8.42836 61.7431 8.59623 60.7685 8.77344C59.8708 8.93665 58.9428 9.10686 58.29 9.7597C57.833 10.2167 57.6698 10.6993 57.819 11.1587C58.0242 11.7929 58.8146 12.3431 59.7426 12.4923C62.3703 12.919 68.8008 14.0055 71.7503 14.8542C73.7695 15.4348 78.8453 17.1625 82.3148 20.6343C84.2034 22.5205 86.3134 25.8174 86.05 28.8975C85.8961 30.6741 84.8842 31.9076 83.1285 32.4648C81.7202 32.9101 80.9018 32.8845 78.02 32.5744C75.3806 32.2923 71.4845 34.2415 70.2184 37.2772C69.8594 38.1376 69.5143 38.9956 69.1809 39.828C68.5397 41.4251 67.8798 43.0736 67.0754 44.8246C66.8516 45.3119 66.5508 45.9601 66.2057 46.6456C64.4337 50.1919 62.319 52.8616 59.3485 55.3028C58.8542 55.7085 58.2993 56.1025 57.7024 56.4756C56.5436 57.1961 55.2193 57.8139 53.7667 58.3129C50.9664 59.2735 47.5436 59.8401 43.5939 59.9986C42.8152 60.0336 42.076 60.0476 41.3766 60.0476ZM48.8004 0.468284C48.6441 0.468284 48.4879 0.470616 48.334 0.472948C40.7727 0.605849 34.5147 2.7276 29.7372 6.77759C24.2323 11.4408 21.2992 15.9058 20.222 21.2498C19.4409 25.1273 19.6344 27.6874 19.8046 29.9467C19.8536 30.5972 19.9002 31.2104 19.9235 31.8306C20.0261 34.6961 19.8443 37.7086 19.4479 39.6904C19.4082 39.8909 19.3639 40.1031 19.3173 40.3293C18.9093 42.3158 18.2914 45.3189 18.7064 47.5782C19.0888 49.6557 19.9818 51.9546 23.8942 54.6989C27.4219 57.1727 31.1968 58.3898 31.2341 58.4015L31.7424 58.5111C33.7359 58.9541 37.4478 59.7795 43.5729 59.5323C47.4784 59.3761 50.8568 58.8165 53.6151 57.8699C55.0327 57.3826 56.3244 56.781 57.4553 56.0792C58.0335 55.7178 58.5721 55.3354 59.0501 54.9437C61.9669 52.5445 64.0444 49.9215 65.7861 46.4381C66.1265 45.7572 66.4249 45.1161 66.6488 44.6311C67.4485 42.8894 68.1083 41.2456 68.7472 39.6531C69.0806 38.8207 69.4257 37.958 69.7871 37.0977C71.1301 33.8801 75.2687 31.8073 78.0689 32.1104C80.8738 32.4112 81.6619 32.4392 82.9863 32.0195C84.5717 31.5158 85.4461 30.4526 85.586 28.8578C85.7422 27.0322 84.8935 23.8705 81.986 20.963C78.4979 17.4703 73.1702 15.7449 71.622 15.2996C68.6959 14.4579 62.2887 13.376 59.6703 12.9517C58.5581 12.7721 57.6371 12.1076 57.376 11.3009C57.2338 10.8579 57.2174 10.1724 57.9612 9.42862C58.719 8.67085 59.7635 8.48199 60.6869 8.31411C61.5682 8.15323 62.4006 8.00168 62.8529 7.40013C63.7436 6.21334 63.3402 4.14521 62.0252 3.14962C60.7638 2.20066 54.4195 0.468284 48.8004 0.468284Z" fill="#B5B5C6"/>
<path d="M35.0672 27.7341C28.8721 28.8766 23.9408 30.2196 21.2618 31.0147C21.2781 31.2688 21.2921 31.523 21.3014 31.7818C21.411 34.7919 21.2221 37.8509 20.8001 39.9634C20.7605 40.1639 20.7162 40.3784 20.6696 40.6022C20.4551 41.6468 20.1823 42.9898 20.0424 44.3188C23.8872 43.7126 31.0195 42.7706 31.3646 42.4279C31.8356 41.9569 33.3161 38.0981 33.3161 38.0981L36.5477 37.5595C36.5477 37.5595 39.2198 41.6374 39.756 41.7097C40.4975 41.81 42.9713 41.4626 46.2006 41.1268C49.4298 40.7911 54.1023 40.2012 54.6083 39.961C55.0793 39.7372 59.1852 32.782 59.6772 32.5792C60.2205 32.3554 65.6041 34.202 69.1132 35.4097C69.9246 34.111 71.074 33.0455 72.3588 32.2621C66.7046 29.4222 58.3249 26.1486 56.8746 25.9155C55.1912 25.6473 44.5568 25.9854 35.0672 27.7341Z" fill="#F26F28"/>
<path d="M36.4195 52.561C33.4001 52.561 32.0385 49.8097 31.733 48.2662L34.3747 47.7439L33.055 48.0051L34.3747 47.7369C34.4237 47.9748 34.918 50.0452 36.7017 49.854C37.4338 49.7748 37.9747 49.502 38.3524 49.024C38.8817 48.3525 38.9656 47.4362 38.9237 47.1004L41.5934 46.76C41.6959 47.5597 41.5724 49.2898 40.4672 50.6911C39.6418 51.7356 38.441 52.3722 36.9931 52.5307C36.7926 52.5494 36.6014 52.561 36.4195 52.561Z" fill="#221D51"/>
<path d="M42.5424 33.4186C42.5424 33.4186 43.7408 34.4888 46.6203 34.2743C49.4998 34.0598 50.6726 32.6702 50.6726 32.6702" stroke="#221D51" stroke-width="10" stroke-miterlimit="10"/>
<path d="M24.2253 36.2934C24.2253 36.2934 25.0414 37.0209 26.9999 36.8763C28.9585 36.7318 29.7582 35.7852 29.7582 35.7852" stroke="#221D51" stroke-width="10" stroke-miterlimit="10"/>
<path d="M35.3518 81.0668C35.3518 81.0668 30.4601 78.3878 29.0495 79.8824C27.6388 81.3769 27.0816 85.0282 30.9171 86.0098C30.9171 86.0098 36.6994 87.2269 37.4898 87.4088L37.9981 85.1914L35.3518 81.0668Z" fill="#223F99"/>
<path d="M39.9076 83.2096C39.9076 83.2096 40.9079 82.4146 41.4372 82.333C42.1949 82.2164 42.1739 82.9788 41.9758 83.8531L41.1294 87.5557C41.0268 88.0081 40.6048 88.1666 39.1848 87.7866C38.8374 87.6933 38.2032 87.5534 37.4944 87.4065L38.0004 85.1915L35.3517 81.0669C35.8833 81.398 35.7294 81.3257 37.3265 82.1115C38.6089 82.7433 39.9076 83.2096 39.9076 83.2096Z" fill="#221D51"/>
<path d="M50.9057 79.9991C50.9057 79.9991 53.9647 78.4369 55.3567 79.9478C56.751 81.4586 57.2663 85.1146 53.4192 86.0542C53.4192 86.0542 47.6228 87.2084 46.8301 87.3786L46.3474 85.1566L49.0311 81.0669" fill="#223F99"/>
<path d="M44.4635 83.1537C44.4635 83.1537 43.4726 82.3469 42.9433 82.2607C42.1879 82.1371 42.1995 82.8972 42.3884 83.7739L43.1951 87.4858C43.2931 87.9404 43.7127 88.1013 45.1373 87.7399C45.4848 87.6513 46.1213 87.5184 46.8324 87.3785L46.3498 85.1565L49.0334 81.0669C48.4972 81.3933 48.1614 81.5519 47.0563 82.0835C45.7669 82.7037 44.4635 83.1537 44.4635 83.1537Z" fill="#221D51"/>
</svg>
