<svg width="89" height="88" viewBox="0 0 89 88" fill="none" xmlns="http://www.w3.org/2000/svg">
<g clip-path="url(#clip0_2264_18235)">
<path d="M45.3204 87.786C61.8399 87.786 75.2316 84.4764 75.2316 80.394C75.2316 76.3115 61.8399 73.002 45.3204 73.002C28.8009 73.002 15.4092 76.3115 15.4092 80.394C15.4092 84.4764 28.8009 87.786 45.3204 87.786Z" fill="#231F20"/>
<path d="M75.23 80.392C75.23 80.7757 75.1121 81.1506 74.8868 81.5184C72.6815 77.9738 60.2823 75.2563 45.3206 75.2563C30.3571 75.2563 17.9579 77.9738 15.7543 81.5184C15.5273 81.1506 15.4111 80.7757 15.4111 80.392C15.4111 76.3106 28.803 73 45.3223 73C61.8417 73 75.23 76.3106 75.23 80.392Z" fill="#A2A4A7"/>
<path d="M54.2662 60.6289C54.2662 60.6289 58.6451 61.0971 61.9205 63.906C65.1941 66.7132 67.0051 69.7985 66.2571 72.1041C65.5091 74.4097 60.7501 80.4166 53.6767 81.594C46.6015 82.7715 44.632 72.7764 48.4072 71.562C52.1824 70.3476 52.8829 70.1822 52.8829 70.1822L54.2662 60.6289Z" fill="#223F99"/>
<path d="M34.5859 79.0409C35.2494 82.3708 35.4993 82.9904 36.0854 85.4262C36.4972 87.1334 36.5571 92.7812 36.1241 94.9848C34.8287 95.6571 34.5031 96.7712 34.878 96.7712H39.3502C39.7497 96.7712 41.1102 92.6844 41.4974 91.3996C42.1169 89.3492 42.5446 87.8409 42.5446 87.8409L44.1198 87.8497L45.695 87.8409C45.695 87.8409 46.3092 89.3105 47.1734 91.2694C47.3142 91.588 49.7905 96.7729 50.19 96.7729H54.4827C54.8575 96.7729 54.7132 95.6588 53.4161 94.9865C53.4161 94.9865 52.1964 91.0371 51.3886 85.9472C51.158 83.5852 51.0542 82.3515 51.3041 78.8332C51.4995 76.07 52.2651 71.4324 53.8139 68.5003L54.4387 57.5918L33.9663 60.6155C33.9663 60.6155 33.1796 65.7547 33.4929 70.1476C33.8079 74.5388 34.2321 77.2721 34.5859 79.0409Z" fill="#223F99"/>
<path d="M43.1782 72.6597H41.149L38.4438 66.3167H40.98L42.1645 68.9074L45.3078 61.9941H48.6888L43.1782 72.6597Z" fill="#F26F28"/>
<path d="M33.6495 61.5926C33.6495 61.5926 30.3935 60.5559 27.3117 58.3947C24.2299 56.2334 23.1915 54.3607 22.7885 52.1713C22.3855 49.9819 23.0771 47.0726 23.4221 45.3425C23.7671 43.6142 23.9114 41.0499 23.8251 38.658C23.7389 36.2662 23.2197 33.8462 24.0839 29.5535C24.948 25.2609 27.1955 21.3713 32.2943 17.0505C37.393 12.7297 43.472 11.6913 48.3419 11.6051C53.2101 11.5188 59.0005 13.0447 60.1832 13.9388C61.3642 14.8311 61.7954 16.7038 60.933 17.8566C60.0688 19.0094 57.9375 18.4039 56.7266 19.6131C55.5157 20.8222 56.6685 22.0612 58.08 22.2918C59.4915 22.5223 65.6286 23.5308 68.3355 24.3087C70.3226 24.879 69.2067 33.3974 68.0398 38.9238C67.6175 40.9267 67.1863 42.5388 66.8959 43.2358C65.8011 45.8582 64.937 48.3063 63.4674 51.2455C61.9978 54.1847 60.2413 56.4604 57.6488 58.5918C55.0563 60.7231 51.0013 62.2983 44.2816 62.5676C38.5194 62.8017 35.2634 61.9375 33.6495 61.5926Z" fill="#F6F7FB"/>
<path d="M33.6495 61.5926C33.6495 61.5926 30.3935 60.5559 27.3117 58.3947C24.2299 56.2334 23.1915 54.3607 22.7885 52.1713C22.3855 49.9819 23.0771 47.0726 23.4221 45.3425C23.7671 43.6142 23.9114 41.0499 23.8251 38.658C23.7389 36.2662 23.2197 33.8462 24.0839 29.5535C24.948 25.2609 27.1955 21.3713 32.2943 17.0505C37.393 12.7297 43.472 11.6913 48.3419 11.6051C53.2101 11.5188 59.0005 13.0447 60.1832 13.9388C61.3642 14.8311 61.7954 16.7038 60.933 17.8566C60.0688 19.0094 57.9375 18.4039 56.7266 19.6131C55.5157 20.8222 56.6685 22.0612 58.08 22.2918C59.4915 22.5223 65.6286 23.5308 68.3355 24.3087C70.3226 24.879 69.2067 33.3974 68.0398 38.9238C67.6175 40.9267 67.1863 42.5388 66.8959 43.2358C65.8011 45.8582 64.937 48.3063 63.4674 51.2455C61.9978 54.1847 60.2413 56.4604 57.6488 58.5918C55.0563 60.7231 51.0013 62.2983 44.2816 62.5676C38.5194 62.8017 35.2634 61.9375 33.6495 61.5926Z" fill="#F6F7FB"/>
<path d="M42.3738 62.8273C38.2008 62.8273 35.5591 62.2412 34.0525 61.9068C33.8906 61.8716 33.741 61.8382 33.6037 61.8083L33.5826 61.803C33.5492 61.7924 30.2597 60.7312 27.185 58.5751C24.3778 56.6057 23.042 54.763 22.572 52.211C22.2007 50.1976 22.7392 47.5787 23.0948 45.8468C23.1335 45.655 23.1722 45.472 23.2056 45.2995C23.5383 43.6292 23.6914 41.0878 23.6052 38.666C23.5858 38.1433 23.5471 37.6224 23.5048 37.0697C23.357 35.1091 23.188 32.8862 23.8674 29.5105C24.809 24.8342 27.3628 20.9411 32.1517 16.8825C36.3194 13.352 41.7648 11.5022 48.3384 11.3843C51.297 11.3332 54.2168 11.8665 55.6917 12.1886C57.8653 12.6638 59.6799 13.2816 60.3152 13.762C61.637 14.7617 62.0154 16.7752 61.109 17.9878C60.625 18.6337 59.796 18.7851 58.9952 18.9312C58.2296 19.0702 57.4376 19.2145 56.8815 19.7689C56.496 20.1526 56.3588 20.5609 56.482 20.9446C56.6544 21.4814 57.3268 21.946 58.1152 22.0745C60.9207 22.5321 65.9877 23.4051 68.3954 24.0968C71.1445 24.8852 68.5573 37.5291 68.2546 38.9688C67.8322 40.9681 67.401 42.5944 67.0983 43.3195C66.7903 44.0587 66.4946 44.7961 66.2095 45.5107C65.4791 47.3375 64.7223 49.226 63.6645 51.3433C62.1456 54.3811 60.3328 56.6691 57.7896 58.7617C54.7906 61.2275 50.3765 62.5439 44.2922 62.7868C43.6181 62.815 42.981 62.8273 42.3738 62.8273ZM33.7058 61.3806C33.8413 61.4105 33.9874 61.4422 34.1476 61.4774C35.8548 61.8558 39.0316 62.5616 44.2728 62.3486C50.2586 62.1092 54.5882 60.8244 57.5098 58.422C60.0037 56.3716 61.7813 54.1276 63.272 51.1479C64.3228 49.0465 65.076 47.1668 65.8029 45.3488C66.0898 44.6342 66.3855 43.8932 66.6952 43.1523C66.9839 42.4623 67.4168 40.8238 67.8269 38.879C69.2244 32.2579 69.858 24.975 68.2775 24.5209C65.8909 23.8345 60.8432 22.9668 58.0466 22.5092C57.0874 22.3526 56.2901 21.7788 56.0666 21.0801C55.8906 20.5363 56.0719 19.959 56.5735 19.4574C57.2264 18.8044 58.1258 18.6425 58.9196 18.4982C59.6693 18.3627 60.3786 18.2324 60.7605 17.7256C61.5156 16.7153 61.1724 14.9606 60.0548 14.1158C58.9495 13.2816 53.2453 11.738 48.3508 11.826C41.8828 11.9404 36.5288 13.755 32.4421 17.2187C27.7359 21.2068 25.2261 25.026 24.3056 29.5968C23.6386 32.9144 23.804 35.1038 23.9501 37.0363C23.9924 37.5924 24.0328 38.1187 24.0504 38.6502C24.1384 41.1036 23.9836 43.6838 23.6439 45.3857C23.6104 45.5582 23.5717 45.7412 23.5312 45.9348C23.1828 47.6332 22.6548 50.2011 23.0103 52.1318C23.3359 53.9059 24.0997 55.87 27.4437 58.2144C30.3724 60.2736 33.5087 61.3155 33.7058 61.3806Z" fill="#B5B5C6"/>
<path d="M36.9917 35.1459C31.6888 36.1245 27.4665 37.2737 25.1733 37.9549C25.1873 38.1731 25.1997 38.3913 25.2085 38.6113C25.3017 41.188 25.1398 43.8069 24.779 45.6161C24.7456 45.7869 24.7069 45.9699 24.6681 46.1635C24.4833 47.0594 24.251 48.2086 24.1313 49.3456C27.4225 48.8264 33.5297 48.0203 33.8237 47.7264C34.2267 47.3234 35.4939 44.0198 35.4939 44.0198L38.2589 43.5587C38.2589 43.5587 40.5469 47.0488 41.0045 47.1121C41.6398 47.1984 43.7571 46.9009 46.5221 46.6123C49.287 46.3237 53.2857 45.8203 53.7187 45.6126C54.1217 45.4208 57.6365 39.4667 58.0589 39.2942C58.5253 39.1041 63.1329 40.6829 66.1355 41.7177C66.8289 40.6072 67.8145 39.6955 68.9128 39.0232C64.0728 36.5926 56.8973 33.7889 55.6565 33.5901C54.2203 33.3595 45.1158 33.6481 36.9917 35.1459Z" fill="#F26F28"/>
<path d="M32.4016 51.4529C32.4016 51.4529 34.6685 50.3001 37.7415 49.5327C40.8144 48.7654 44.0035 48.4961 44.0035 48.4961C44.0035 48.4961 44.8096 50.6855 44.3872 52.5687C43.9648 54.4502 42.3122 56.2947 39.8165 56.7171C37.3191 57.1377 33.3995 56.8684 32.4016 51.4529Z" fill="#221D51"/>
<path d="M44.771 52.3358C44.771 52.3358 42.006 52.1439 39.8923 53.6804C37.7785 55.2169 37.3948 56.5228 37.0886 57.5982C36.7823 58.6735 40.2777 58.2124 40.2777 58.2124L43.7343 56.7921L45.0403 54.7171L44.771 52.3358Z" fill="#F26F28"/>
<path d="M27.6092 45.8454C27.3117 43.9147 27.486 40.5214 30.0204 40.0498C30.749 39.9142 31.4284 40.0568 31.981 40.4616C33.2658 41.4014 33.5263 43.4853 33.6653 44.6029L33.697 44.8493L31.8701 45.0957L31.8367 44.8299C31.7469 44.1083 31.5375 42.4187 30.8933 41.9488C30.7983 41.8784 30.6505 41.8062 30.3583 41.8608C29.1597 42.0843 29.3234 44.8405 29.4325 45.5656L27.6092 45.8454Z" fill="#221D51"/>
<path d="M43.3718 43.1183C43.1711 41.0239 43.5742 37.3878 46.362 37.0446C47.1663 36.9443 47.9003 37.1467 48.4793 37.6254C49.8099 38.7254 49.9595 40.9676 50.0404 42.1715L50.058 42.4355L47.99 42.5956L47.9689 42.3105C47.9179 41.5467 47.7982 39.755 47.1575 39.2252C47.059 39.1443 46.9182 39.0668 46.6155 39.1038C45.3588 39.2587 45.3676 42.2014 45.4363 42.9212L43.3718 43.1183Z" fill="#221D51"/>
<path d="M27.2044 34.9524C27.0126 34.9524 26.8155 34.9453 26.6113 34.933L26.7257 33.0921C30.383 33.3209 31.0888 30.9484 31.1257 30.6738L32.7027 30.8657C32.5355 32.3229 31.1609 34.9524 27.2044 34.9524Z" fill="#221D51"/>
<path d="M59.2997 41.8574C59.2997 41.8574 55.697 48.1846 59.2997 48.4856C62.9024 48.7865 59.2997 41.8574 59.2997 41.8574Z" fill="#D0D2D3"/>
<path d="M34.848 62.0775C34.848 62.0775 29.9358 60.5744 27.8907 58.7986C25.8456 57.0228 24.5766 55.7732 23.8075 53.7562C23.8075 53.7562 26.796 52.2391 26.8805 48.7596C26.965 45.28 24.2704 42.7527 21.8856 42.4816C21.8856 42.4816 21.7712 41.7829 22.4963 41.6439C23.2214 41.5048 23.2355 41.834 23.987 41.6703C24.7403 41.5066 25.4373 40.792 25.3968 40.0036C25.3546 39.2151 24.7878 38.0711 23.2003 37.7402C21.6146 37.4093 20.0323 38.1274 19.4286 38.6624C18.825 39.1975 17.8939 40.785 17.2621 42.4799C16.6302 44.1748 16.1357 46.4786 15.9931 47.5909C15.8506 48.7032 15.6587 51.3468 16.0917 53.5168C16.5229 55.6869 17.7179 59.258 20.0622 61.6762C22.4066 64.0944 26.0057 66.2557 28.3342 67.4402C30.8528 68.7215 34.3253 70.0256 34.9606 70.2967C35.596 70.5695 35.9462 70.786 35.9462 70.786L34.848 62.0775Z" fill="#223F99"/>
<path d="M25.499 56.7456C25.499 56.7456 23.3289 56.3972 20.0289 50.1685L14.5923 49.1759L16.6356 37.1375L24.2758 34.7949L30.4868 40.8493L31.8508 49.542L29.4185 54.3415L25.499 56.7456Z" fill="#221D51"/>
<path d="M52.1471 80.5412C52.1383 80.5166 52.1347 80.4937 52.1259 80.4691L47.1804 66.5809C47.1452 66.4806 47.1011 66.3926 47.0554 66.3134C48.5144 65.0268 49.1234 62.9359 48.4317 60.9894C47.7559 59.0921 46.0328 57.8707 44.1461 57.7422L45.6544 61.9785L41.9743 63.2897L40.4659 59.0534C39.0843 60.347 38.5194 62.3833 39.1952 64.2788C39.8887 66.2236 41.6821 67.4591 43.6269 67.5331C43.641 67.6246 43.6621 67.7196 43.6991 67.8199L48.6447 81.7081C48.6499 81.7222 48.6552 81.7345 48.6605 81.7486C47.1909 83.0352 46.5767 85.1331 47.2701 87.0832C47.9459 88.9804 49.669 90.2001 51.5575 90.3303L50.0491 86.094L53.7293 84.7846L55.2359 89.0209C56.6175 87.7273 57.1824 85.691 56.5066 83.7955C55.8219 81.8735 54.0637 80.6433 52.1471 80.5412Z" fill="#BBBDBF"/>
<path d="M52.1472 80.5409C52.1384 80.5163 52.1349 80.4934 52.1261 80.4688L51.4995 78.707C51.496 78.8408 51.4889 78.9745 51.4713 79.1101C51.2689 80.6659 50.0053 81.3329 48.6501 81.7219C48.6536 81.7307 48.6571 81.7395 48.6606 81.7483C47.7595 82.5368 47.1822 83.6315 47.0273 84.8089C47.316 84.1877 47.7401 83.6386 48.3403 83.2443C49.4896 82.4893 50.9821 82.2851 52.3302 82.4365C52.9779 82.5086 53.6573 82.6758 54.1237 83.1616C54.6077 83.665 54.9209 84.3021 55.0987 84.9744C55.4331 86.231 55.4648 87.6091 55.1902 88.8904L55.236 89.0206C56.6176 87.727 57.1825 85.6907 56.5067 83.7952C55.8221 81.8733 54.0638 80.643 52.1472 80.5409Z" fill="#A2A4A7"/>
<path d="M43.6252 67.5342C43.6393 67.6257 43.6604 67.7207 43.6974 67.8211L44.4014 69.7958C44.3873 69.5494 44.3838 69.303 44.3943 69.0583C44.426 68.3367 44.6196 67.5342 45.1652 67.022C45.6967 66.5257 46.3814 66.3655 47.0818 66.3638C47.0713 66.3462 47.0642 66.3286 47.0554 66.3127C48.5145 65.0262 49.1234 62.9353 48.4318 60.9887C48.2382 60.4467 47.9583 59.9609 47.6151 59.5403C47.7594 60.0859 47.8633 60.6403 47.9055 61.1999C47.9935 62.3809 47.777 63.6463 46.8847 64.4964C46.3919 64.9681 45.7812 65.2955 45.13 65.4943C44.4207 65.7108 43.6463 65.8815 42.9089 65.7179C41.7015 65.4521 40.6684 64.4929 40.3586 63.2838C40.1017 62.2823 40.3692 61.3355 41.0292 60.6403L40.4642 59.0527C39.0826 60.3463 38.5177 62.3827 39.1935 64.2782C39.8852 66.223 41.6804 67.4585 43.6252 67.5342Z" fill="#A2A4A7"/>
<path d="M50.5279 79.7986C50.6177 80.0502 50.4417 80.3424 50.1337 80.4515C49.8275 80.5606 49.5054 80.4462 49.4156 80.1946L45.1705 68.2741C45.0807 68.0242 45.2585 67.7302 45.5647 67.6211C45.8727 67.512 46.1931 67.6282 46.2828 67.8781L50.5279 79.7986Z" fill="#A2A4A7"/>
<path d="M50.9556 70.7538C50.9556 70.7538 47.5043 68.3725 46.524 70.3895C46.524 70.3895 43.1993 71.6268 44.8924 76.0514C46.5838 80.476 49.9032 81.8383 52.0486 81.6676C54.194 81.4968 56.7003 81.3472 59.2998 79.501L55.5 78.98L52.244 73.4484L53.9353 69.5781L50.9556 70.7538Z" fill="#221D51"/>
<path d="M71.6003 41.0272C69.6802 38.968 63.7472 35.661 59.2064 33.9203C46.3091 28.98 28.9555 23.6085 21.2327 28.8322C22.2904 24.1717 23.3887 19.4144 25.997 15.3682C28.6053 11.3219 33.0458 8.04305 38.1251 7.96385C38.7411 7.95504 39.3888 7.98496 39.9344 7.72976C40.7687 7.33904 41.1136 6.41329 41.7085 5.74097C43.1059 4.16049 46.1507 4.31536 47.4567 6.03312C47.8544 6.55585 48.1149 7.19297 48.664 7.57489C49.2219 7.96209 49.9506 7.99729 50.6317 8.05889C56.4027 8.58161 64.409 13.895 67.7319 18.4464C71.0547 22.9978 70.6412 26.8944 71.1216 32.3434C71.2114 33.3624 71.3962 35.2597 71.7675 36.2277C72.1618 37.2608 71.9875 37.1006 72.3255 38.1496C72.6599 39.1968 71.6003 41.0272 71.6003 41.0272Z" fill="#FADB47"/>
<path d="M76.0145 40.9874C76.1131 40.69 75.9952 40.3644 75.7276 40.2007C64.7012 33.4582 52.5643 28.2151 39.9134 24.7303C32.6868 22.7398 25.0907 21.3106 17.792 22.2962C15.0939 22.6606 11.9241 24.0193 12.1916 26.4604C12.3307 27.7364 13.2617 29.6794 14.3388 30.5788C17.6248 33.3262 23.8094 35.4962 23.8094 35.4962C23.8094 35.4962 23.8024 32.2666 24.1104 30.4855C24.656 26.6522 28.9028 26.3636 32.5742 26.8318C43.1694 28.1817 51.1598 30.2268 61.542 37.0028C67.0051 41.0966 67.0984 43.3212 67.0984 43.3212C70.2347 43.6785 72.1812 41.6017 75.4214 41.4433C75.6924 41.431 75.9283 41.2462 76.0145 40.9874Z" fill="#FBB144"/>
<path d="M47.9919 8.99532C44.5758 12.459 42.1593 16.9171 41.098 21.6638C40.7953 23.0208 40.6017 24.3988 40.5172 25.7857C40.4855 26.2891 39.7058 26.2152 39.7375 25.7118C40.0473 20.6764 41.8143 15.7537 44.7447 11.6494C45.5719 10.4913 46.4959 9.4054 47.4938 8.39164C47.8476 8.03084 48.3439 8.6398 47.9919 8.99532Z" fill="#FBB144"/>
<path d="M39.6582 9.4407C36.2086 12.4098 33.903 16.6409 33.2183 21.1359C33.0265 22.3925 32.9561 23.6721 33.0247 24.941C33.0511 25.4391 32.2785 25.5799 32.2521 25.0765C31.9969 20.3175 33.4964 15.5321 36.4004 11.7516C37.2171 10.6885 38.1446 9.70998 39.1601 8.83526C39.542 8.50614 40.0419 9.11158 39.6582 9.4407Z" fill="#FBB144"/>
<path d="M46.3989 28.2259C46.9868 25.4468 48.1255 22.8051 49.7711 20.4854C51.209 18.4596 53.2313 16.1312 55.8695 15.8566C58.6151 15.5715 60.9207 17.6324 62.3111 19.7902C63.6434 21.8564 64.3333 24.2483 64.6484 26.6718C65.018 29.516 64.9177 32.3988 64.7698 35.2536C64.7434 35.7587 63.9637 35.6812 63.9901 35.1796C64.2295 30.5808 64.4389 25.5595 62.2988 21.332C61.2445 19.2516 59.4018 16.9812 56.9431 16.6504C54.4052 16.3089 52.3653 18.3998 50.9433 20.2249C49.1005 22.5886 47.8017 25.3694 47.1804 28.3016C47.0748 28.7891 46.2933 28.7204 46.3989 28.2259Z" fill="#FBB144"/>
</g>
<defs>
<clipPath id="clip0_2264_18235">
<rect width="88" height="88" fill="white" transform="translate(0.5)"/>
</clipPath>
</defs>
</svg>
