<svg width="88" height="88" viewBox="0 0 88 88" fill="none" xmlns="http://www.w3.org/2000/svg">
<path d="M36.644 75.4499C36.644 75.4499 36.3194 74.2979 36.4979 73.3122C36.7007 72.1906 37.5242 71.0183 38.9379 70.3104C41.5847 68.984 43.1687 69.3572 43.1687 69.3572L44.8825 74.0362L42.0876 76.6546L42.1627 78.9262L40.1284 79.5874L36.644 75.4499Z" fill="#223F99"/>
<path d="M59.4408 33.154C59.4408 33.154 49.8778 31.8884 42.7609 41.6461C37.7735 51.274 40.7347 54.3467 40.7347 54.3467L50.8534 54.1033L56.8203 46.6943L59.4408 33.154Z" fill="#223F99"/>
<path d="M50.2693 35.0969C50.2693 35.0969 54.346 32.6143 59.7024 33.1924C58.4348 34.9164 54.7739 34.9204 54.7739 34.9204L50.2693 35.0969Z" fill="#221D51"/>
<path d="M38.8871 69.7083C40.5766 71.7446 41.9355 73.2069 43.3492 74.5922L49.1356 76.59L50.4235 75.9044C49.4094 74.4076 48.3669 73.0041 47.4989 71.4566L49.4175 70.4141C49.4175 70.4141 52.5572 72.7993 53.9222 74.0426L55.9605 72.9575L55.275 68.3514C52.6282 63.1085 49.4926 56.7886 48.5292 53.8356C47.363 50.7264 44.0509 45.6761 44.0509 45.6761C42.5683 47.2622 40.5198 48.8868 37.6945 50.5377C34.782 52.2394 32.62 53.0101 30.8494 53.5354C30.8494 53.5354 29.9448 56.9834 29.8129 61.5022C29.6811 66.021 30.6851 69.8645 33.0439 70.9293C35.4027 71.9941 36.9482 71.4627 37.729 70.9435C38.5078 70.4242 38.8871 69.7083 38.8871 69.7083Z" fill="#223F99"/>
<path d="M41.4873 50.7688L41.8949 57.3341L39.8302 55.7541L37.7878 56.8412L42.6859 60.7921L44.3207 59.9241L44.1909 49.0407C43.3897 49.6066 42.5095 50.1745 41.5319 50.7465C41.5157 50.7525 41.5015 50.7607 41.4873 50.7688Z" fill="#F26F28"/>
<path d="M37.9418 68.1323C39.3534 70.0489 39.0086 70.1463 39.0086 70.1463C36.4572 71.7871 36.5464 71.8256 35.3964 72.4584C35.2747 72.5253 34.1065 72.1095 34.1065 72.1095L33.0437 70.9271L35.6378 69.6433C35.6378 69.6433 36.5302 66.2156 37.9418 68.1323Z" fill="#221D51"/>
<path d="M52.6504 12.8112L52.6362 13.4642C52.6687 13.2553 52.6707 13.0363 52.6504 12.8112Z" fill="#FCFCFC"/>
<path d="M54.4495 14.105C51.4579 12.8779 47.7361 12.8394 45.1826 13.1375C42.6291 13.4357 37.1084 14.7479 35.8387 15.0521C34.5691 15.3543 33.1635 14.7175 33.7558 13.2734C34.348 11.8293 36.3559 11.588 36.6784 10.3122C37.0009 9.0365 35.9766 7.6127 34.6684 7.27805C33.3603 6.9434 27.947 7.69586 23.8784 9.48473C19.8098 11.2736 15.0578 14.2855 12.2872 19.719C9.51673 25.1526 8.99548 29.2171 9.77836 33.1356C10.5633 37.0541 11.8512 38.9078 12.7659 40.8894C13.6806 42.8709 14.4635 45.0817 14.7799 46.6576C15.0983 48.2335 15.5405 50.927 16.6519 52.6286C17.7634 54.3303 19.2947 55.5411 22.6514 56.2733C26.008 57.0055 29.1132 56.7337 29.1132 56.7337C31.6241 56.4842 34.5792 56.107 38.9804 53.9551C42.8259 52.0749 46.4908 48.8298 47.44 47.0815C47.6976 46.6069 48.0282 46.1992 48.2594 45.7611C49.6913 43.0535 50.3687 40.5182 50.5716 37.5266C50.6081 36.9831 50.6304 36.4659 50.6486 35.9588C50.7257 33.6751 50.6385 31.6996 50.6365 29.5781C50.6344 26.9861 52.8432 24.2947 54.9707 23.6619C57.0983 23.0291 57.6906 22.808 58.5546 22.0778C59.4166 21.3457 59.9966 20.2788 59.5281 18.8205C59.0616 17.3623 57.4431 15.332 54.4495 14.105Z" fill="#F5F7FB"/>
<path d="M27.655 56.9832C26.4178 56.9832 24.5478 56.894 22.6068 56.4701C19.5523 55.8028 17.7776 54.7218 16.4816 52.7382C15.4594 51.1724 14.9909 48.7792 14.6806 47.1972C14.6461 47.0207 14.6136 46.8524 14.5812 46.6962C14.277 45.1771 13.5103 42.9826 12.5814 40.9726C12.3826 40.5406 12.1656 40.1167 11.9364 39.6685C11.1211 38.0703 10.1962 36.2591 9.57762 33.1742C8.72375 28.9048 9.50461 24.7267 12.1048 19.6258C14.3682 15.1881 18.3009 11.7138 23.7953 9.2982C28.0302 7.43631 33.411 6.74672 34.7172 7.08137C36.1856 7.45659 37.2119 9.02033 36.8732 10.361C36.6926 11.0769 36.0477 11.4947 35.423 11.9004C34.8267 12.2878 34.2122 12.6873 33.9404 13.3485C33.7518 13.8069 33.7801 14.1963 34.0195 14.4762C34.3541 14.8656 35.0802 15.0218 35.7901 14.8514C37.8102 14.3667 42.7651 13.2126 45.1584 12.9327C46.7911 12.7421 50.9712 12.4561 54.5266 13.9144C56.4615 14.7074 58.9846 16.4517 59.7208 18.7557C60.1488 20.0882 59.7918 21.2909 58.6865 22.23C57.7981 22.9804 57.1998 23.2076 55.0296 23.8546C53.0501 24.4428 50.8373 27.0145 50.8393 29.5762C50.8393 30.2982 50.8515 31.0182 50.8617 31.7118C50.8819 33.0606 50.9022 34.454 50.8515 35.963C50.8353 36.4173 50.813 36.9588 50.7744 37.5368C50.5655 40.6298 49.8455 43.1955 48.44 45.8525C48.3183 46.0816 48.1702 46.3047 48.0262 46.5218C47.8863 46.7307 47.7423 46.9477 47.6206 47.1749C46.4098 49.4038 42.1444 52.6327 39.0717 54.1336C34.778 56.2328 31.9223 56.6547 29.1356 56.9325C29.1193 56.9366 28.5535 56.9832 27.655 56.9832ZM33.7903 7.40386C31.7945 7.40386 27.4258 8.14821 23.9596 9.67139C18.5524 12.0484 14.6867 15.4599 12.4678 19.8124C9.91228 24.8261 9.14359 28.9231 9.97718 33.0971C10.5836 36.1272 11.4943 37.9121 12.2995 39.488C12.5307 39.9403 12.7477 40.3662 12.9505 40.8063C13.8916 42.8426 14.6684 45.0716 14.9787 46.6191C15.0112 46.7753 15.0436 46.9436 15.0781 47.1221C15.3823 48.6737 15.8427 51.0203 16.8224 52.5192C17.7229 53.8983 19.0574 55.2836 22.696 56.0766C25.9817 56.7926 29.0666 56.535 29.097 56.533C31.8432 56.2592 34.6604 55.8434 38.8932 53.7746C42.6515 51.9371 46.3205 48.7224 47.2636 46.9862C47.3955 46.7428 47.5455 46.5197 47.6895 46.3027C47.8336 46.0857 47.9715 45.8809 48.083 45.6679C49.4602 43.0637 50.166 40.5487 50.3729 37.5145C50.4114 36.9426 50.4337 36.4031 50.4499 35.9528C50.5006 34.454 50.4804 33.0647 50.4601 31.722C50.4499 31.0263 50.4378 30.3063 50.4378 29.5802C50.4357 26.7651 52.7966 24.1 54.916 23.4692C57.0213 22.8425 57.5973 22.6255 58.4268 21.9237C59.4105 21.0881 59.7188 20.0639 59.3375 18.8835C58.9035 17.5266 57.3438 15.5106 54.3745 14.2937C50.811 12.8313 46.4564 13.1944 45.2091 13.3404C42.8381 13.6162 37.9015 14.7683 35.8895 15.251C35.0255 15.4558 34.1513 15.253 33.7173 14.7439C33.3786 14.3464 33.3258 13.7967 33.5712 13.1984C33.8917 12.4196 34.5914 11.9653 35.208 11.5637C35.7921 11.1844 36.3438 10.8275 36.4858 10.2656C36.7677 9.15014 35.8631 7.7953 34.6218 7.47687C34.4312 7.42617 34.1493 7.40386 33.7903 7.40386Z" fill="#B5B5C6"/>
<path d="M52.6463 12.7968L52.6321 13.4499C52.6645 13.241 52.6666 13.022 52.6463 12.7968Z" fill="#FCFCFC"/>
<path d="M22.6127 33.2959C18.4934 35.9873 15.3436 38.4414 13.6521 39.8226C13.7393 40.0011 13.8286 40.1796 13.9117 40.3642C14.8974 42.4999 15.6844 44.7613 16.017 46.4123C16.0494 46.5684 16.0819 46.7368 16.1164 46.9112C16.2766 47.7306 16.4855 48.7792 16.7857 49.7791C19.3737 48.1829 24.2312 45.3535 24.3752 45.0027C24.5719 44.522 24.4766 41.2931 24.4766 41.2931L26.6427 39.9301C26.6427 39.9301 29.7966 42.0638 30.2063 41.9543C30.7721 41.8042 32.4474 40.8083 34.6744 39.5914C36.9014 38.3745 40.0897 36.543 40.3818 36.2165C40.6535 35.9123 41.5155 29.6634 41.8096 29.3693C42.1341 29.0448 46.5698 28.7507 49.462 28.5641C49.6547 27.3837 50.1638 26.2702 50.8513 25.317C45.9208 24.9762 38.8931 25.1425 37.7796 25.4123C36.4856 25.7246 28.9245 29.1726 22.6127 33.2959Z" fill="#F26F28"/>
<path d="M19.2885 46.0209L16.3962 40.0073L19.3047 38.261L22.1969 44.2746L19.2885 46.0209Z" fill="#221D51"/>
<path d="M18.9396 41.9116L17.8748 39.7252L19.0389 39.0437L20.1058 41.2301L18.9396 41.9116Z" fill="#F5F7FB"/>
<path d="M31.7884 38.2813L28.8516 32.1967L32.0196 30.5558L34.9281 36.5796L31.7884 38.2813Z" fill="#221D51"/>
<path d="M31.7093 34.1051L30.6526 31.8538L31.7864 31.2758L32.8349 33.5048L31.7093 34.1051Z" fill="#F6F8FC"/>
<path d="M25.9979 30.1075C25.9655 29.9594 25.2394 26.4506 28.6244 24.1648L29.5655 25.5602C27.1479 27.1929 27.6205 29.6491 27.6428 29.7525L25.9979 30.1075Z" fill="#221D51"/>
<path d="M12.553 35.4923L12.2224 34.0949C15.3114 32.6285 17.3456 34.7115 17.4288 34.8028L16.2159 35.969C16.0841 35.8351 14.4859 34.5756 12.553 35.4923Z" fill="#221D51"/>
<path d="M0.139274 38.1434L0 40.6627L7.29057 41.0657L7.42984 38.5464L0.139274 38.1434Z" fill="#BED630"/>
<path d="M2.93525 49.0064L1.58447 46.8747C3.9169 45.3962 8.83123 44.5119 9.04014 44.4754L9.48026 46.9599C8.19641 47.1891 4.52131 48.0004 2.93525 49.0064Z" fill="#BED630"/>
<path d="M6.5169 56.5674L4.54346 54.9935C5.69953 53.5454 9.75796 50.3854 10.2163 50.0305L11.7618 52.0263C10.5814 52.941 7.33832 55.5391 6.5169 56.5674Z" fill="#BED630"/>
<path d="M26.1338 48.4222C26.1338 48.4222 27.6347 47.1668 29.8251 45.9397C32.0156 44.7127 34.3926 43.7574 34.3926 43.7574C34.3926 43.7574 35.4371 44.8688 35.4838 46.102C35.5304 47.3351 34.634 48.8522 32.8147 49.7284C30.9954 50.6025 27.9571 51.4179 26.1338 48.4222Z" fill="#221D51"/>
<path d="M35.6339 45.8931C35.6339 45.8931 33.5104 46.4609 32.2184 47.903C30.9265 49.3451 30.892 50.2212 30.8717 50.9433C30.8514 51.6633 33.3968 50.5234 33.3968 50.5234L35.7252 48.8177L36.3032 47.2519L35.6339 45.8931Z" fill="#F26F28"/>
<path d="M38.4874 79.9892C38.4874 79.9892 37.6173 80.6829 37.4449 81.1169C37.1995 81.7375 37.8506 81.8694 38.6314 81.8694C39.4123 81.8694 41.4669 81.8694 41.8725 81.8694C42.2781 81.8694 42.4708 81.7314 42.2964 80.2427C42.2599 79.9324 42.2072 79.3949 42.1483 78.752H40.542L36.6438 75.446C37.4713 77.8921 38.4874 79.9892 38.4874 79.9892Z" fill="#221D51"/>
<path d="M43.7344 81.8694H81.6314L77.4816 55.6751H39.5847L43.7344 81.8694Z" fill="#CE5619"/>
<path d="M63.6615 52.9613H77.0516L77.4816 55.675H63.3228L63.6615 52.9613Z" fill="#CE5619"/>
<g opacity="0.1">
<path d="M43.7344 81.8694H81.6314L77.4816 55.6751H39.5847L43.7344 81.8694Z" fill="#CE5619"/>
<path d="M63.6615 52.9613H77.0516L77.4816 55.675H63.3228L63.6615 52.9613Z" fill="#CE5619"/>
</g>
<path d="M47.448 57.6827L74.0073 53.896L71.4559 36.135L44.8945 39.9217L47.448 57.6827Z" fill="#ECECEC"/>
<path d="M48.3912 56.419L72.7478 52.9467L70.5107 37.3985L46.1541 40.8708L48.3912 56.419Z" fill="#F37028"/>
<path opacity="0.1" d="M49.105 44.7608C49.2956 46.1055 50.541 47.0385 51.8857 46.8478C53.2304 46.6552 54.1654 45.4119 53.9727 44.0672C53.78 42.7225 52.5367 41.7895 51.192 41.9802C49.8473 42.1708 48.9123 43.4161 49.105 44.7608Z" fill="black"/>
<path opacity="0.2" d="M55.9583 55.3665L72.7355 52.9732L62.7243 42.7998L55.9583 55.3665Z" fill="black"/>
<path d="M49.3828 56.3095L63.2334 54.3341L55.2524 47.9168L49.3828 56.3095Z" fill="#FFC800"/>
<path d="M49.3828 56.3095L63.2334 54.3341L55.2524 47.9168L49.3828 56.3095Z" fill="#E27139"/>
<path d="M55.1633 57.7618L81.5462 64.2298L85.852 46.5804L59.4692 40.1124L55.1633 57.7618Z" fill="#ECECEC"/>
<path d="M56.5283 56.9323L80.7207 62.8628L84.4871 47.4099L60.2947 41.4795L56.5283 56.9323Z" fill="white"/>
<path d="M61.3129 46.834C60.9559 48.2882 61.8463 49.7546 63.3005 50.1116C64.7547 50.4685 66.2211 49.5782 66.5781 48.1239C66.9351 46.6697 66.0447 45.2033 64.5905 44.8464C63.1383 44.4914 61.6698 45.3818 61.3129 46.834Z" fill="#DCDCDC"/>
<path d="M64.0327 58.7983L80.6984 62.8831L75.1351 49.5456L64.0327 58.7983Z" fill="#DCDCDC"/>
<path d="M57.4998 57.2021L71.257 60.575L66.1825 51.5333L57.4998 57.2021Z" fill="#ECECEC"/>
<path d="M42.4384 66.556L66.8782 66.5053L66.8275 50.1601L42.3877 50.2108L42.4384 66.556Z" fill="#ECECEC"/>
<path d="M43.4505 65.5359L65.8621 65.4892L65.8154 51.1803L43.4038 51.2249L43.4505 65.5359Z" fill="white"/>
<path d="M45.4502 55.6829C45.4522 57.0296 46.5475 58.1187 47.8942 58.1167C49.2409 58.1147 50.33 57.0194 50.328 55.6727C50.326 54.326 49.2308 53.2369 47.884 53.2389C46.5373 53.2429 45.4482 54.3361 45.4502 55.6829Z" fill="#DCDCDC"/>
<path d="M50.4092 65.5439L65.8478 65.5114L58.1082 55.0662L50.4092 65.5439Z" fill="#DCDCDC"/>
<path d="M44.3591 65.5601L57.1043 65.5358L50.7175 58.7352L44.3591 65.5601Z" fill="#DCDCDC"/>
<path d="M62.6372 75.5916L86.4747 77.8977L87.9999 61.9519L64.1604 59.6459L62.6372 75.5916Z" fill="#ECECEC"/>
<path d="M63.7222 74.6951L85.5821 76.8085L86.9146 62.8484L65.0547 60.735L63.7222 74.6951Z" fill="white"/>
<path d="M66.6205 65.2783C66.4927 66.5926 67.4561 67.7588 68.7684 67.8866C70.0826 68.0144 71.2489 67.051 71.3766 65.7387C71.5044 64.4245 70.541 63.2583 69.2288 63.1305C67.9145 63.0027 66.7483 63.9661 66.6205 65.2783Z" fill="#DCDCDC"/>
<path d="M70.5088 75.3726L85.5662 76.8289L79.0232 65.8948L70.5088 75.3726Z" fill="#DCDCDC"/>
<path d="M64.6045 74.8066L77.0353 76.0094L71.4639 68.7626L64.6045 74.8066Z" fill="#ECECEC"/>
<path d="M43.7161 81.869H81.613L84.5356 57.847H46.6387L43.7161 81.869Z" fill="#F37028"/>
<path d="M71.4476 55.3605H84.8378L84.5356 57.8471H70.3767L71.4476 55.3605Z" fill="#F37028"/>
<path d="M52.1313 40.3581C52.1313 40.3581 50.7846 40.8672 50.2796 40.2242C49.7745 39.5813 49.6245 38.2873 50.2045 36.9467C50.7846 35.606 53.1028 33.4663 56.0924 32.9998C59.0799 32.5333 62.9619 33.0525 64.0389 36.2469C65.1159 39.4413 63.3189 41.0355 62.8402 41.4594C62.3616 41.8833 59.9967 42.7392 58.6033 43.0738C57.2099 43.4085 54.5591 43.7472 53.8593 42.9339C53.1596 42.1226 52.1313 40.3581 52.1313 40.3581Z" fill="#223F99"/>
<path d="M61.8525 32.9226L60.7755 35.545L53.4091 37.5164L50.4804 34.9629L48.6753 37.9485L50.8374 42.8729L56.7698 45.5096L65.6858 42.3476L66.6086 38.6543L64.7691 34.4762L61.8525 32.9226Z" fill="#221D51"/>
<path opacity="0.31" d="M34.924 59.0984C34.3237 60.4228 33.8106 61.3132 33.8106 61.3132C33.8106 61.3132 33.7801 60.5972 33.8308 59.792C33.8876 58.8895 34.4373 57.8024 34.4373 57.8024C34.4373 57.8024 34.5793 58.6339 34.924 59.0984Z" fill="#221D51"/>
<path d="M40.5909 58.5327C40.5909 58.5327 41.0026 57.5774 40.3394 57.1454C39.6762 56.7134 38.0415 56.5086 36.7961 57.184C35.5508 57.8594 34.0256 60.066 33.835 62.9887C33.6443 65.9113 34.4779 69.6108 37.6541 70.3734C40.8282 71.136 42.2094 69.2639 42.5785 68.765C42.9477 68.2661 43.5663 65.9113 43.7711 64.5382C43.9739 63.1651 44.0713 60.5792 43.2276 59.9748C42.3818 59.3704 40.5909 58.5327 40.5909 58.5327Z" fill="#221D51"/>
<path d="M38.013 70.862C37.8568 70.8357 37.7047 70.8032 37.5586 70.7667C34.1898 69.9575 33.2163 66.2033 33.4292 62.9602C33.626 59.9584 35.1735 57.6017 36.6034 56.8249C38.0231 56.0542 39.814 56.3158 40.5624 56.8026C41.1404 57.1778 41.181 57.8309 41.0816 58.3136C41.6434 58.5874 42.8076 59.1735 43.4627 59.642C44.7324 60.5507 44.2334 64.1852 44.1726 64.5969C43.9759 65.9214 43.3431 68.412 42.905 69.0062C41.4751 70.9452 39.5321 71.1257 38.013 70.862ZM39.3151 57.2082C38.6275 57.0885 37.7229 57.1453 36.9928 57.5429C35.79 58.1959 34.417 60.3377 34.2425 63.0149C34.0519 65.9274 34.8733 69.2841 37.7493 69.9757C39.6822 70.4382 41.1952 69.9514 42.2499 68.5235C42.5399 68.1301 43.1565 65.899 43.3674 64.4793C43.6189 62.7817 43.5459 60.7048 42.9902 60.3073C42.185 59.7313 40.4367 58.9099 40.4204 58.9017L40.0635 58.7334L40.2196 58.3724C40.2277 58.3521 40.4813 57.7213 40.1203 57.4881C39.9296 57.3644 39.6477 57.265 39.3151 57.2082Z" fill="#221D51"/>
<path d="M40.3414 58.7984C40.3414 58.7984 40.6557 57.4902 40.0006 57.0967C39.3455 56.7033 38.1266 56.7154 36.9502 57.4111C35.7739 58.1068 34.06 60.5062 33.9769 63.3335C33.8937 66.1608 34.8449 69.4343 37.9339 70.061C41.0228 70.6877 41.8605 69.0611 42.1992 68.5683C42.5379 68.0754 43.4668 65.816 43.6149 64.4855C43.7629 63.155 43.8603 60.5792 43.0247 60.0255C42.1891 59.4697 40.3414 58.7984 40.3414 58.7984Z" fill="#223F99"/>
<path d="M34.5793 68.6859L36.8854 67.3797L37.8529 60.3155L35.1432 57.8979L37.7007 55.8737L42.5218 57.3036L45.6614 62.4998L43.7691 71.14L40.451 72.4279L36.3601 71.2089L34.5793 68.6859Z" fill="#221D51"/>
</svg>
