<svg width="54" height="75" viewBox="0 0 54 75" fill="none" xmlns="http://www.w3.org/2000/svg">
<g clip-path="url(#clip0_1649_13778)">
<path d="M50.0806 16.4538C47.9428 14.2972 44.6965 12.8995 42.4003 12.2206C40.1041 11.5416 34.7991 10.6631 33.6114 10.4634C32.4237 10.2637 31.3944 9.18542 32.4633 8.14708C33.5322 7.10874 35.3138 7.62791 36.066 6.62951C36.8182 5.6311 36.4223 3.99372 35.393 3.23494C34.3636 2.47615 29.4149 1.11833 25.2185 1.1982C21.022 1.27807 15.8358 2.15666 11.4413 5.91066C7.04691 9.66465 5.14661 13.0193 4.39442 16.7333C3.64222 20.4474 4.0777 22.564 4.15688 24.6407C4.23606 26.7174 4.11729 28.9538 3.80057 30.4314C3.48386 31.9091 2.92961 34.465 3.28591 36.342C3.64222 38.219 4.51318 39.8563 7.16568 41.7333C9.81817 43.6103 12.629 44.4889 12.629 44.4889C12.7082 44.5289 12.827 44.5289 12.9457 44.5688C14.4105 44.8883 17.1422 45.5273 21.7742 45.3675C24.8622 45.2477 27.2771 44.8084 29.217 44.1295C30.3255 43.7301 31.2757 43.2908 32.0674 42.7717C32.5029 42.4921 32.8988 42.2126 33.2551 41.933C35.4721 40.096 36.9765 38.0992 38.2434 35.5832C38.4809 35.1039 38.6789 34.6646 38.8768 34.2254C39.7874 32.2685 40.4208 30.4714 41.173 28.6343C42.1232 26.3579 45.0132 24.8004 47.0718 25.04C49.1305 25.2797 49.7639 25.2797 50.7537 24.9602C51.7434 24.6407 52.654 23.9218 52.7727 22.4841C52.8915 21.0464 52.2581 18.6103 50.0806 16.4538Z" fill="#F6F8FC"/>
<path d="M17.5777 73.3627C17.5777 73.3627 16.8255 73.9618 16.7068 74.3212C16.5088 74.8404 17.0631 74.9602 17.7361 74.9602C18.4091 74.9602 20.151 74.9602 20.5073 74.9602C20.8637 74.9602 21.022 74.8404 20.8637 73.5624C20.8241 73.2829 20.7845 72.8436 20.7449 72.2845H19.3593L15.3607 68.1311C15.6378 68.9298 15.9941 69.6087 16.1129 69.9682C16.5088 71.0065 17.5777 73.3627 17.5777 73.3627Z" fill="#221D51"/>
<path d="M24.6247 73.3626C24.6247 73.3626 25.3769 73.9617 25.4956 74.3211C25.6936 74.8403 25.1393 74.9601 24.4663 74.9601C23.7933 74.9601 21.9722 74.9601 21.6554 74.9601C21.3387 74.9601 21.1408 74.6805 21.1804 73.5623C21.1804 73.2828 21.1804 72.8035 21.1804 72.2444H22.8827L25.9311 68.0911C25.7727 68.5304 25.3373 69.9281 25.0206 71.246C24.7434 72.3243 24.6247 73.3626 24.6247 73.3626Z" fill="#221D51"/>
<path d="M28.7815 44.1294C26.8416 44.8083 24.4267 45.2476 21.3387 45.3674C16.7463 45.5671 13.9751 44.9281 12.5103 44.5687C12.5103 44.5687 11.4413 46.4058 11.5601 49.6805C11.6789 52.9553 13.6979 62.3003 13.6979 62.3003C14.1334 64.8562 14.7669 66.4137 15.3211 68.131L19.3196 72.2843H20.7053C20.5073 70.5671 20.4677 68.9297 20.4282 67.2524H21.1012C21.1012 67.2524 21.1804 71.6853 21.1804 72.2843H22.8827L25.9311 68.131C27.1584 63.0591 28.4252 55.8706 28.9399 52.9553C29.2962 49.8403 28.7815 44.1294 28.7815 44.1294Z" fill="#21409A"/>
<path d="M22.0909 45.3673L19.5176 51.0382L18.4883 48.8018H16.3109L18.6466 54.313H20.3886L25.0997 45.1277C24.1892 45.2475 23.1994 45.3274 22.1305 45.3673H22.0909Z" fill="#F37029"/>
<path d="M25.5748 1.19808C29.6921 1.19808 34.4032 2.47604 35.3929 3.23482C36.4223 3.99361 36.7786 5.63099 36.0264 6.62939C35.2742 7.6278 33.4531 7.10863 32.4237 8.14696C31.3944 9.1853 32.3841 10.2636 33.5718 10.4633C34.7595 10.6629 40.0645 11.5415 42.3607 12.2204C44.6569 12.8994 47.9032 14.2971 50.041 16.4537C52.1789 18.6102 52.8519 21.0064 52.7331 22.4441C52.6143 23.8818 51.7038 24.6006 50.7141 24.9201C50.1994 25.0799 49.7639 25.1597 49.2097 25.1597C48.695 25.1597 48.022 25.0799 47.0322 25C46.9135 25 46.7551 24.9601 46.6363 24.9601C44.6173 24.9601 42.0044 26.4377 41.1334 28.5942C40.3812 30.4712 39.7082 32.2284 38.8372 34.1853C38.6393 34.6246 38.4413 35.0639 38.2038 35.5431C36.9369 38.099 35.4325 40.0559 33.2155 41.893C32.8592 42.2125 32.4633 42.492 32.0278 42.7316C31.236 43.2508 30.2859 43.6901 29.1774 44.0895C27.2375 44.7684 24.8226 45.2077 21.7346 45.3275C21.1803 45.3674 20.6261 45.3674 20.1114 45.3674C16.4692 45.3674 14.2126 44.8482 12.9061 44.5687C12.7874 44.5288 12.7082 44.5288 12.5894 44.4888C12.5894 44.4888 9.77857 43.6102 7.12607 41.7332C4.47358 39.8562 3.6422 38.2588 3.2859 36.3419C2.92959 34.4249 3.52343 31.9089 3.84015 30.4313C4.15687 28.9537 4.27563 26.7173 4.19646 24.6406C4.11728 22.5639 3.68179 20.4872 4.43399 16.7332C5.18619 12.9792 7.12607 9.6246 11.4809 5.91054C15.8358 2.19649 21.0616 1.27796 25.2185 1.19808C25.3372 1.19808 25.456 1.19808 25.5748 1.19808ZM25.5748 0C25.456 0 25.3372 0 25.2185 0C19.3196 0.119808 14.4501 1.79712 10.6891 4.99201C6.37387 8.66613 4.07769 12.2204 3.24631 16.5335C2.61288 19.5687 2.77124 21.5655 2.89 23.3227C2.92959 23.8019 2.96918 24.2412 2.96918 24.6805C3.04836 26.7173 2.92959 28.8339 2.65247 30.1917C2.61288 30.3514 2.57329 30.4712 2.57329 30.6709C2.25657 32.2684 1.7815 34.6246 2.1378 36.5815C2.57329 39.0575 3.87974 40.8946 6.49264 42.7316C9.2639 44.6885 12.1539 45.607 12.2727 45.647H12.3123H12.3519C12.4311 45.6869 12.5498 45.6869 12.6686 45.7268H12.7478C14.1334 46.0463 16.4296 46.5655 20.1114 46.5655C20.6657 46.5655 21.2199 46.5655 21.7742 46.5256C24.8226 46.4057 27.3563 45.9665 29.5337 45.2077C30.6818 44.8083 31.7111 44.3291 32.6217 43.73C33.0968 43.4105 33.5322 43.0911 33.9281 42.7716C36.2243 40.8546 37.8475 38.778 39.2331 36.0224C39.4311 35.623 39.629 35.1837 39.9061 34.6246C40.5 33.3067 41.0146 32.0687 41.4897 30.8706C41.7273 30.2716 41.9648 29.6326 42.2419 28.9936C42.9545 27.3163 45.1319 26.1182 46.6363 26.1182C46.7155 26.1182 46.8343 26.1182 46.9135 26.1182C47.9824 26.238 48.6554 26.278 49.2097 26.278C49.8827 26.278 50.4369 26.1981 51.0704 25.9585C52.7727 25.3994 53.7624 24.1613 53.9208 22.4042C54.0792 20.6869 53.327 17.9712 50.8724 15.4553C48.1407 12.6997 44.2214 11.3419 42.6774 10.9026C40.5396 10.3035 36.1451 9.50479 33.7302 9.10543C33.4531 9.06549 33.2551 8.94569 33.1759 8.86581L33.2155 8.82588C33.4531 8.58626 33.9677 8.46645 34.522 8.38658C35.3138 8.22684 36.3035 8.06709 36.9765 7.1885C38.085 5.71086 37.6891 3.3147 36.1055 2.11661C34.7595 1.23802 29.6525 0 25.5748 0Z" fill="#221D50"/>
<path d="M15.4795 21.6054C10.9267 22.4441 7.28448 23.4425 5.3446 24.0415C5.3446 24.2412 5.38419 24.4009 5.38419 24.6006C5.46337 26.837 5.3446 29.1134 5.02788 30.6709C4.9883 30.8306 4.94871 30.9904 4.94871 31.1501C4.79035 31.9089 4.5924 32.9073 4.47363 33.9057C7.28448 33.4664 12.5499 32.7476 12.7874 32.508C13.1437 32.1485 14.2126 29.3131 14.2126 29.3131L16.588 28.9137C16.588 28.9137 18.5675 31.9488 18.9634 31.9888C19.5176 32.0687 21.3387 31.7891 23.7141 31.5495C26.0895 31.3099 29.5338 30.8706 29.8901 30.6709C30.2464 30.5111 33.2552 25.3594 33.6115 25.1996C34.0074 25.0399 37.9663 26.3977 40.5396 27.3163C41.1335 26.3578 41.9648 25.5591 42.915 25C38.7581 22.8834 32.5821 20.4473 31.5132 20.2875C30.286 20.0479 22.4472 20.2875 15.4795 21.6054Z" fill="#F37029"/>
<path d="M12.1936 54.6725C12.1936 54.6725 11.7185 52.516 13.025 51.6374C13.025 51.6374 14.371 50.8386 14.8065 49.96C15.242 49.1214 15.5983 48.4824 15.3607 47.0048C15.1232 45.5271 14.5293 44.8882 14.5293 44.8882C14.5293 44.8882 15.242 44.2891 16.5088 43.8898C17.7757 43.4904 18.2903 43.091 18.6071 42.5319C18.8842 42.0527 18.9238 40.8946 17.6173 40.8546C16.3901 40.8147 14.5293 41.5335 12.7874 42.1326C11.0455 42.7316 9.14518 43.5703 8.03668 44.5287C6.92817 45.4872 6.25515 46.6853 5.85926 48.6422C5.46337 50.599 5.97803 53.0751 6.849 54.9121C7.71996 56.7492 9.06601 57.9073 10.1745 58.1869C11.283 58.4664 12.1936 57.3882 12.5499 56.5894L12.1936 54.6725Z" fill="#21409A"/>
<path d="M28.4252 53.5942C28.4252 53.5942 29.3358 51.4377 27.9898 50.7987C27.9898 50.7987 26.4062 51.0783 24.7038 49.8802C23.9121 49.3211 23.0015 48.2827 22.9223 46.8051C22.8431 45.3275 23.5557 44.2093 23.5557 44.2093C23.5557 44.2093 22.7244 43.8099 21.4179 43.6901C20.1115 43.5703 19.5176 43.3307 19.0821 42.8514C18.7258 42.4521 18.4091 41.3339 19.676 41.0144C20.8637 40.6949 22.8431 40.9744 24.6642 41.1741C26.4854 41.3738 28.544 41.7332 29.8109 42.4121C31.1173 43.0911 32.305 44.0495 33.3343 45.7268C34.3637 47.4441 35.1555 49.7205 34.5616 52.5559C34.0074 55.4712 32.7405 56.6294 31.434 57.3083C30.0088 58.0671 29.0587 56.7492 28.3065 55.4712L28.4252 53.5942Z" fill="#21409A"/>
<mask id="mask0_1649_13778" style="mask-type:luminance" maskUnits="userSpaceOnUse" x="5" y="40" width="14" height="19">
<path d="M12.1936 54.6725C12.1936 54.6725 11.7185 52.516 13.025 51.6374C13.025 51.6374 14.371 50.8386 14.8065 49.96C15.242 49.1214 15.5983 48.4824 15.3607 47.0048C15.1232 45.5271 14.5293 44.8882 14.5293 44.8882C14.5293 44.8882 15.242 44.2891 16.5088 43.8898C17.7757 43.4904 18.2903 43.091 18.6071 42.5319C18.8842 42.0527 18.9238 40.8946 17.6173 40.8546C16.3901 40.8147 14.5293 41.5335 12.7874 42.1326C11.0455 42.7316 9.14518 43.5703 8.03668 44.5287C6.92817 45.4872 6.25515 46.6853 5.85926 48.6422C5.46337 50.599 5.97803 53.0751 6.849 54.9121C7.71996 56.7492 9.06601 57.9073 10.1745 58.1869C11.283 58.4664 12.7478 58.147 13.0645 57.7476L12.1936 54.6725Z" fill="white"/>
</mask>
<g mask="url(#mask0_1649_13778)">
<path d="M5.50293 49.1214L8.27419 46.8451L11.3622 48.2029L11.956 51.4777C11.956 51.4777 11.0455 52.9154 12.1935 54.4729L16.1921 49.5607L19.0821 44.7285L18.9633 40.3754L15.2815 39.9761L11.0455 41.1342L7.99707 42.1726L5.14663 45.048L4.75073 48.0831L5.50293 49.1214Z" fill="#221D51"/>
</g>
<mask id="mask1_1649_13778" style="mask-type:luminance" maskUnits="userSpaceOnUse" x="18" y="40" width="17" height="18">
<path d="M28.4252 53.5942C28.4252 53.5942 28.7024 51.7971 27.9898 50.7987C27.9898 50.7987 26.4062 51.0783 24.7038 49.8802C23.9121 49.3211 23.0015 48.2827 22.9223 46.8051C22.8431 45.3275 23.5557 44.2093 23.5557 44.2093C23.5557 44.2093 22.7244 43.8099 21.4179 43.6901C20.1115 43.5703 19.5176 43.3307 19.0821 42.8514C18.7258 42.4521 18.4091 41.3339 19.676 41.0144C20.8637 40.6949 22.8431 40.9744 24.6642 41.1741C26.4854 41.3738 28.544 41.7332 29.8109 42.4121C31.1173 43.0911 32.305 44.0495 33.3343 45.7268C34.3637 47.4441 35.1555 49.7205 34.5616 52.5559C34.0074 55.4712 32.7405 56.6294 31.434 57.3083C30.0088 58.0671 29.0587 56.7492 28.3065 55.4712L28.4252 53.5942Z" fill="white"/>
</mask>
<g mask="url(#mask1_1649_13778)">
<path d="M28.4253 53.5942C28.4253 53.5942 29.415 52.9952 29.0191 50.7188L28.5836 48.083L30.8402 45.6469L34.2449 46.9249L32.4634 42.492L25.2977 40.0958L21.4179 39.8562L18.9238 40.4153L17.7757 43.2108L19.1217 45.6869L21.5367 49.0415L23.8329 51.7172L25.5748 52.6757L28.4253 53.5942Z" fill="#221D51"/>
</g>
<path d="M13.3417 38.8577C13.1833 37.5398 13.5 34.8641 15.915 34.2251C18.4091 33.5462 20.8241 36.0622 21.2596 36.821L19.5572 37.8194C19.3197 37.42 17.6569 35.7826 16.4296 36.1421C15.0836 36.5015 15.3211 38.5382 15.3211 38.6181L13.3417 38.8577Z" fill="#221D51"/>
<path d="M24.9018 19.0894C24.2683 19.0894 23.6349 18.9296 23.1202 18.6501C21.6554 17.8513 21.1804 16.2938 21.1804 16.214L22.6848 15.7747C22.6848 15.7747 23.0015 16.7731 23.8724 17.2523C24.4663 17.5718 25.2185 17.5718 26.0895 17.2922L26.5645 18.8098C25.9707 19.0095 25.4164 19.0894 24.9018 19.0894Z" fill="#221D51"/>
<path d="M7.44284 30.7908L7.16571 26.1981L9.54108 25.8787L9.8182 30.4713L7.44284 30.7908Z" fill="#221D51"/>
<path d="M7.60119 28.3148L7.48242 26.5177L8.55134 26.3579L8.63052 28.195L7.60119 28.3148Z" fill="#F6F8FC"/>
<path d="M23.5161 28.5543L23.2786 23.6821L25.9706 23.4824L26.2478 28.3147L23.5161 28.5543Z" fill="#221D51"/>
<path d="M23.7933 26.0382L23.6745 24.0015L24.783 23.9216L24.9018 25.9184L23.7933 26.0382Z" fill="#F7F8FC"/>
<path d="M8.19504 31.5096L5.38419 31.869L5.3446 30.4313L8.15546 30.1118L8.19504 31.5096Z" fill="#F7F8FC"/>
<path d="M28.3064 29.313L25.3768 29.5526L25.3372 27.9552L28.2668 27.7156L28.3064 29.313Z" fill="#F7F8FC"/>
<path d="M2.37537 2.31641H0V16.0145H2.37537V2.31641Z" fill="#21409A"/>
<path d="M7.44281 5.27148H5.06744V18.9696H7.44281V5.27148Z" fill="#21409A"/>
<path d="M12.5499 1.198H10.1745V14.8961H12.5499V1.198Z" fill="#21409A"/>
</g>
<defs>
<clipPath id="clip0_1649_13778">
<rect width="54" height="75" fill="white"/>
</clipPath>
</defs>
</svg>
