<svg width="89" height="88" viewBox="0 0 89 88" fill="none" xmlns="http://www.w3.org/2000/svg">
<g clip-path="url(#clip0_2264_18273)">
<g clip-path="url(#clip1_2264_18273)">
<path d="M47.8205 68.0587C47.8205 68.0587 55.085 68.43 57.6609 68.3521C60.2367 68.2741 63.5505 68.155 65.8925 67.8066C68.2346 67.4537 69.793 66.9862 70.4942 67.0641C71.1955 67.1421 73.9638 67.6096 76.3471 67.3758C78.7259 67.1421 80.3667 65.9321 81.3796 64.6854C82.3925 63.4387 82.3559 60.4321 82.2 59.3825C82.0442 58.3283 83.135 58.2137 82.7455 56.5362C82.3559 54.8587 79.6655 53.4562 77.5984 53.4929C75.5313 53.5296 74.1655 53.5433 70.7325 54.9412C67.2996 56.3391 47.055 59.4604 47.055 59.4604L41.6742 59.3825L41.4771 61.0325L47.8205 68.0587Z" fill="#21409A"/>
<mask id="mask0_2264_18273" style="mask-type:alpha" maskUnits="userSpaceOnUse" x="41" y="53" width="42" height="16">
<path d="M47.8205 68.0587C47.8205 68.0587 55.085 68.43 57.6609 68.3521C60.2367 68.2741 63.5505 68.155 65.8925 67.8066C68.2346 67.4537 69.793 66.9862 70.4942 67.0641C71.1955 67.1421 73.9638 67.6096 76.3471 67.3758C78.7259 67.1421 80.3667 65.9321 81.3796 64.6854C82.3925 63.4387 82.3559 60.4321 82.2 59.3825C82.0442 58.3283 83.135 58.2137 82.7455 56.5362C82.3559 54.8587 79.6655 53.4562 77.5984 53.4929C75.5313 53.5296 74.1655 53.5433 70.7325 54.9412C67.2996 56.3391 47.055 59.4604 47.055 59.4604L41.6742 59.3825L41.4771 61.0325L47.8205 68.0587Z" fill="white"/>
</mask>
<g mask="url(#mask0_2264_18273)">
<path d="M67.5929 67.9393L71.4291 63.8418L71.0716 59.1026L66.7679 55.9814L73.0012 50.0918L83.4833 51.618L88.1033 57.0585L86.0545 66.3626C86.0545 66.3626 80.4949 70.341 80.1466 70.2814C79.7937 70.2218 74.1195 70.2218 74.1195 70.2218L67.5929 67.9393Z" fill="#221D51"/>
</g>
<path d="M60.5712 62.9256C60.5712 62.9256 63.885 62.1831 67.1254 60.3085C70.3658 58.4385 71.5575 56.6739 72.1487 54.5381C72.74 52.4023 72.3092 49.4643 72.1167 47.7181C71.9242 45.9764 72.0067 43.4235 72.3 41.0631C72.5933 38.7027 73.3175 36.3514 72.8362 32.0248C72.355 27.6981 70.4667 23.651 65.7917 18.9256C61.1167 14.2002 55.1858 12.6464 50.3733 12.1377C45.5608 11.6289 39.6896 12.6373 38.4429 13.4164C37.1962 14.2002 36.605 16.0152 37.3612 17.2343C38.1175 18.4489 40.2808 18.0364 41.3762 19.3427C42.4717 20.6489 41.2204 21.7718 39.7996 21.8773C38.3833 21.9827 32.2142 22.4456 29.4642 22.9818C26.7142 23.5181 22.8642 24.7877 20.1646 27.0518C17.465 29.316 16.4567 31.9606 16.4521 33.6289C16.4475 35.2973 17.4054 36.2139 18.5421 36.686C19.6787 37.1581 20.3662 37.1902 22.7862 37.1443C25.2062 37.0985 28.3871 39.161 29.2442 41.8514C30.1012 44.5418 30.7429 47.0443 31.9437 50.0831C33.1446 53.1218 34.6846 55.5281 37.0679 57.8656C39.4512 60.2031 43.3287 62.1143 49.9608 62.9668C55.6442 63.7002 58.9442 63.1273 60.5712 62.9256Z" fill="#F6F8FC"/>
<path fill-rule="evenodd" clip-rule="evenodd" d="M66.6256 59.4424L66.6247 59.4429C65.0783 60.3375 63.5045 60.967 62.3109 61.3734C61.716 61.5759 61.2201 61.7215 60.8756 61.8158C60.7035 61.8629 60.5694 61.8971 60.48 61.9193C60.451 61.9264 60.4268 61.9323 60.4075 61.9369C60.4032 61.9379 60.3992 61.9389 60.3954 61.9398C60.271 61.9555 60.1377 61.973 59.995 61.9919C58.2637 62.2202 55.1604 62.6295 50.0888 61.9751L50.0883 61.975C43.5882 61.1395 39.9446 59.2863 37.7681 57.1517C35.491 54.9184 34.0264 52.6324 32.8738 49.7156C32.0319 47.5851 31.4773 45.7469 30.9122 43.8739C30.6822 43.1117 30.4505 42.3437 30.197 41.5479C29.6856 39.9427 28.5097 38.5901 27.176 37.6535C25.8477 36.7205 24.2434 36.1166 22.7673 36.1445C20.34 36.1905 19.8474 36.1453 18.9256 35.7625C18.4724 35.5742 18.1098 35.3198 17.8626 34.9975C17.625 34.6878 17.4503 34.26 17.4521 33.6317C17.4557 32.308 18.2921 29.9275 20.8072 27.818C23.3215 25.7093 26.9821 24.4847 29.6555 23.9634C32.3327 23.4413 38.4284 22.9821 39.8738 22.8745C40.7816 22.8071 41.7493 22.4134 42.3226 21.672C42.6233 21.283 42.8187 20.7874 42.7906 20.225C42.7627 19.6683 42.5215 19.1521 42.1425 18.7001C41.3912 17.8043 40.3074 17.5085 39.5897 17.3126C39.5613 17.3049 39.5335 17.2973 39.5062 17.2898C39.101 17.1786 38.812 17.0964 38.5771 16.9866C38.3611 16.8856 38.265 16.7935 38.2107 16.7067C38.016 16.3924 37.9624 15.9425 38.1096 15.4468C38.2568 14.9513 38.5777 14.5134 38.9738 14.2639C39.1381 14.1616 39.5991 13.9824 40.3941 13.7877C41.1516 13.6022 42.1149 13.4251 43.1984 13.2859C45.3706 13.0068 47.9603 12.8882 50.2682 13.1321C54.9688 13.6291 60.6352 15.1354 65.0808 19.6289C69.6338 24.231 71.3912 28.0789 71.8424 32.1353C72.2011 35.3603 71.8699 37.3777 71.5586 39.2739C71.4673 39.8305 71.3776 40.3766 71.3076 40.9398C71.0087 43.3453 70.9187 45.9818 71.1227 47.8277M38.4429 13.4164C39.6896 12.6373 45.5608 11.6289 50.3733 12.1377C55.1858 12.6464 61.1167 14.2002 65.7917 18.9256C70.4667 23.651 72.355 27.6981 72.8362 32.0248C73.2115 35.3985 72.8538 37.5711 72.539 39.4836C72.4501 40.0238 72.3646 40.5432 72.3 41.0631C72.0067 43.4235 71.9242 45.9764 72.1167 47.7181C72.1354 47.8882 72.1564 48.0697 72.1785 48.2606C72.3834 50.0292 72.6824 52.6104 72.1487 54.5381C71.5575 56.6739 70.3658 58.4385 67.1254 60.3085C63.885 62.1831 60.5712 62.9256 60.5712 62.9256C60.4328 62.9428 60.2822 62.9626 60.1191 62.9841C58.3653 63.2153 55.1605 63.6378 49.9608 62.9668C43.3287 62.1143 39.4512 60.2031 37.0679 57.8656C34.6846 55.5281 33.1446 53.1218 31.9437 50.0831C31.0856 47.9117 30.5131 46.014 29.9434 44.126C29.7159 43.3719 29.4888 42.6193 29.2442 41.8514C28.3871 39.161 25.2062 37.0985 22.7862 37.1443C20.3662 37.1902 19.6787 37.1581 18.5421 36.686C17.4054 36.2139 16.4475 35.2973 16.4521 33.6289C16.4567 31.9606 17.465 29.316 20.1646 27.0518C22.8642 24.7877 26.7142 23.5181 29.4642 22.9818C32.2142 22.4456 38.3833 21.9827 39.7996 21.8773C41.2204 21.7718 42.4717 20.6489 41.3762 19.3427C40.8287 18.6898 40.0144 18.4663 39.2424 18.2544C38.4698 18.0423 37.7395 17.8419 37.3612 17.2343C36.605 16.0152 37.1962 14.2002 38.4429 13.4164Z" fill="#214099"/>
<path d="M59.5676 36.4393C64.7376 37.8693 68.8168 39.3772 71.0305 40.2481C70.9984 40.4635 70.9664 40.6789 70.9389 40.8943C70.6226 43.4381 70.5539 46.046 70.7555 47.8701C70.7739 48.0443 70.7968 48.2276 70.8197 48.4201C70.9251 49.3231 71.0534 50.4826 71.0718 51.6193C67.8589 50.8172 61.8776 49.4881 61.6118 49.1718C61.2451 48.7364 60.278 45.3539 60.278 45.3539L57.5784 44.6572C57.5784 44.6572 55.0072 47.916 54.5489 47.9389C53.9118 47.971 51.8401 47.4897 49.1268 46.9626C46.4134 46.4356 42.4947 45.5876 42.0868 45.3447C41.7018 45.1201 38.7409 38.9143 38.3376 38.7081C37.893 38.4789 33.1905 39.6431 30.1243 40.4039C29.533 39.2443 28.6393 38.2543 27.608 37.4935C32.613 35.5089 39.9647 33.3547 41.2114 33.2676C42.6551 33.1714 51.6476 34.2485 59.5676 36.4393Z" fill="#F37029"/>
<path d="M16.7317 35.0273L17.0938 35.6415C16.9517 35.4582 16.8325 35.2519 16.7317 35.0273Z" fill="#FCFCFC"/>
<path d="M48.4622 44.2621L53.6689 43.4142L54.2693 41.448L50.0985 37.543L48.531 39.2159L51.0014 41.5305L48.091 42.0026L48.4622 44.2621Z" fill="#221D51"/>
<path d="M64.6276 47.8425L65.8239 43.0117L68.8306 43.6396L67.6343 48.4705L64.6276 47.8425Z" fill="#221D51"/>
<path d="M66.7634 45.6459L67.263 43.6934L68.4226 43.9088L67.9139 45.875L66.7634 45.6459Z" fill="#F6F8FC"/>
<path d="M56.8405 56.0822C58.6647 56.0822 60.5072 55.3809 61.3459 54.3268L59.7601 53.2359C59.0634 53.8959 57.1247 54.3818 55.1264 53.5018C53.238 52.6722 53.0272 49.6701 53.0318 49.6426L50.7447 49.5234C50.7355 49.7068 50.5384 54.0014 53.8843 55.4726C54.8468 55.8989 55.8643 56.0822 56.8405 56.0822Z" fill="#221D51"/>
<path d="M30.6374 53.2282C30.6374 53.2282 27.7362 51.5553 27.1633 50.0016C26.5904 48.4478 26.8791 46.7336 28.6758 44.937C30.4724 43.1403 32.3104 42.8424 35.4133 42.4574C38.5162 42.077 41.5825 42.1961 43.7458 43.4245C45.9091 44.6482 46.2804 45.6703 46.5645 47.224C46.8487 48.7778 46.4316 51.5141 45.5608 52.8616C44.6899 54.2091 43.1362 54.8874 40.5191 54.6307C37.9066 54.3741 36.2291 52.8203 35.3308 51.679C35.3308 51.679 33.4104 51.1474 32.2279 50.4965L30.6374 53.2282Z" fill="#21409A"/>
<path d="M35.6793 50.8575C35.6793 50.8575 39.2268 58.6859 44.7222 61.9446L47.8159 68.0588C47.8159 68.0588 39.983 70.3413 32.7093 70.983C25.4355 71.6246 18.3543 70.7492 14.7288 69.9288C11.1034 69.1084 7.37717 67.7059 6.20383 66.9817C5.0305 66.2575 4.6455 66.0834 4.52633 65.6159C4.40716 65.1484 4.85634 64.4655 5.64009 64.4471C6.41925 64.4288 7.533 64.1355 7.88134 63.998C7.88134 63.998 5.89217 63.5671 4.91592 63.2005C3.93967 62.8338 3.27967 62.3617 3.22009 61.6971C3.1605 61.0325 3.72883 60.643 4.25592 60.3909C4.783 60.1388 5.65842 59.6117 6.1855 59.2771C6.71259 58.9425 7.80342 58.1634 8.34884 58.3192C8.89425 58.475 8.97217 58.7271 9.09133 59.0021C9.2105 59.2771 9.30675 59.8225 9.85217 59.8409C10.3976 59.8592 12.9138 59.4513 15.4301 58.6034C17.9463 57.7555 20.9897 56.495 22.4793 55.7663C23.9688 55.0375 28.4788 52.5488 29.5605 51.9942C30.0601 51.7375 30.7247 50.028 32.0263 49.8217C33.5434 49.5788 35.6793 50.8575 35.6793 50.8575Z" fill="#21409A"/>
<mask id="mask1_2264_18273" style="mask-type:alpha" maskUnits="userSpaceOnUse" x="3" y="49" width="45" height="23">
<path d="M35.6793 50.8575C35.6793 50.8575 39.2268 58.6859 44.7222 61.9446L47.8159 68.0588C47.8159 68.0588 39.983 70.3413 32.7093 70.983C25.4355 71.6246 18.3543 70.7492 14.7288 69.9288C11.1034 69.1084 7.37717 67.7059 6.20383 66.9817C5.0305 66.2575 4.6455 66.0834 4.52633 65.6159C4.40716 65.1484 4.85634 64.4655 5.64009 64.4471C6.41925 64.4288 7.533 64.1355 7.88134 63.998C7.88134 63.998 5.89217 63.5671 4.91592 63.2005C3.93967 62.8338 3.27967 62.3617 3.22009 61.6971C3.1605 61.0325 3.72883 60.643 4.25592 60.3909C4.783 60.1388 5.65842 59.6117 6.1855 59.2771C6.71259 58.9425 7.80342 58.1634 8.34884 58.3192C8.89425 58.475 8.97217 58.7271 9.09133 59.0021C9.2105 59.2771 9.30675 59.8225 9.85217 59.8409C10.3976 59.8592 12.9138 59.4513 15.4301 58.6034C17.9463 57.7555 20.9897 56.495 22.4793 55.7663C23.9688 55.0375 28.4788 52.5488 29.5605 51.9942C30.0601 51.7375 30.7247 50.028 32.0263 49.8217C33.5434 49.5788 35.6793 50.8575 35.6793 50.8575Z" fill="white"/>
</mask>
<g mask="url(#mask1_2264_18273)">
<path d="M32.7138 63.4485L33.4104 65.3414L40.2625 65.6806L39.3871 63.3156L36.5638 63.1002L41.9263 57.7881L40.7621 54.6348L32.7138 63.4485Z" fill="#F37029"/>
</g>
<mask id="mask2_2264_18273" style="mask-type:alpha" maskUnits="userSpaceOnUse" x="3" y="49" width="45" height="23">
<path d="M35.6793 50.8575C35.6793 50.8575 39.2268 58.6859 44.7222 61.9446L47.8159 68.0588C47.8159 68.0588 39.983 70.3413 32.7093 70.983C25.4355 71.6246 18.3543 70.7492 14.7288 69.9288C11.1034 69.1084 7.37717 67.7059 6.20383 66.9817C5.0305 66.2575 4.6455 66.0834 4.52633 65.6159C4.40716 65.1484 4.85634 64.4655 5.64009 64.4471C6.41925 64.4288 7.533 64.1355 7.88134 63.998C7.88134 63.998 5.89217 63.5671 4.91592 63.2005C3.93967 62.8338 3.27967 62.3617 3.22009 61.6971C3.1605 61.0325 3.72883 60.643 4.25592 60.3909C4.783 60.1388 5.65842 59.6117 6.1855 59.2771C6.71259 58.9425 7.80342 58.1634 8.34884 58.3192C8.89425 58.475 8.97217 58.7271 9.09133 59.0021C9.2105 59.2771 9.30675 59.8225 9.85217 59.8409C10.3976 59.8592 12.9138 59.4513 15.4301 58.6034C17.9463 57.7555 20.9897 56.495 22.4793 55.7663C23.9688 55.0375 28.4788 52.5488 29.5605 51.9942C30.0601 51.7375 30.7247 50.028 32.0263 49.8217C33.5434 49.5788 35.6793 50.8575 35.6793 50.8575Z" fill="white"/>
</mask>
<g mask="url(#mask2_2264_18273)">
<path d="M13.7938 58.7276L8.44047 62.5318L8.2663 64.113C8.2663 64.113 11.0759 65.0205 18.1846 65.5155C18.1846 65.5155 18.5238 68.1647 21.3242 70.9193L20.4946 71.8634L5.86922 68.8522C5.86922 68.8522 2.56463 65.6347 2.59213 65.4605C2.61963 65.2864 2.15213 62.8847 2.15213 62.8847V60.1576L5.4888 57.6184L8.47255 56.7109L11.0163 57.1189L12.978 58.0264L13.7938 58.7276Z" fill="#221D51"/>
</g>
<path d="M75.4075 55.7715C75.9575 55.9732 76.4754 56.239 76.8787 56.6011C77.0804 56.7798 77.2545 56.9769 77.36 57.2015C77.4608 57.4123 77.5479 57.6782 77.5983 57.9394C77.7037 58.4619 77.7266 59.0027 77.6579 59.5298C77.5937 60.0569 77.4608 60.5656 77.195 60.9873C76.9429 61.4181 76.5945 61.7298 76.182 61.7757C75.7787 61.849 75.2425 61.6473 74.8391 61.3907C74.4312 61.1294 74.367 60.5748 74.335 59.9881C74.3029 59.4106 74.257 58.6223 73.4183 58.5536C73.6429 58.7461 73.73 59.0302 73.785 59.2915C73.8354 59.5665 73.8216 59.8186 73.785 60.1119C73.7575 60.4007 73.7391 60.7307 73.8308 61.0698C73.9179 61.4136 74.1379 61.7207 74.3945 61.9452C74.6558 62.1744 74.9262 62.3394 75.2425 62.4632C75.5541 62.5869 75.907 62.6648 76.2783 62.6373C76.6495 62.6144 77.0162 62.454 77.3004 62.234C77.5891 62.014 77.8137 61.7436 77.9833 61.4594C78.3225 60.8819 78.4783 60.2356 78.5241 59.6123C78.5516 58.9844 78.5012 58.3473 78.2904 57.7515C78.185 57.4536 78.0704 57.1694 77.8687 56.8852C77.6716 56.6148 77.415 56.404 77.1445 56.2436C76.5945 55.9319 75.9987 55.7761 75.4075 55.7715Z" fill="#21409A"/>
<mask id="mask3_2264_18273" style="mask-type:alpha" maskUnits="userSpaceOnUse" x="26" y="42" width="21" height="13">
<path d="M30.6374 53.2282C30.6374 53.2282 27.7362 51.5553 27.1633 50.0016C26.5904 48.4478 26.8791 46.7336 28.6758 44.937C30.4724 43.1403 32.3104 42.8424 35.4133 42.4574C38.5162 42.077 41.5825 42.1961 43.7458 43.4245C45.9091 44.6482 46.2804 45.6703 46.5645 47.224C46.8487 48.7778 46.4316 51.5141 45.5608 52.8616C44.6899 54.2091 43.1362 54.8874 40.5191 54.6307C37.9066 54.3741 36.2291 52.8203 35.3308 51.679C35.3308 51.679 33.4104 51.1474 32.2279 50.4965L30.6374 53.2282Z" fill="white"/>
</mask>
<g mask="url(#mask3_2264_18273)">
<path d="M37.132 41.8982L39.7674 44.3457L38.6033 49.0528L36.1512 49.974C36.1512 49.974 34.0658 50.6157 32.2278 50.4965L35.2483 52.449L37.4345 54.429L41.4587 55.694L47.1374 54.9836C47.1374 54.9836 48.3199 48.8649 48.4437 48.7961C48.5674 48.7274 47.912 45.8674 47.912 45.8674L45.9916 43.209L42.2745 41.252L37.132 41.8982Z" fill="#221D51"/>
</g>
<path d="M11.0072 31.6855H34.2539L33.3372 28.9355H10.0906L11.0072 31.6855Z" fill="#21409A"/>
<path d="M1.01993 39.041H14.8433L13.9266 36.291H0.10326L1.01993 39.041Z" fill="#21409A"/>
<path d="M40.4185 76.1621H46.386L45.4693 73.4121H39.5018L40.4185 76.1621Z" fill="#21409A"/>
<path d="M51.0654 76.1621H64.6274L63.7108 73.4121H50.1487L51.0654 76.1621Z" fill="#21409A"/>
</g>
</g>
<defs>
<clipPath id="clip0_2264_18273">
<rect width="88" height="88" fill="white" transform="translate(0.5)"/>
</clipPath>
<clipPath id="clip1_2264_18273">
<rect width="88" height="64.1621" fill="white" transform="matrix(-1 0 0 1 88.1033 12)"/>
</clipPath>
</defs>
</svg>
