<svg width="88" height="88" viewBox="0 0 88 88" fill="none" xmlns="http://www.w3.org/2000/svg">
<g clip-path="url(#clip0_1757_16055)">
<path d="M63.4899 67.0055C77.0264 67.0055 87.9999 56.032 87.9999 42.4955C87.9999 28.9591 77.0264 17.9856 63.4899 17.9856C49.9535 17.9856 38.98 28.9591 38.98 42.4955C38.98 56.032 49.9535 67.0055 63.4899 67.0055Z" fill="#F2F2F2"/>
<path d="M30.8833 51.1784C28.5706 51.973 25.6694 52.5042 21.9829 52.653C16.4667 52.8729 12.7573 51.8516 10.9918 51.4578C10.9918 51.4578 9.41875 52.7286 8.1731 54.2696C6.92745 55.8107 5.03608 57.8074 4.34457 60.8597C4.01484 62.3091 4.3812 63.7448 5.54671 64.7363C7.10835 66.0667 10.5179 67.8687 12.2787 68.4114C12.5329 69.8998 12.7985 71.2668 13.0252 72.3544C13.6274 75.2739 14.2067 77.4492 14.8799 79.5765L19.5786 84.6277H21.2226C21.0051 82.6036 20.7097 80.6527 20.6662 78.6537L23.1255 78.633C23.1255 78.633 24.9871 82.6654 25.6877 84.6277H28.2912L30.0475 79.6795C30.1872 73.062 30.4116 65.1141 31.0184 61.6634C31.5061 57.9539 30.8833 51.1784 30.8833 51.1784Z" fill="#223F99"/>
<path d="M59.2171 26.8812L58.7866 27.4788C58.9515 27.3048 59.0935 27.1033 59.2171 26.8812Z" fill="#F9FAFA"/>
<path d="M59.2242 26.8631L58.7937 27.4607C58.9586 27.289 59.0982 27.0875 59.2242 26.8631Z" fill="#F9FAFA"/>
<path d="M17.4811 85.8917C17.4811 85.8917 16.5904 86.6015 16.4141 87.0457C16.1622 87.6823 16.8308 87.8151 17.63 87.8151H20.9479C21.3646 87.8151 21.5616 87.6754 21.3807 86.1504C21.3417 85.8321 21.2914 85.2826 21.2295 84.6231H19.5855L14.8845 79.5718C15.7295 82.0769 17.4811 85.8917 17.4811 85.8917Z" fill="#221D51"/>
<path d="M30.3131 85.848C30.3131 85.848 31.5198 86.599 31.6938 87.0455C31.9457 87.6821 31.2771 87.8172 30.478 87.8172H27.2173C26.8006 87.8172 26.6861 87.3844 26.2396 86.1525C26.093 85.7472 25.9991 85.4724 25.6946 84.6252H28.2981L30.0544 79.677C30.075 80.341 30.0177 82.5781 30.1551 84.3161C30.2078 85.0099 30.3131 85.848 30.3131 85.848Z" fill="#221D51"/>
<path d="M22.4042 52.6506L19.3359 59.3986L18.1177 56.7333H15.512L18.2964 63.2569H20.3824L26.013 52.3575C24.9161 52.4971 23.7392 52.5956 22.4638 52.646C22.4409 52.6483 22.4226 52.6483 22.4042 52.6506Z" fill="#F37028"/>
<path d="M30.8833 51.1737L31.2039 50.1204C31.2039 50.1204 35.6758 52.3964 36.949 56.9463C38.2221 61.4961 35.1171 64.498 35.1171 64.498C35.1171 64.498 28.6851 63.7126 28.3096 57.1455L30.8833 51.1737Z" fill="#223F99"/>
<path d="M35.4445 55.2313C34.2149 56.5616 31.9388 56.6303 31.6984 57.2417C31.3366 58.1553 30.9954 59.5407 31.3664 61.0176C32.0144 63.6005 34.121 64.8644 36.381 64.4065C38.5014 63.976 42.4467 61.6198 44.0541 53.1475C44.0541 53.1475 45.0387 53.1796 46.5477 52.9277C49.9297 52.3576 49.9641 49.6075 49.3 49.5136C48.8673 49.4541 48.1254 49.3282 46.6141 49.4976C45.8012 49.5869 44.8693 49.019 44.1457 48.9733C42.078 48.8404 40.395 48.0825 39.044 49.4037L38.5655 49.8365L35.4445 55.2313Z" fill="#223F99"/>
<path d="M39.5431 48.6893C39.4607 48.4191 39.4996 48.442 39.4996 48.442L45.0569 46.4705L50.4792 46.8987L52.2652 50.6356L49.4327 53.7223L46.6346 53.2529L46.1606 51.5493L41.0842 49.4152C41.0842 49.4152 40.5941 49.4495 40.2323 49.6327C39.7492 49.8754 37.8097 50.6036 37.2556 51.5012C37.5991 50.9425 38.2723 50.3769 38.4417 50.0815C38.6226 49.7678 38.7966 49.3259 39.1103 49.2251L39.5431 48.6893Z" fill="#221D51"/>
<path d="M56.4144 18.3383C53.8384 15.7622 49.9847 14.0998 47.2003 13.3007C44.4159 12.5016 38.1052 11.462 36.6512 11.2262C35.1995 10.9903 34.0134 9.71488 35.259 8.47153C36.5047 7.22588 38.696 7.8487 39.5844 6.66488C40.4752 5.48105 40.0286 3.55305 38.8128 2.63713C37.5969 1.71892 31.6434 0.148123 26.6356 0.237425C21.6279 0.326727 15.3767 1.39148 10.1331 5.83597C4.88946 10.2805 2.57677 14.2784 1.69062 18.6932C0.799892 23.1079 1.3357 25.5969 1.42271 28.0561C1.51202 30.5154 1.36318 33.1509 1.00597 34.9278C0.651054 36.7047 -0.0610717 39.6975 0.353381 41.9483C0.770124 44.1992 1.83488 46.1249 5.00395 48.346C8.17532 50.5694 11.5207 51.6364 11.5207 51.6364C11.6352 51.6616 11.7588 51.6891 11.8894 51.7166C13.6548 52.1081 16.9361 52.8638 22.4545 52.6417C26.141 52.4951 29.0376 51.9639 31.3549 51.167C32.6761 50.7137 33.8073 50.1756 34.7781 49.5688C35.2956 49.2459 35.7719 48.907 36.207 48.5521C38.8746 46.3585 40.679 44.0183 42.1925 40.9958C42.4673 40.4485 42.7169 39.9196 42.9527 39.3998C44.0266 37.0573 44.7937 34.9667 45.7165 32.7594C46.8431 30.0643 50.3075 28.2256 52.7988 28.4935C55.2878 28.7614 55.9977 28.7912 57.2136 28.4042C58.4294 28.0195 59.4942 27.1585 59.643 25.4412C59.7919 23.7307 58.9927 20.9143 56.4144 18.3383Z" fill="#F6F7FB"/>
<path d="M20.5082 52.9094C16.2103 52.9094 13.49 52.3049 11.9398 51.9614L11.8413 51.9385C11.7268 51.9156 11.6146 51.8905 11.5093 51.8676L11.4727 51.8584C11.4177 51.8424 8.03799 50.7501 4.87349 48.5313C1.99064 46.5094 0.616768 44.6158 0.129042 41.9871C-0.253354 39.9148 0.300776 37.222 0.667143 35.4406C0.708359 35.2437 0.747286 35.0559 0.781633 34.8796C1.12739 33.1645 1.28539 30.5519 1.19379 28.0606C1.17548 27.5202 1.13426 26.9821 1.09075 26.4119C0.937338 24.3969 0.765604 22.1117 1.46628 18.6426C2.43028 13.8364 5.05897 9.83152 9.98431 5.65722C14.2685 2.02789 19.8671 0.125075 26.6311 0.00371609C31.845 -0.0878757 37.7389 1.53559 38.9502 2.44922C40.3149 3.47733 40.7042 5.5496 39.7677 6.79754C39.2685 7.46158 38.419 7.61499 37.5947 7.76612C36.807 7.90809 35.9918 8.05692 35.4216 8.62937C35.0255 9.02322 34.8835 9.44225 35.0118 9.83609C35.1904 10.3879 35.8796 10.8642 36.6879 10.9947C38.4831 11.2855 44.5465 12.2953 47.2645 13.0762C48.6521 13.4746 53.424 15.0179 56.577 18.1709C59.2447 20.8363 60.0186 23.7603 59.8721 25.4548C59.7347 27.0302 58.8394 28.1247 57.2846 28.617C56.0412 29.0131 55.32 28.9879 52.776 28.7155C50.4656 28.4682 47.0423 30.1786 45.9295 32.8417C45.6112 33.6019 45.3067 34.3644 45.0113 35.0994C44.4503 36.5008 43.8687 37.9502 43.1634 39.4889C42.9024 40.0637 42.6528 40.5903 42.3986 41.0918C40.8324 44.2197 38.9685 46.5713 36.3536 48.7214C35.9139 49.0809 35.4239 49.4289 34.8996 49.7564C33.8875 50.3884 32.7197 50.9333 31.4305 51.3775C28.9278 52.2385 25.9968 52.7239 22.4637 52.8636C21.779 52.898 21.1265 52.9094 20.5082 52.9094ZM27.0547 0.461675C26.9151 0.461675 26.7777 0.463964 26.6403 0.466254C19.9861 0.585323 14.4815 2.44922 10.282 6.00985C5.43907 10.1154 2.85848 14.0402 1.91508 18.7365C1.22814 22.1437 1.39759 24.3946 1.54871 26.3799C1.59222 26.9546 1.63344 27.4973 1.65175 28.0445C1.74335 30.5679 1.58077 33.2218 1.23043 34.9689C1.19609 35.1452 1.15716 35.333 1.11594 35.5322C0.756445 37.2793 0.213764 39.9194 0.577841 41.9024C0.916731 43.7273 1.70213 45.7469 5.13453 48.1535C8.24178 50.3311 11.5574 51.4027 11.5895 51.4142L11.6055 51.4165C11.7085 51.4394 11.8184 51.4646 11.9352 51.4875L12.036 51.5104C13.79 51.8996 17.0552 52.6255 22.4431 52.408C25.9304 52.2683 28.8202 51.792 31.2771 50.9448C32.5365 50.512 33.6722 49.9831 34.6546 49.3694C35.1629 49.0534 35.6346 48.7168 36.0605 48.3688C38.6228 46.2621 40.45 43.954 41.9865 40.888C42.2361 40.3911 42.4834 39.8713 42.7421 39.2989C43.4428 37.7693 44.0221 36.3267 44.5808 34.93C44.8762 34.1926 45.183 33.4301 45.5013 32.6653C46.7264 29.7367 50.3419 27.9919 52.8195 28.2598C55.3245 28.53 55.9703 28.5529 57.1403 28.1796C58.5257 27.7423 59.2905 26.8103 59.4118 25.4159C59.5515 23.8199 58.805 21.0492 56.2496 18.4938C53.1744 15.4186 48.4941 13.9051 47.1339 13.5135C44.4411 12.7418 38.3984 11.7343 36.61 11.4458C35.6231 11.2855 34.8034 10.6948 34.5698 9.97577C34.3889 9.41477 34.5744 8.82171 35.0919 8.30422C35.7651 7.63102 36.6902 7.46387 37.5076 7.31503C38.277 7.17535 39.0052 7.04254 39.3967 6.52276C40.1775 5.48548 39.8249 3.68342 38.6709 2.81558C37.5695 1.98439 31.9915 0.461675 27.0547 0.461675Z" fill="#B5B5C6"/>
<path d="M14.9646 24.4404C9.51033 25.4456 5.16888 26.6271 2.81039 27.3278C2.82413 27.5522 2.83558 27.7766 2.84703 28.0033C2.9432 30.6526 2.77605 33.3454 2.4051 35.207C2.37075 35.3833 2.33183 35.5733 2.29061 35.7703C2.10285 36.6908 1.86242 37.8723 1.73877 39.0447C5.12309 38.5111 11.404 37.6799 11.7062 37.38C12.123 36.9632 13.4259 33.5675 13.4259 33.5675L16.2698 33.0935C16.2698 33.0935 18.6214 36.6816 19.0931 36.7457C19.7457 36.835 21.9233 36.5282 24.7672 36.2305C27.6112 35.9328 31.7236 35.4153 32.1678 35.2047C32.5846 35.0078 36.1956 28.8848 36.6307 28.7062C37.1115 28.5093 41.8491 30.1351 44.938 31.1998C45.6502 30.0572 46.6645 29.1184 47.7934 28.4292C42.8177 25.9287 35.4377 23.0459 34.16 22.8421C32.6831 22.6039 23.3178 22.9016 14.9646 24.4404Z" fill="#F37028"/>
<path d="M6.60006 36.2579L6.19019 28.4199L10.1401 27.8452L10.55 35.6854L6.60006 36.2579Z" fill="#221D51"/>
<path d="M8.14101 31.7014L7.9624 28.5918L9.69807 28.3652L9.87896 31.4724L8.14101 31.7014Z" fill="#F6F7FB"/>
<path d="M23.6774 33.5354L23.2515 25.6012L27.4349 25.2578L27.8585 33.1163L23.6774 33.5354Z" fill="#221D51"/>
<path d="M25.5069 28.9995L25.342 25.8969L26.977 25.7641L27.1418 28.8347L25.5069 28.9995Z" fill="#F6F8FC"/>
<path d="M27.6158 18.5898L28.3096 20.3553C28.1516 20.4171 24.378 21.8642 21.2227 18.5143L22.6034 17.216C24.8566 19.6042 27.5036 18.6311 27.6158 18.5898Z" fill="#221D51"/>
<path d="M4.40874 23.9664C4.21182 23.9664 4.00802 23.9595 3.79736 23.9458L3.91643 22.0544C7.67856 22.2903 8.40214 19.8493 8.44107 19.5677L10.0622 19.7646C9.8928 21.2622 8.4777 23.9664 4.40874 23.9664Z" fill="#221D51"/>
<path d="M12.3383 22.0638L10.3232 22.073C11.3514 21.0288 11.1728 19.8106 11.1705 19.8038L12.8764 19.8313C12.9084 20.1587 13.1695 20.9395 12.3383 22.0638Z" fill="#221D51"/>
<path d="M14.502 45.1698L12.4778 43.9356L14.9897 39.8209L20.1486 41.813L19.2968 44.0226L15.9812 42.7472L14.502 45.1698Z" fill="#221D51"/>
<path opacity="0.31" d="M35.8681 54.4962C35.8681 54.4962 35.346 53.704 35.0918 53.3949C35.0918 53.3949 34.7712 56.2754 33.4661 56.4105C33.4684 56.4105 34.9201 56.1334 35.8681 54.4962Z" fill="#221D51"/>
<path opacity="0.31" d="M12.2765 68.3929C12.2765 68.3929 12.0796 67.2159 11.6697 64.6743C11.5712 67.0282 10.866 67.8136 10.866 67.8136L12.2765 68.3929Z" fill="#221D51"/>
<path d="M11.5711 57.0698C11.5711 57.0698 10.9299 59.5909 11.5711 62.9546C10.5864 61.7777 10.5498 60.9808 10.5498 60.9808L11.5711 57.0698Z" fill="#221D51"/>
<path d="M59.1646 46.2476L53.8318 51.8156L55.6244 53.5325L60.9572 47.9645L59.1646 46.2476Z" fill="#999999"/>
<path d="M74.4282 32.1089C70.215 28.0812 63.5563 28.214 59.5285 32.4249C55.5008 36.6358 55.6336 43.2968 59.8445 47.3246C64.0577 51.3523 70.7165 51.2195 74.7442 47.0086C78.772 42.7954 78.6392 36.1367 74.4282 32.1089ZM73.4642 45.7836C70.1257 49.2892 64.5752 49.3831 61.1039 46.0606C57.5982 42.7221 57.5044 37.1716 60.8268 33.7003C64.1493 30.229 69.6998 30.0504 73.1871 33.4233C76.6905 36.7641 76.8027 42.2802 73.4642 45.7836Z" fill="#F37028"/>
<path d="M49.1973 55.7215L51.8946 58.3227L59.7303 50.1664L56.9849 47.5812L49.1973 55.7215Z" fill="#F37028"/>
<path d="M63.0757 37.2588L65.4731 37.3298C65.4731 37.3298 65.5212 35.3056 67.653 35.3308C68.4865 35.3216 69.2307 35.8414 69.5008 36.6406C69.7298 37.3046 69.6543 37.9893 69.2467 38.5869C68.8276 39.2326 67.8934 39.8188 66.2974 39.4799L66.1875 43.2008L68.5552 43.2878L68.6147 41.7903C68.6147 41.7903 71.9761 41.0553 72.0998 37.3893C72.2349 33.8768 69.1024 32.9609 67.756 32.9128C66.7004 32.8968 63.1741 33.009 63.0757 37.2588Z" fill="#223F99"/>
<path d="M66.112 44.1724L66.0337 46.4082L68.4411 46.4925L68.5194 44.2567L66.112 44.1724Z" fill="#223F99"/>
</g>
<defs>
<clipPath id="clip0_1757_16055">
<rect width="88" height="88" fill="white"/>
</clipPath>
</defs>
</svg>
