<svg width="88" height="88" viewBox="0 0 88 88" fill="none" xmlns="http://www.w3.org/2000/svg">
<g clip-path="url(#clip0_988_13439)">
<path d="M29.2745 62.0403C29.2745 62.0403 21.2017 54.9322 14.9764 52.2671C14.49 52.0586 11.9516 51.327 9.89562 50.4236C7.8396 49.5203 6.00022 47.6605 5.75497 45.7884C5.50972 43.9163 5.616 42.2486 7.56574 40.8916C9.51548 39.5345 11.8781 39.9514 11.8781 39.9514C11.8781 39.9514 11.7391 39.3587 12.3645 39.0113C12.9899 38.6639 14.1752 38.5249 15.7408 39.1871C17.3063 39.8492 19.3255 41.2063 20.4005 42.4203C20.4005 42.4203 27.7744 50.9795 30.2473 55.7088L29.2745 62.0403Z" fill="#21409A"/>
<mask id="mask0_988_13439" style="mask-type:alpha" maskUnits="userSpaceOnUse" x="5" y="38" width="26" height="25">
<path d="M29.2745 62.0403C29.2745 62.0403 21.2017 54.9322 14.9764 52.2671C14.49 52.0586 11.9516 51.327 9.89562 50.4236C7.8396 49.5203 6.00022 47.6605 5.75497 45.7884C5.50972 43.9163 5.616 42.2486 7.56574 40.8916C9.51548 39.5345 11.8781 39.9514 11.8781 39.9514C11.8781 39.9514 11.7391 39.3587 12.3645 39.0113C12.9899 38.6639 14.1752 38.5249 15.7408 39.1871C17.3063 39.8492 19.3255 41.2063 20.4005 42.4203C20.4005 42.4203 27.7744 50.9795 30.2473 55.7088L29.2745 62.0403Z" fill="white"/>
</mask>
<g mask="url(#mask0_988_13439)">
<path d="M18.8023 54.6991C18.8023 54.6991 16.3661 49.2708 15.5323 48.2285L18.557 43.671L23.74 44.6438L21.9292 41.5495L18.3445 38.2427L12.8836 36.6445L10.9011 38.0016L4.47149 42.1749C4.47149 42.1749 3.94829 45.5839 4.12405 46.0376C4.29981 46.4913 6.17598 49.7613 6.17598 49.7613L8.8533 52.4428L11.9843 54.0042L14.629 55.0833L18.8023 54.6991Z" fill="#221D51"/>
</g>
<path d="M30.1002 72.12C30.6888 75.0712 30.9095 75.623 31.4327 77.7812C31.7965 79.2936 31.8497 84.3049 31.4695 86.2587C30.3209 86.8555 30.0307 87.8447 30.3659 87.8447C30.7011 87.8447 33.8975 87.8447 34.3308 87.8447C34.6864 87.8447 35.8922 84.219 36.2355 83.0827C36.7833 81.2638 37.1634 79.9272 37.1634 79.9272L38.5613 79.9353L39.9593 79.9272C39.9593 79.9272 40.5029 81.2311 41.2714 82.9683C41.394 83.2503 43.5931 87.8488 43.9446 87.8488C44.3779 87.8488 47.419 87.8488 47.7501 87.8488C48.0812 87.8488 47.9544 86.8596 46.8058 86.2628C46.8058 86.2628 45.7227 82.7598 45.0073 78.2472C44.803 76.1544 44.709 75.0589 44.9297 71.9402C45.1054 69.4917 45.7799 65.3756 47.1533 62.776L47.7051 53.1008L29.5484 55.7822C29.5484 55.7822 28.8494 60.3398 29.1274 64.2352C29.4094 68.1265 29.7855 70.5504 30.1002 72.12Z" fill="#21409A"/>
<path d="M37.7193 66.4587H35.9208L33.5214 60.8343H35.7696L36.82 63.1315L39.6077 57.0002H42.6039L37.7193 66.4587Z" fill="#F37029"/>
<path d="M29.2704 56.6488C29.2704 56.6488 26.3846 55.7291 23.6501 53.812C20.9156 51.895 19.9959 50.2355 19.6403 48.2939C19.2846 46.3523 19.8937 43.7731 20.2043 42.2403C20.515 40.7075 20.6376 38.4348 20.564 36.3134C20.4864 34.192 20.0286 32.0461 20.7929 28.2406C21.5573 24.4351 23.552 20.9853 28.0728 17.1553C32.5936 13.3212 37.985 12.4056 42.3014 12.3279C46.6178 12.2502 51.7517 13.6032 52.8022 14.3962C53.8486 15.1892 54.2329 16.8487 53.4644 17.8706C52.6959 18.8925 50.8075 18.357 49.7366 19.4279C48.6657 20.4988 49.6875 21.5984 50.9383 21.8028C52.1891 22.0071 57.6296 22.9023 60.033 23.5931C62.4365 24.2839 65.7555 25.7145 67.9791 27.934C70.2028 30.1535 70.8895 32.5856 70.7627 34.0653C70.636 35.545 69.7163 36.2889 68.6699 36.62C67.6235 36.9511 67.0104 36.9265 64.8645 36.6976C62.7185 36.4687 59.7306 38.0506 58.7577 40.3764C57.7849 42.7022 57.0205 44.8727 55.7166 47.4805C54.4127 50.0883 52.8554 52.1035 50.5582 53.996C48.261 55.8885 44.664 57.2823 38.7044 57.5194C33.5868 57.7197 30.7011 56.9553 29.2704 56.6488Z" fill="#F6F8FC"/>
<path d="M32.2339 33.1946C27.5291 34.0611 23.7891 35.083 21.7535 35.6839C21.7658 35.876 21.778 36.0722 21.7821 36.2643C21.8639 38.5492 21.7208 40.8709 21.402 42.4773C21.3734 42.6286 21.3366 42.7921 21.3039 42.9637C21.1404 43.7567 20.936 44.7745 20.8297 45.7841C23.7482 45.3222 29.1641 44.611 29.4257 44.3494C29.7854 43.9897 30.9054 41.063 30.9054 41.063L33.3579 40.6543C33.3579 40.6543 35.3853 43.7485 35.7941 43.8058C36.3582 43.8834 38.2343 43.6177 40.6868 43.3643C43.1393 43.1109 46.6832 42.6613 47.0674 42.4773C47.4271 42.3056 50.5418 37.0287 50.9179 36.8733C51.3307 36.7058 55.4182 38.1037 58.0792 39.0234C58.6923 38.0383 59.567 37.229 60.544 36.6322C56.2521 34.4781 49.8878 31.9888 48.7883 31.813C47.5089 31.6127 39.4361 31.8661 32.2339 33.1946Z" fill="#F37029"/>
<path d="M70.3949 35.2876L70.0229 35.8026C70.166 35.6514 70.2886 35.4756 70.3949 35.2876Z" fill="#FCFCFC"/>
<path d="M28.1627 47.6564C28.1627 47.6564 30.1738 46.6345 32.8961 45.9519C35.6224 45.2693 38.4469 45.0322 38.4469 45.0322C38.4469 45.0322 39.1622 46.9738 38.7862 48.6415C38.4101 50.3092 36.9468 51.9442 34.7313 52.3203C32.5241 52.6963 29.0497 52.4592 28.1627 47.6564Z" fill="#221D51"/>
<mask id="mask1_988_13439" style="mask-type:alpha" maskUnits="userSpaceOnUse" x="28" y="45" width="11" height="8">
<path d="M28.1627 47.6564C28.1627 47.6564 30.1738 46.6345 32.8961 45.9519C35.6224 45.2693 38.4469 45.0322 38.4469 45.0322C38.4469 45.0322 39.1622 46.9738 38.7862 48.6415C38.4101 50.3092 36.9468 51.9442 34.7313 52.3203C32.5241 52.6963 29.0497 52.4592 28.1627 47.6564Z" fill="white"/>
</mask>
<g mask="url(#mask1_988_13439)">
<path d="M39.1295 48.4371C39.1295 48.4371 36.677 48.2654 34.8049 49.6307C32.9329 50.9959 32.5895 52.1527 32.3197 53.105C32.0459 54.0574 35.1483 53.6487 35.1483 53.6487L38.2139 52.3897L39.3707 50.5504L39.1295 48.4371Z" fill="#F37029"/>
</g>
<path d="M44.2757 56.8368C45.7758 55.7863 53.4848 44.9258 53.7669 44.3658C54.0448 43.8099 54.7397 42.694 56.0967 41.0263C57.4538 39.3545 58.2999 38.6965 59.7551 38.8477C61.2143 38.9989 60.3764 40.5399 60.3764 40.5399C61.5944 39.7388 62.9515 39.5303 65.2119 39.7756C67.4723 40.0208 69.0378 42.4202 69.4915 43.7772C69.9452 45.1343 69.4956 46.3237 69.1073 47.8484C68.8416 48.903 67.926 49.8676 66.5689 50.7015C65.2119 51.5353 62.6368 52.406 61.9787 52.7534C61.3982 53.06 49.99 60.6341 47.1574 62.7719L44.2757 56.8368Z" fill="#21409A"/>
<mask id="mask2_988_13439" style="mask-type:alpha" maskUnits="userSpaceOnUse" x="29" y="53" width="19" height="35">
<path d="M30.1002 72.12C30.6888 75.0712 30.9095 75.623 31.4327 77.7812C31.7965 79.2936 31.8497 84.3049 31.4695 86.2587C30.3209 86.8555 30.0307 87.8447 30.3659 87.8447C30.7011 87.8447 33.8975 87.8447 34.3308 87.8447C34.6864 87.8447 35.8922 84.219 36.2355 83.0827C36.7833 81.2638 37.1634 79.9272 37.1634 79.9272L38.5613 79.9353L39.9593 79.9272C39.9593 79.9272 40.5029 81.2311 41.2714 82.9683C41.394 83.2503 43.5931 87.8488 43.9446 87.8488C44.3779 87.8488 47.419 87.8488 47.7501 87.8488C48.0812 87.8488 47.9544 86.8596 46.8058 86.2628C46.8058 86.2628 45.7227 82.7598 45.0073 78.2472C44.803 76.1544 44.709 75.0589 44.9297 71.9402C45.1054 69.4917 45.7799 65.3756 47.1533 62.776L47.7051 53.1008L29.5484 55.7822C29.5484 55.7822 28.8494 60.3398 29.1274 64.2352C29.4094 68.1265 29.7855 70.5504 30.1002 72.12Z" fill="white"/>
</mask>
<g mask="url(#mask2_988_13439)">
<path d="M49.1725 86.1891C49.1725 86.1891 49.1235 87.3377 49.2747 87.7219C49.4913 88.2697 46.6914 87.8405 46.0006 87.8405C45.3098 87.8405 42.3995 87.8405 42.0398 87.8405C41.6801 87.8405 41.6229 87.305 42.0071 86.0788C42.0889 85.8172 42.191 85.4779 42.3014 85.0896H44.3166L45.5714 80.8835C45.1136 81.8359 49.1848 81.464 48.9967 81.7951C48.261 83.0704 49.1725 86.1891 49.1725 86.1891Z" fill="#221D51"/>
</g>
<mask id="mask3_988_13439" style="mask-type:alpha" maskUnits="userSpaceOnUse" x="29" y="53" width="19" height="35">
<path d="M30.1002 72.12C30.6888 75.0712 30.9095 75.623 31.4327 77.7812C31.7965 79.2936 31.8497 84.3049 31.4695 86.2587C30.3209 86.8555 30.0307 87.8447 30.3659 87.8447C30.7011 87.8447 33.8975 87.8447 34.3308 87.8447C34.6864 87.8447 35.8922 84.219 36.2355 83.0827C36.7833 81.2638 37.1634 79.9272 37.1634 79.9272L38.5613 79.9353L39.9593 79.9272C39.9593 79.9272 40.5029 81.2311 41.2714 82.9683C41.394 83.2503 43.5931 87.8488 43.9446 87.8488C44.3779 87.8488 47.419 87.8488 47.7501 87.8488C48.0812 87.8488 47.9544 86.8596 46.8058 86.2628C46.8058 86.2628 45.7227 82.7598 45.0073 78.2472C44.803 76.1544 44.709 75.0589 44.9297 71.9402C45.1054 69.4917 45.7799 65.3756 47.1533 62.776L47.7051 53.1008L29.5484 55.7822C29.5484 55.7822 28.8494 60.3398 29.1274 64.2352C29.4094 68.1265 29.7855 70.5504 30.1002 72.12Z" fill="white"/>
</mask>
<g mask="url(#mask3_988_13439)">
<path d="M28.7227 86.1891C28.7227 86.1891 28.7718 87.3377 28.6205 87.7219C28.4039 88.2697 31.2038 87.8405 31.8946 87.8405C32.5854 87.8405 35.4957 87.8405 35.8554 87.8405C36.2151 87.8405 36.2723 87.305 35.8881 86.0788C35.8064 85.8171 35.7042 85.4779 35.5938 85.0896H33.5787L31.6657 80.9775C30.0021 81.3332 28.7105 81.464 28.9026 81.795C29.6301 83.0703 28.7227 86.1891 28.7227 86.1891Z" fill="#221D51"/>
</g>
<mask id="mask4_988_13439" style="mask-type:alpha" maskUnits="userSpaceOnUse" x="44" y="38" width="26" height="25">
<path d="M44.2757 56.8368C45.7758 55.7863 53.4848 44.9258 53.7669 44.3658C54.0448 43.8099 54.7397 42.694 56.0967 41.0263C57.4538 39.3545 58.2999 38.6965 59.7551 38.8477C61.2143 38.9989 60.3764 40.5399 60.3764 40.5399C61.5944 39.7388 62.9515 39.5303 65.2119 39.7756C67.4723 40.0208 69.0378 42.4202 69.4915 43.7772C69.9452 45.1343 69.4956 46.3237 69.1073 47.8484C68.8416 48.903 67.926 49.8676 66.5689 50.7015C65.2119 51.5353 62.6368 52.406 61.9787 52.7534C61.3982 53.06 49.99 60.6341 47.1574 62.7719L44.2757 56.8368Z" fill="white"/>
</mask>
<g mask="url(#mask4_988_13439)">
<path d="M57.3802 56.3709L59.6774 50.3827L56.0232 46.2829L50.8034 47.5337L56.0518 38.3327L59.8491 36.8571L63.4011 36.7876L66.6997 37.3108L69.2749 38.5289L70.7709 40.8261L71.3309 43.2949C71.3309 43.2949 71.3677 44.8931 71.2941 45.4858C71.2205 46.0785 70.5624 48.3021 70.5624 48.3021C70.5624 48.3021 69.5896 50.8405 69.2054 51.0857C68.8212 51.331 65.8986 53.5914 65.8986 53.5914L62.0727 55.1569L57.3802 56.3709Z" fill="#221D51"/>
</g>
<mask id="mask5_988_13439" style="mask-type:alpha" maskUnits="userSpaceOnUse" x="5" y="38" width="26" height="25">
<path d="M29.2745 62.0403C29.2745 62.0403 21.2017 54.9322 14.9764 52.2671C14.49 52.0586 11.9516 51.327 9.89562 50.4236C7.8396 49.5203 6.00022 47.6605 5.75497 45.7884C5.50972 43.9163 5.616 42.2486 7.56574 40.8916C9.51548 39.5345 11.8781 39.9514 11.8781 39.9514C11.8781 39.9514 11.7391 39.3587 12.3645 39.0113C12.9899 38.6639 14.1752 38.5249 15.7408 39.1871C17.3063 39.8492 19.3255 41.2063 20.4005 42.4203C20.4005 42.4203 27.7744 50.9795 30.2473 55.7088L29.2745 62.0403Z" fill="white"/>
</mask>
<g mask="url(#mask5_988_13439)">
<path d="M29.062 61.983C29.062 61.983 29.2214 59.5673 29.5034 57.6094C29.5034 57.6094 28.4366 60.254 28.2567 61.5375C28.0728 62.8169 29.062 61.983 29.062 61.983Z" fill="#221D51"/>
</g>
<path d="M24.5739 43.6546L23.5111 42.1504L25.1584 40.9855L22.8203 40.0331L23.5152 38.3286L27.4024 39.9146L27.5864 41.5169L24.5739 43.6546Z" fill="#221D51"/>
<path d="M42.0848 41.333L38.1199 39.8125L37.8297 38.0753L41.4798 35.0178L42.7919 36.5833L40.4743 38.529L42.8164 39.4282L42.0848 41.333Z" fill="#221D51"/>
<path d="M12.4953 34.3187C12.4176 34.192 10.566 31.2613 5.80812 31.8458L5.50974 29.4096C11.9149 28.6248 14.4982 32.884 14.6044 33.068L12.4953 34.3187Z" fill="#BFD730"/>
<path d="M11.8004 18.9946C11.7759 18.9701 9.19257 16.538 6.7605 15.3854L7.81099 13.1699C10.5987 14.4902 13.37 17.1062 13.4885 17.2166L11.8004 18.9946Z" fill="#F37029"/>
<path d="M30.3495 7.00183L28.1954 5.82872C28.2322 5.76332 29.0865 4.20189 30.7828 1.86792L32.7652 3.31081C31.1752 5.50172 30.3577 6.98957 30.3495 7.00183Z" fill="#21409A"/>
<path d="M53.0941 0.00235581L50.9378 4.10547L53.1088 5.24637L55.2651 1.14326L53.0941 0.00235581Z" fill="#BFD730"/>
<path d="M67.7799 1.63879L62.4922 5.56982L63.9554 7.53796L69.2431 3.60692L67.7799 1.63879Z" fill="#F37029"/>
<path d="M76.9349 24.333C75.8149 21.9786 73.5872 20.7237 73.5627 20.7114L74.7276 18.5532C74.8462 18.6186 77.6706 20.1719 79.1462 23.2784L76.9349 24.333Z" fill="#21409A"/>
<path d="M79.2852 51.4536C78.6271 51.4536 78.0589 51.2287 77.6502 50.914C76.6201 50.121 76.3299 48.7027 76.9431 47.4723C77.4581 46.4464 78.8437 45.3264 80.63 44.9381C80.4501 44.4557 80.2049 44.0102 79.9269 43.6587C79.277 42.8289 77.0207 43.1477 76.0929 43.4216L75.3939 41.0713C75.8599 40.9323 80.0046 39.7796 81.8603 42.1463C82.4816 42.9434 82.9476 43.9162 83.1888 44.934C84.509 45.216 86.1359 46.0131 87.6442 47.9914L85.6944 49.4793C84.9587 48.5146 84.1452 47.8525 83.291 47.5132C83.107 48.6086 82.6043 49.6305 81.7009 50.4235C80.8589 51.1756 80.0169 51.4536 79.2852 51.4536ZM80.8139 47.4274C79.9106 47.7135 79.2893 48.2694 79.1381 48.5719C79.04 48.7681 79.0726 48.9193 79.1462 48.9724C79.2566 49.0583 79.6204 48.9929 80.0823 48.5882C80.4542 48.2612 80.6872 47.8606 80.8139 47.4274Z" fill="#BFD730"/>
<path d="M57.8421 70.3664C56.4728 68.4412 54.3759 68.8214 54.286 68.8418L53.7832 66.4424C53.9345 66.4097 57.5192 65.6862 59.8409 68.9481L57.8421 70.3664Z" fill="#F37029"/>
<path d="M66.7488 79.0525L66.103 76.6858C66.1111 76.6858 67.3251 76.3302 68.1753 75.4269C68.4942 75.0917 68.4655 74.5358 68.3061 73.1583C68.2203 72.3858 68.1181 71.511 68.1181 70.4687C68.1181 67.4113 70.4766 66.091 71.7274 65.8171L72.2506 68.2124L71.989 67.0148L72.2628 68.2083C71.9808 68.2778 70.5706 68.7111 70.5706 70.4687C70.5706 71.3721 70.6605 72.1732 70.7423 72.8844C70.918 74.4418 71.0856 75.9133 69.9575 77.1109C68.6495 78.5007 66.9409 78.9994 66.7488 79.0525Z" fill="#BFD730"/>
<path d="M21.0872 82.67L18.6715 82.249C18.9862 80.4505 20.4291 78.2105 20.5926 77.9612L22.6446 79.306C22.2767 79.866 21.2793 81.5664 21.0872 82.67Z" fill="#F37029"/>
<path d="M5.45251 74.7687L3 74.7033C3.07766 71.6827 4.2099 69.0258 6.18417 67.2273C6.36402 67.0638 6.54796 66.9085 6.74007 66.7613C7.06298 65.02 7.99085 63.4055 9.37652 62.2977C11.3917 60.6873 14.5799 60.442 14.7148 60.4338L14.8906 62.8782L14.8047 61.656L14.8947 62.8782C14.1834 62.9313 12.0824 63.2747 10.9093 64.2148C10.5169 64.5295 10.1777 64.9056 9.9038 65.3266C10.4066 65.2326 10.9093 65.204 11.4039 65.2367C13.9791 65.4042 15.4506 67.2763 15.7285 68.944C15.9983 70.579 15.193 72.0424 13.6766 72.6718C12.0784 73.3381 10.3698 73.2768 8.98003 72.5002C7.99902 71.9565 7.27554 71.1022 6.91175 70.0926C6.00841 71.3516 5.49747 72.9702 5.45251 74.7687ZM9.06178 68.1797C9.06586 68.4208 9.0863 68.6661 9.12309 68.9072C9.22119 69.5204 9.59315 70.0354 10.1695 70.3583C10.8971 70.763 11.8331 70.7834 12.7283 70.4074C13.1942 70.2112 13.3864 69.8555 13.3046 69.3446C13.1779 68.5802 12.4258 67.7627 11.2404 67.6851C10.5251 67.636 9.77709 67.8118 9.06178 68.1797Z" fill="#BFD730"/>
</g>
<defs>
<clipPath id="clip0_988_13439">
<rect width="84.6442" height="88" fill="white" transform="translate(3)"/>
</clipPath>
</defs>
</svg>
