<svg width="48" height="48" viewBox="0 0 48 48" fill="none" xmlns="http://www.w3.org/2000/svg">
<g clip-path="url(#clip0)">
<path d="M48 24C48 27.8909 47.0736 31.5658 45.4291 34.8163C43.0685 34.8163 41.1552 36.7296 41.1552 39.0903V40.7827C36.7977 45.2362 30.7209 44.2386 24 44.2386C17.2791 44.2386 11.2022 45.2362 6.84478 40.7827V37.2403C6.84478 35.902 5.75906 34.8163 4.42078 34.8163H2.57091C0.926437 31.5658 0 27.8909 0 24C0 19.68 1.14244 15.624 3.144 12.12C3.14878 12.1104 3.15356 12.1008 3.15844 12.096C7.29122 4.86722 15.0768 0 24 0C32.9232 0 40.7088 4.86722 44.8416 12.096C44.8463 12.1008 44.8512 12.1104 44.856 12.12C46.8576 15.624 48 19.68 48 24Z" fill="#33CC7F"/>
<path d="M48 24.0002C48 27.8911 47.0736 31.566 45.4291 34.8165C43.0685 34.8165 41.1552 36.7298 41.1552 39.0905V40.7829C37.2614 44.7631 31.994 47.3935 26.1206 47.9071C25.4217 47.9685 24.7142 46.9306 24 46.9306C23.2857 46.9306 22.5782 47.9685 21.8794 47.9071C16.0061 47.3934 10.7386 44.7631 6.84478 40.7829V37.2405C6.84478 35.9022 5.75906 34.8165 4.42078 34.8165H2.57091C0.926437 31.566 0 27.8911 0 24.0002C0 19.6802 1.14244 15.6242 3.144 12.1202C3.14878 12.1106 3.15356 12.101 3.15844 12.0962C3.45319 12.6117 3.76613 13.1148 4.09734 13.6053C6.43978 17.0747 9.66534 19.899 13.4544 21.7538C13.944 21.9938 14.448 22.2193 14.9568 22.4258C17.6784 23.5345 20.6496 24.1585 23.76 24.1873H24.24C27.3504 24.1585 30.3216 23.5345 33.0432 22.4258C33.552 22.2193 34.056 21.9938 34.5457 21.7538C38.3309 19.899 41.5595 17.0747 43.9027 13.6053C44.234 13.1147 44.5469 12.6117 44.8417 12.0962C44.8464 12.101 44.8513 12.1106 44.8561 12.1202C46.8576 15.6242 48 19.6802 48 24.0002Z" fill="#2EB872"/>
<path d="M24.2305 47.5375L24 48.0002C23.2857 48.0002 22.5782 47.9685 21.8794 47.9071V43.0793L21.8851 43.0736C22.7606 42.222 24.023 42.0051 25.0973 42.4208C25.1251 42.6397 25.1443 42.8595 25.1559 43.0794C25.2356 44.6028 24.9254 46.1388 24.2305 47.5375Z" fill="#DFF0F8"/>
<path d="M25.1559 43.0789H21.8794V39.019H24L24.3792 39.8629C24.841 40.8901 25.1002 41.9806 25.1559 43.0789Z" fill="#9DD6ED"/>
<path d="M26.1206 43.0791V47.907C25.4217 47.9684 24.7142 48.0001 24 48.0001V42.2151C24.7565 42.2151 25.5139 42.4973 26.1005 43.0599L26.1206 43.0791Z" fill="#9DD6ED"/>
<path d="M24 39.019H26.1206V43.0789H24V39.019Z" fill="#76CAEA"/>
<path d="M23.9997 40.7828H6.84438C5.1325 39.0325 3.68594 37.0225 2.57031 34.8156V14.9052C7.06563 14.9052 15.7534 14.9052 24.0006 14.9042L24.4984 15.4733C31.2109 23.1477 30.9944 33.3653 23.9997 40.7828Z" fill="white"/>
<path d="M45.4289 14.9038V34.8161C44.3133 37.023 42.8667 39.033 41.1548 40.7833H23.9995V14.9038H45.4289Z" fill="#DFF0F8"/>
<path d="M5.08789 17.5051V38.1816H42.9112V17.5051H5.08789Z" fill="#293651"/>
<path d="M23.9995 17.5051H42.9112V38.1816H23.9995V17.5051Z" fill="#243047"/>
<path d="M33.9697 33.9059H30.9405V23.902H33.9697V33.9059Z" fill="#56C126"/>
<path d="M29.0015 33.9059H25.9722V26.0669H29.0015V33.9059Z" fill="#00B3FF"/>
<path d="M24 33.9059H20.9707V30.1743H24V33.9059Z" fill="#FFE706"/>
<path d="M19.0005 33.9059H15.9712V30.1743H19.0005V33.9059Z" fill="#E72669"/>
<path d="M24.4637 34.7923L24 35.015H11.1235V19.3708H12.6077V33.5309H24.0317L24.4675 33.745C24.9043 33.959 24.9024 34.582 24.4637 34.7923Z" fill="white"/>
<path d="M24 33.5305H36.8761V35.0146H24V33.5305Z" fill="#DFF0F8"/>
<path d="M35.7591 21.8243L34.6186 20.6838V21.3286H29.8839L28.9383 23.2179L25.2 23.19L24 25.3519L23.6409 26.5807C23.5478 26.8984 23.7005 27.2354 24 27.3756L25.7165 24.2825L29.5085 24.3209L30.5079 22.3136H34.6186V22.9647L35.7591 21.8243Z" fill="#0275FA"/>
<path d="M22.8726 27.3816L15.8481 27.4626V28.5292L23.3683 28.5129L23.9997 27.3753V25.3518L22.8726 27.3816Z" fill="#00B3FF"/>
</g>
<defs>
<clipPath id="clip0">
<rect width="48" height="48" fill="white"/>
</clipPath>
</defs>
</svg>
