<svg width="24" height="24" viewBox="0 0 24 24" fill="none" xmlns="http://www.w3.org/2000/svg">
<path d="M4.75208 17.3364C5.57588 15.6786 6.00328 13.8521 6.00056 12.0008C5.99971 11.1012 6.20154 10.213 6.59106 9.4021C6.98058 8.59119 7.54778 7.87846 8.25053 7.31683" stroke="#33CC7F" stroke-width="1.5" stroke-linecap="round" stroke-linejoin="round"/>
<path d="M12.0005 12.0009C12.0053 15.0504 11.2316 18.0507 9.75281 20.7178" stroke="#33CC7F" stroke-width="1.5" stroke-linecap="round" stroke-linejoin="round"/>
<path d="M9.00061 12.0009C9.00061 11.2052 9.31668 10.4421 9.87929 9.87953C10.4419 9.31692 11.205 9.00085 12.0006 9.00085C12.7963 9.00085 13.5593 9.31692 14.1219 9.87953C14.6845 10.4421 15.0006 11.2052 15.0006 12.0009C15.005 15.0931 14.3238 18.1478 13.0061 20.9452" stroke="#33CC7F" stroke-width="1.5" stroke-linecap="round" stroke-linejoin="round"/>
<path d="M20.4904 17.2508C20.8306 15.5215 21.0014 13.7632 21.0005 12.0008C21.0005 9.61384 20.0523 7.32466 18.3645 5.63683C16.6767 3.949 14.3875 3.00079 12.0005 3.00079C9.61358 3.00079 7.32439 3.949 5.63657 5.63683C3.94874 7.32466 3.00053 9.61384 3.00053 12.0008C3.00165 13.0226 2.82846 14.0372 2.4884 15.0008" stroke="#33CC7F" stroke-width="1.5" stroke-linecap="round" stroke-linejoin="round"/>
<path d="M8.70057 15.0008C8.38039 16.5778 7.80688 18.0926 7.00232 19.4862" stroke="#33CC7F" stroke-width="1.5" stroke-linecap="round" stroke-linejoin="round"/>
<path d="M11.2506 6.04728C12.0951 5.94166 12.9524 6.01676 13.7657 6.2676C14.5789 6.51844 15.3296 6.9393 15.9679 7.50226C16.6061 8.06523 17.1174 8.75744 17.4679 9.53301C17.8184 10.3086 17.9999 11.1498 18.0006 12.0009C18.0008 13.0037 17.9388 14.0056 17.8149 15.0008" stroke="#33CC7F" stroke-width="1.5" stroke-linecap="round" stroke-linejoin="round"/>
<path d="M17.2445 18.0008C17.1017 18.5557 16.9398 19.1026 16.7588 19.6414" stroke="#33CC7F" stroke-width="1.5" stroke-linecap="round" stroke-linejoin="round"/>
</svg>
