<svg width="40" height="40" viewBox="0 0 40 40" fill="none" xmlns="http://www.w3.org/2000/svg">
<circle cx="20" cy="20" r="20" fill="#F5F6FA"/>
<g clip-path="url(#clip0_28337_28546)">
<path d="M28.2909 20.0086H26.3285V17.4268C26.3285 17.142 26.0977 16.9111 25.8129 16.9111H11.8506C11.5658 16.9111 11.335 17.142 11.335 17.4268V28.1009C11.335 30.2509 13.0893 32 15.2456 32H22.4178C24.5741 32 26.3285 30.2509 26.3285 28.1009V27.9495H28.2908C29.5999 27.9495 30.6649 26.8845 30.6649 25.5755V22.3827C30.6649 21.0736 29.5999 20.0086 28.2909 20.0086ZM25.2972 28.1009C25.2972 29.6822 24.0055 30.9688 22.4178 30.9688H15.2456C13.6579 30.9688 12.3662 29.6822 12.3662 28.1009V17.9424H25.2973V28.1009H25.2972ZM29.6337 25.5755C29.6337 26.3159 29.0313 26.9183 28.2909 26.9183H26.3285V21.0398H28.2909C29.0313 21.0398 29.6337 21.6422 29.6337 22.3827V25.5755Z" fill="#333333"/>
<path d="M20.192 15.0832C20.065 15.0832 19.9377 15.0365 19.8381 14.9424C19.631 14.7469 19.6217 14.4206 19.8173 14.2135C20.1722 13.8376 20.3695 13.4824 20.4201 13.1273C20.4631 12.8266 20.3831 12.4662 20.2257 12.2509C20.1567 12.1565 20.0251 12.0593 19.8858 11.9563C19.6994 11.8186 19.4882 11.6624 19.3262 11.441C18.8326 10.7661 18.7953 9.75781 19.2334 8.93211C19.2378 8.92372 19.2425 8.91542 19.2474 8.90727C19.4053 8.64571 19.597 8.39483 19.8172 8.16163C20.0127 7.95458 20.339 7.94521 20.5461 8.14072C20.7532 8.33624 20.7626 8.66258 20.567 8.86963C20.4008 9.04564 20.2565 9.23333 20.1379 9.42758C19.8915 9.90214 19.8994 10.4779 20.1586 10.8322C20.2276 10.9266 20.3592 11.0239 20.4986 11.1269C20.6849 11.2646 20.8961 11.4207 21.0581 11.6421C21.3759 12.0767 21.5226 12.7017 21.441 13.2731C21.3591 13.8463 21.0732 14.3855 20.5669 14.9216C20.4656 15.029 20.3289 15.0832 20.192 15.0832Z" fill="#00B14F"/>
<path d="M17.1416 14.9874C17.0284 14.9874 16.9145 14.9504 16.8193 14.8741C16.5972 14.696 16.5615 14.3714 16.7396 14.1493C16.8329 14.0329 16.9123 13.9107 16.976 13.7857C17.0525 13.5998 17.0703 13.3592 17.0187 13.1957C16.9756 13.0588 16.9371 13.0222 16.823 12.9136C16.7573 12.8512 16.6756 12.7735 16.5889 12.669C16.3239 12.3497 16.1764 11.8818 16.204 11.4478C16.2312 11.0198 16.4064 10.6097 16.7397 10.194C16.9178 9.97185 17.2424 9.93623 17.4645 10.1144C17.6867 10.2925 17.7224 10.617 17.5442 10.8392C17.3482 11.0837 17.2464 11.3041 17.2332 11.5131C17.2223 11.684 17.2851 11.8931 17.3825 12.0104C17.4303 12.0681 17.4782 12.1135 17.5335 12.1662C17.6876 12.3126 17.8793 12.4949 18.0024 12.8858C18.1287 13.2868 18.0963 13.7929 17.9177 14.2067C17.9139 14.2154 17.9099 14.224 17.9057 14.2326C17.8083 14.4277 17.6867 14.6167 17.5443 14.7943C17.4423 14.9214 17.2926 14.9874 17.1416 14.9874Z" fill="#00B14F"/>
</g>
<defs>
<clipPath id="clip0_28337_28546">
<rect width="24" height="24" fill="white" transform="translate(8 8)"/>
</clipPath>
</defs>
</svg>
