<svg width="24" height="24" viewBox="0 0 24 24" fill="none" xmlns="http://www.w3.org/2000/svg">
<path fill-rule="evenodd" clip-rule="evenodd" d="M13.4214 1.36601L14.8505 2.43569C15.2413 2.72824 15.6527 2.87796 16.1401 2.9051L17.9224 3.00424C18.9896 3.06358 19.8563 3.79085 20.1001 4.83157L20.5072 6.56955C20.6186 7.04487 20.8375 7.42399 21.1935 7.75807L22.495 8.97968C23.2744 9.71112 23.4708 10.8254 22.9887 11.7793L22.1834 13.3723C21.9632 13.808 21.8872 14.2391 21.9451 14.7239L22.157 16.4963C22.2838 17.5576 21.7181 18.5374 20.7356 18.9582L19.0947 19.661C18.6459 19.8532 18.3105 20.1346 18.0434 20.5431L17.0663 22.037C16.4813 22.9316 15.4181 23.3185 14.395 23.0093L12.6863 22.4929C12.219 22.3517 11.7813 22.3517 11.3139 22.4929L9.60525 23.0093C8.58216 23.3185 7.51894 22.9316 6.93394 22.037L5.95692 20.5431C5.68969 20.1346 5.35434 19.8532 4.90561 19.661L3.26461 18.9581C2.28211 18.5373 1.71637 17.5575 1.84322 16.4962L2.05509 14.7238C2.11303 14.2391 2.037 13.8079 1.81678 13.3722L1.01151 11.7792C0.529358 10.8253 0.725812 9.71107 1.50516 8.97958L2.80673 7.75798C3.1627 7.4239 3.38156 7.04477 3.49289 6.56946L3.90005 4.83148C4.1438 3.7908 5.01056 3.06354 6.07776 3.00415L7.86 2.90501C8.34745 2.87791 8.75883 2.72815 9.14967 2.4356L10.5787 1.36591C11.4343 0.725507 12.5658 0.725507 13.4214 1.36601ZM11.0885 12.6122L9.53765 11.0614C9.1357 10.6594 8.48372 10.6594 8.08181 11.0614C7.67986 11.4634 7.67986 12.1153 8.08181 12.5172L10.3628 14.7982C10.7647 15.2001 11.4167 15.2001 11.8186 14.7982C13.1935 13.4233 14.5528 12.033 15.9213 10.6518C16.3203 10.2491 16.3191 9.59918 15.9168 9.19919C15.5145 8.79912 14.8628 8.80024 14.4633 9.20369L11.0885 12.6122ZM12 4.3338C9.88312 4.3338 7.96655 5.1919 6.57923 6.57921C5.19192 7.96657 4.33383 9.8831 4.33383 12C4.33383 14.1169 5.19192 16.0335 6.57923 17.4208C7.96655 18.8081 9.88312 19.6662 12 19.6662C14.117 19.6662 16.0335 18.8081 17.4209 17.4208C18.8082 16.0335 19.6663 14.1169 19.6663 12C19.6663 9.8831 18.8082 7.96652 17.4209 6.57921C16.0335 5.1919 14.117 4.3338 12 4.3338ZM16.8906 7.10951C15.639 5.85794 13.9099 5.0838 12 5.0838C10.0902 5.0838 8.36109 5.85794 7.10953 7.10951C5.85797 8.36107 5.08383 10.0901 5.08383 12C5.08383 13.9099 5.85797 15.639 7.10953 16.8905C8.36109 18.1421 10.0902 18.9162 12 18.9162C13.9099 18.9162 15.639 18.1421 16.8906 16.8906C18.1421 15.639 18.9162 13.9099 18.9162 12.0001C18.9163 10.0901 18.1421 8.36107 16.8906 7.10951Z" fill="#00B14F"/>
</svg>
